<?xml version="1.0" encoding="utf-8"?>
<!-- Generator: Adobe Illustrator 22.0.0, SVG Export Plug-In . SVG Version: 6.00 Build 0)  -->
<svg version="1.1" id="图层_1" xmlns="http://www.w3.org/2000/svg" xmlns:xlink="http://www.w3.org/1999/xlink" x="0px" y="0px"
	 viewBox="0 0 32 32" style="enable-background:new 0 0 32 32;" xml:space="preserve">
<style type="text/css">
	.st0{fill:#8A8A8A;}
</style>
<g>
	<path class="st0" d="M16,22.4c-3.7,0-6.4-2.8-6.4-6.4c0-3.7,2.8-6.4,6.4-6.4c3.7,0,6.4,2.8,6.4,6.4C22.4,19.7,19.7,22.4,16,22.4
		L16,22.4z M16,11.7c-2.4,0-4.3,1.9-4.3,4.3c0,2.4,1.9,4.3,4.3,4.3c2.4,0,4.3-1.9,4.3-4.3C20.3,13.6,18.4,11.7,16,11.7L16,11.7z
		 M16,11.7"/>
	<path class="st0" d="M19.5,30h-7c-0.5,0-0.9-0.3-0.9-0.9v-3.3c-0.7-0.3-1.4-0.7-1.9-1l-2.8,1.7c-0.3,0.2-0.9,0.2-1.2-0.3L2.2,20
		c-0.3-0.5-0.2-1,0.3-1.2L5.3,17V15l-2.8-1.7C2,13,1.8,12.5,2.2,12l3.5-6.1c0.2-0.3,0.7-0.5,1.2-0.2l2.8,1.7c0.5-0.3,1.2-0.9,1.9-1
		V2.9C11.6,2.4,12,2,12.5,2h7c0.5,0,0.9,0.3,0.9,0.9v3.3c0.7,0.3,1.4,0.7,1.9,1l2.8-1.7c0.3-0.2,0.9-0.2,1.2,0.3l3.5,6.1
		c0.3,0.5,0.2,1-0.3,1.2L26.7,15V17l2.8,1.7c0.3,0.2,0.5,0.7,0.3,1.2l-3.5,6.1c-0.2,0.3-0.7,0.5-1.2,0.3l-2.8-1.7
		c-0.5,0.3-1.2,0.9-1.9,1v3.3C20.4,29.6,20,30,19.5,30L19.5,30z M13.4,28.2h5.2v-3c0-0.3,0.2-0.7,0.5-0.9c0.9-0.3,1.7-0.9,2.4-1.4
		c0.3-0.2,0.7-0.2,1,0l2.6,1.6l2.6-4.5l-2.6-1.6c-0.3-0.3-0.5-0.7-0.3-1c0-0.5,0.2-0.9,0.2-1.4c0-0.5,0-0.9-0.2-1.4
		c0-0.3,0.2-0.7,0.3-0.9l2.6-1.6l-2.6-4.5l-2.6,1.6c-0.3,0.2-0.7,0.2-1,0c-0.7-0.5-1.6-1-2.4-1.4c-0.3-0.3-0.5-0.7-0.5-1v-3h-5.2v3
		c0,0.3-0.2,0.7-0.5,0.9C12,8,11.1,8.5,10.4,9c-0.3,0.2-0.7,0.2-1,0L6.7,7.6l-2.6,4.5l2.6,1.6c0.3,0.2,0.5,0.5,0.3,0.9
		c0,0.5-0.2,0.9-0.2,1.4c0,0.5,0,0.9,0.2,1.4c0.2,0.3,0,0.7-0.3,0.9l-2.6,1.6l2.6,4.5l2.6-1.6c0.3-0.2,0.7-0.2,1,0
		c0.7,0.5,1.6,1,2.4,1.4c0.3,0.2,0.5,0.5,0.5,0.9V28.2z M13.4,28.2"/>
</g>
</svg>
