<?xml version="1.0" encoding="utf-8"?>
<!-- Generator: Adobe Illustrator 22.0.0, SVG Export Plug-In . SVG Version: 6.00 Build 0)  -->
<svg version="1.1" id="图层_1" xmlns="http://www.w3.org/2000/svg" xmlns:xlink="http://www.w3.org/1999/xlink" x="0px" y="0px"
	 viewBox="0 0 24 24" style="enable-background:new 0 0 24 24;" xml:space="preserve">
<style type="text/css">
	.st0{fill:#909399;}
</style>
<g>
	<g>
		<path class="st0" d="M22.5,4c-0.1-0.3-0.3-0.4-0.6-0.5L10.6,1C10.3,0.9,10,1.1,9.8,1.3C9.6,1.6,9.6,2,9.8,2.3l4.7,7.3l-1.1,1.6
			c-0.6-0.4-1.6-0.6-3.3-0.8c-1-0.1-2.1-0.3-2.6-0.5L5.6,8.8C5.4,8.7,5.2,8.7,5,8.8C4.8,8.8,4.6,9,4.5,9.2l-3,7.7
			c-0.2,0.4,0,0.8,0.4,1l9.7,4.8c0,0,0,0,0,0c0.3,0.1,0.6,0.2,0.9,0.2c0.7,0,1.3-0.3,1.7-0.9l0,0c0.5-0.7,2.2-2.9,3.3-4.6
			c0.5-0.6,0.7-1.5,0.6-2.3c0,0,0-0.1,0-0.1c-0.2-0.7-0.7-1.3-1.3-1.6l-0.3-0.1l5.9-8.6C22.6,4.5,22.6,4.2,22.5,4L22.5,4z M5.7,10.6
			l0.9,0.5l-2.4,6.2l-0.9-0.5L5.7,10.6z M16.3,16.5C16.3,16.5,16.3,16.5,16.3,16.5L16.3,16.5c-0.1,0.2-0.2,0.2-0.2,0.3l-1.1-0.6
			c-0.4-0.2-0.9-0.1-1.1,0.3c-0.2,0.4-0.1,0.9,0.3,1.1l0.9,0.5c-0.2,0.3-0.4,0.6-0.6,0.9l-0.9-0.6c-0.2-0.2-0.6-0.2-0.8,0
			c-0.3,0.1-0.4,0.4-0.4,0.7c0,0.3,0.1,0.6,0.4,0.7l0.8,0.5c-0.2,0.2-0.4,0.5-0.5,0.7l0,0c0,0,0,0,0,0.1c-0.1,0.2-0.3,0.3-0.5,0.2
			L12,22.1l0.4-0.7c0,0,0,0,0,0L5.7,18l2.5-6.4c0.5,0.1,1.1,0.2,1.7,0.3c0.8,0.1,2.2,0.3,2.5,0.5c0.5,0.9,1.1,1.3,1.2,1.3
			c0,0,0.1,0,0.1,0l2.5,1.2c0.2,0.1,0.3,0.3,0.4,0.5C16.6,15.8,16.5,16.2,16.3,16.5L16.3,16.5z M15.1,12.6l-0.6-0.3l1.6-2.3
			c0.2-0.3,0.2-0.6,0-0.9L12.2,3l8.2,1.8L15.1,12.6z M15.1,12.6"/>
	</g>
</g>
</svg>
