<?xml version="1.0" encoding="utf-8"?>
<!-- Generator: Adobe Illustrator 22.0.0, SVG Export Plug-In . SVG Version: 6.00 Build 0)  -->
<svg version="1.1" id="图层_1" xmlns="http://www.w3.org/2000/svg" xmlns:xlink="http://www.w3.org/1999/xlink" x="0px" y="0px"
	 viewBox="0 0 32 32" style="enable-background:new 0 0 32 32;" xml:space="preserve">
<style type="text/css">
	.st0{fill:#8A8A8A;}
</style>
<g>
	<path class="st0" d="M2,2v28h28V2H2z M4.2,28.2V3.8h23.7v15.9c-0.3-0.1-0.7-0.2-1.1-0.2h-6.5c-1.8,0-3.3,1.2-3.3,2.6
		c0,1.4,1.5,2.6,3.3,2.6h6.5c0.4,0,0.7-0.1,1.1-0.2v3.7H4.2z M27.8,22.1c0,0.5-0.5,0.9-1.1,0.9h-6.5c-0.6,0-1-0.5-1-1
		c0.1-0.4,0.5-0.8,1-0.8h6.5C27.4,21.3,27.9,21.7,27.8,22.1L27.8,22.1z M6.3,21.2h2.2V23H6.3V21.2z M10.6,21.2h2.2V23h-2.2V21.2z
		 M6.3,17.8h2.2v1.7H6.3V17.8z M10.6,17.8h2.2v1.7h-2.2V17.8z M6.3,24.8h2.2v1.7H6.3V24.8z M10.6,24.8h2.2v1.7h-2.2V24.8z M25.7,5.5
		H6.3v8.7h19.4L25.7,5.5z M19.2,9.9c0,1.4-1.5,2.6-3.3,2.5c-1.8,0-3.2-1.2-3.2-2.6c0-1.4,1.5-2.5,3.2-2.5
		C17.8,7.3,19.2,8.4,19.2,9.9L19.2,9.9z M8.5,7.2h3.3c-1.5,1.6-1.5,3.7,0,5.2H8.5V7.2z M23.5,12.5h-3.3c1.5-1.6,1.5-3.7,0-5.2h3.3
		V12.5z M23.5,12.5"/>
</g>
</svg>
