<?xml version="1.0" encoding="utf-8"?>
<!-- Generator: Adobe Illustrator 22.0.0, SVG Export Plug-In . SVG Version: 6.00 Build 0)  -->
<svg version="1.1" id="图层_1" xmlns="http://www.w3.org/2000/svg" xmlns:xlink="http://www.w3.org/1999/xlink" x="0px" y="0px"
	 viewBox="0 0 24 24" style="enable-background:new 0 0 24 24;" xml:space="preserve">
<style type="text/css">
	.st0{fill:#909399;}
</style>
<g>
	<g>
		<path class="st0" d="M5,16.6c0,0-0.1,0.9,0.4,1.5c0.5,0.5,1.3,0.4,1.3,0.4l4.1-4.4l-1.7-1.6L5,16.6z M5,16.6"/>
		<path class="st0" d="M13.5,13.2L8.7,8.5L8.6,7.2L6.8,6.1L5.3,7.6l1.2,1.8l1.2,0.1l4.9,4.7l-1,1c1.5,1.5,2.9,2.9,4.4,4.4
			c1.5-0.4,2.4-1.4,2.9-2.9l-4.4-4.4L13.5,13.2z M13.5,13.2"/>
		<path class="st0" d="M13.3,11.6l0.7-0.8c1.5,0.6,3,0.4,4-0.5c1-0.9,1-2.6,1-2.6l-0.8-0.3L16.7,9l-2.2-2.2L16,5.2l-0.3-0.8
			c0,0-1.5,0-2.6,1c-1,0.9-1.3,2.5-0.6,3.9l-0.8,0.8L13.3,11.6z M13.3,11.6"/>
	</g>
	<path class="st0" d="M19.7,23H4.3C2.5,23,1,21.5,1,19.7V4.3C1,2.5,2.5,1,4.3,1h15.4C21.5,1,23,2.5,23,4.3v15.4
		C23,21.5,21.5,23,19.7,23z M4.3,2.3c-1.1,0-2,0.9-2,2v15.4c0,1.1,0.9,2,2,2h15.4c1.1,0,2-0.9,2-2V4.3c0-1.1-0.9-2-2-2H4.3z"/>
</g>
</svg>
