<?xml version="1.0" encoding="utf-8"?>
<!-- Generator: Adobe Illustrator 22.0.0, SVG Export Plug-In . SVG Version: 6.00 Build 0)  -->
<svg version="1.1" id="图层_1" xmlns="http://www.w3.org/2000/svg" xmlns:xlink="http://www.w3.org/1999/xlink" x="0px" y="0px"
	 viewBox="0 0 24 24" style="enable-background:new 0 0 24 24;" xml:space="preserve">
<style type="text/css">
	.st0{fill:#909399;}
</style>
<path class="st0" d="M18.8,12.8"/>
<g>
	<path class="st0" d="M8.8,6.1H5.7c-0.4,0-0.8,0.4-0.8,0.8c0,0.4,0.4,0.8,0.8,0.8h3.2c0.4,0,0.8-0.4,0.8-0.8
		C9.6,6.4,9.3,6.1,8.8,6.1L8.8,6.1z"/>
	<path class="st0" d="M18.3,9.6H5.7c-0.4,0-0.8,0.4-0.8,0.8s0.4,0.8,0.8,0.8h12.7c0.4,0,0.8-0.4,0.8-0.8C19.1,10,18.8,9.6,18.3,9.6
		L18.3,9.6z"/>
	<path class="st0" d="M18.3,12.8H5.7c-0.4,0-0.8,0.4-0.8,0.8c0,0.4,0.4,0.8,0.8,0.8h12.7c0.4,0,0.8-0.4,0.8-0.8
		C19.1,13.1,18.8,12.8,18.3,12.8L18.3,12.8z"/>
	<path class="st0" d="M5.7,17.6l12.7-0.2c0.4,0,0.8-0.4,0.8-0.8c0-0.4-0.4-0.8-0.8-0.8L5.7,16c-0.4,0-0.8,0.4-0.8,0.8
		C4.9,17.3,5.3,17.6,5.7,17.6L5.7,17.6z M5.7,14.5l12.7-0.2c0.4,0,0.8-0.4,0.8-0.8c0-0.4-0.4-0.8-0.8-0.8L5.6,12.9
		c-0.4,0-0.8,0.4-0.8,0.8C4.9,14.1,5.2,14.5,5.7,14.5L5.7,14.5z M5.7,14.5"/>
	<path class="st0" d="M18.3,16H5.7c-0.4,0-0.8,0.4-0.8,0.8c0,0.4,0.4,0.8,0.8,0.8h12.7c0.4,0,0.8-0.4,0.8-0.8
		C19.1,16.3,18.8,16,18.3,16L18.3,16z"/>
	<path class="st0" d="M19.1,16.8c0,0.2-0.1,0.4-0.2,0.6c-0.1,0.1-0.4,0.2-0.6,0.2H5.7c-0.4,0-0.8-0.4-0.8-0.8c0-0.4,0.4-0.8,0.8-0.8
		h12.7c0.2,0,0.4,0.1,0.6,0.2C19,16.3,19.1,16.5,19.1,16.8L19.1,16.8z M19.1,16.8"/>
	<path class="st0" d="M19.1,13.6c0,0.5-0.4,0.9-0.8,0.9H5.7c-0.4,0-0.8-0.4-0.8-0.9c0-0.5,0.4-0.9,0.8-0.9h12.7
		C18.8,12.7,19.1,13.1,19.1,13.6L19.1,13.6z M19.1,13.6"/>
	<path class="st0" d="M20,23H4c-1.4,0-2.5-1.1-2.5-2.5v-17C1.5,2.1,2.6,1,4,1h16c1.4,0,2.5,1.1,2.5,2.5v17C22.5,21.9,21.4,23,20,23z
		 M4,2.4c-0.6,0-1.1,0.5-1.1,1.1v17c0,0.6,0.5,1.1,1.1,1.1h16c0.6,0,1.1-0.5,1.1-1.1v-17c0-0.6-0.5-1.1-1.1-1.1H4z"/>
</g>
</svg>
