<?xml version="1.0" standalone="no"?><!DOCTYPE svg PUBLIC "-//W3C//DTD SVG 1.1//EN" "http://www.w3.org/Graphics/SVG/1.1/DTD/svg11.dtd"><svg t="1577781585250" class="icon" viewBox="0 0 1024 1024" version="1.1" xmlns="http://www.w3.org/2000/svg" p-id="1172" width="32" height="32" xmlns:xlink="http://www.w3.org/1999/xlink"><defs><style type="text/css"></style></defs><path d="M924.8 337.6c-22.5-53.3-54.8-101.2-95.9-142.3-41.1-41.1-89-73.4-142.3-95.9-55.2-23.3-113.8-35.2-174.2-35.2S393.4 76 338.2 99.4c-53.3 22.5-101.2 54.8-142.3 95.9s-73.4 89-95.9 142.3c-23.3 55.2-35.2 113.8-35.2 174.2 0 60.4 11.8 119 35.2 174.2 22.5 53.3 54.8 101.2 95.9 142.3 41.1 41.1 89 73.4 142.3 95.9 55.2 23.3 113.8 35.2 174.2 35.2s119-11.8 174.2-35.2c53.3-22.5 101.2-54.8 142.3-95.9 41.1-41.1 73.4-89 95.9-142.3 23.3-55.2 35.2-113.8 35.2-174.2-0.1-60.4-11.9-119-35.2-174.2zM512.3 915.8c-222.7 0-403.9-181.2-403.9-403.9S289.6 108 512.3 108s403.9 181.2 403.9 403.9-181.1 403.9-403.9 403.9z" p-id="1173" fill="#8a8a8a"></path><path d="M654.6 177.2c-44.8-18.9-92.3-28.5-141.4-28.5-49 0-96.6 9.6-141.4 28.5-43.2 18.3-82.1 44.5-115.4 77.8-33.3 33.3-59.5 72.2-77.8 115.4-18.9 44.8-28.5 92.3-28.5 141.4s9.6 96.6 28.5 141.4c18.3 43.2 44.5 82.1 77.8 115.4 33.3 33.3 72.2 59.5 115.4 77.8 44.8 18.9 92.3 28.5 141.4 28.5 49 0 96.6-9.6 141.4-28.5 43.2-18.3 82.1-44.5 115.4-77.8 33.3-33.3 59.5-72.2 77.8-115.4 18.9-44.8 28.5-92.3 28.5-141.4s-9.6-96.6-28.5-141.4c-18.3-43.2-44.5-82.1-77.8-115.4-33.3-33.3-72.1-59.5-115.4-77.8zM513.3 835c-178.2 0-323.2-145-323.2-323.2s145-323.2 323.2-323.2 323.2 145 323.2 323.2S691.5 835 513.3 835z" p-id="1174" fill="#8a8a8a"></path><path d="M535.2 506.2l-0.7-261.7c0-12.1-9.8-21.8-21.9-21.8-12.1 0-21.8 9.8-21.8 21.9l0.7 270.7c0 6.4 2.8 12.1 7.1 16.1l132 131.9c8.5 8.5 22.4 8.5 30.9 0s8.5-22.4 0-30.9L535.2 506.2z" p-id="1175" fill="#8a8a8a"></path></svg>