<?xml version="1.0" encoding="utf-8"?>
<!-- Generator: Adobe Illustrator 22.0.0, SVG Export Plug-In . SVG Version: 6.00 Build 0)  -->
<svg version="1.1" id="图层_1" xmlns="http://www.w3.org/2000/svg" xmlns:xlink="http://www.w3.org/1999/xlink" x="0px" y="0px"
	 viewBox="0 0 32 32" style="enable-background:new 0 0 32 32;" xml:space="preserve">
<style type="text/css">
	.st0{fill:#8A8A8A;}
</style>
<g>
	<path class="st0" d="M24.9,12c0-0.3-0.1-0.5-0.3-0.7c-0.2-0.2-0.4-0.3-0.7-0.3h-12c-0.6,0-1,0.4-1,1c0,0.6,0.4,1,1,1h12
		c0.3,0,0.5-0.1,0.7-0.3C24.8,12.5,24.9,12.3,24.9,12L24.9,12z M24.9,18c0-0.3-0.1-0.5-0.3-0.7c-0.2-0.2-0.4-0.3-0.7-0.3h-12
		c-0.6,0-1,0.4-1,1c0,0.6,0.4,1,1,1h12C24.4,19,24.9,18.6,24.9,18L24.9,18z M11.9,23c-0.6,0-1,0.4-1,1c0,0.6,0.4,1,1,1h6
		c0.6,0,1-0.4,1-1c0-0.6-0.4-1-1-1H11.9z M11.9,23"/>
	<path class="st0" d="M19.9,28h-10c-0.6,0-1-0.4-1-1V9c0-0.3,0.1-0.5,0.3-0.7C9.4,8.1,9.6,8,9.9,8h16c0.6,0,1,0.4,1,1v9
		c0,0.6,0.4,1,1,1c0.6,0,1-0.4,1-1V8c0-1.1-0.9-2-2-2h-2V4c0-1.1-0.9-2-2-2h-18c-1.1,0-2,0.9-2,2v20c0,1.1,0.9,2,2,2h2v2
		c0,1.1,0.9,2,2,2h11c0.6,0,1-0.4,1-1C20.9,28.4,20.4,28,19.9,28L19.9,28z M6.9,8v16h-1c-0.3,0-0.5-0.1-0.7-0.3
		C5,23.5,4.9,23.3,4.9,23V5c0-0.3,0.1-0.5,0.3-0.7C5.4,4.1,5.6,4,5.9,4H22c0.6,0,1,0.4,1,1v1H8.9C7.8,6,6.9,6.9,6.9,8L6.9,8z M6.9,8
		"/>
	<path class="st0" d="M23.3,27.7v1.2l-3.5-1.7l3.5-1.8v1.2h3.5v-3.5h-1.2l1.7-3.5l1.8,3.5h-1.2v4.7H23.3z M23.3,27.7"/>
</g>
</svg>
