<?xml version="1.0" encoding="utf-8"?>
<!-- Generator: Adobe Illustrator 22.0.0, SVG Export Plug-In . SVG Version: 6.00 Build 0)  -->
<svg version="1.1" id="图层_1" xmlns="http://www.w3.org/2000/svg" xmlns:xlink="http://www.w3.org/1999/xlink" x="0px" y="0px"
	 viewBox="0 0 1580 80" style="enable-background:new 0 0 1580 80;" xml:space="preserve">
<style type="text/css">
	.st0{fill:#616161;}
	.st1{fill:#001A33;}
	.st2{fill:none;stroke:#490505;stroke-width:2;stroke-miterlimit:10;}
	.st3{fill:#0067E2;}
	.st4{fill:#616161;stroke:#490505;stroke-width:2;stroke-miterlimit:10;}
	.st5{fill:#5C6266;}
</style>
<g>
	<path class="st5" d="M89.8,46.3h-8.6c-0.3,0-0.6-0.3-0.6-0.6v-8.8c0-0.3,0.3-0.6,0.6-0.6h8.6c0.3,0,0.6,0.3,0.6,0.6v8.8
		C90.4,46,90.1,46.3,89.8,46.3z M81.2,36.6c-0.2,0-0.3,0.2-0.3,0.3v8.8c0,0.2,0.2,0.3,0.3,0.3h8.6c0.2,0,0.3-0.2,0.3-0.3v-8.8
		c0-0.2-0.2-0.3-0.3-0.3H81.2z"/>
	<path class="st5" d="M78.2,46.3h-8.6c-0.3,0-0.6-0.3-0.6-0.6v-8.8c0-0.3,0.3-0.6,0.6-0.6h8.6c0.3,0,0.6,0.3,0.6,0.6v8.8
		C78.8,46,78.5,46.3,78.2,46.3z M69.6,36.6c-0.2,0-0.3,0.2-0.3,0.3v8.8c0,0.2,0.2,0.3,0.3,0.3h8.6c0.2,0,0.3-0.2,0.3-0.3v-8.8
		c0-0.2-0.2-0.3-0.3-0.3H69.6z"/>
	<path class="st5" d="M66.6,46.3H58c-0.3,0-0.6-0.3-0.6-0.6v-8.8c0-0.3,0.3-0.6,0.6-0.6h8.6c0.3,0,0.6,0.3,0.6,0.6v8.8
		C67.2,46,67,46.3,66.6,46.3z M58,36.6c-0.2,0-0.3,0.2-0.3,0.3v8.8c0,0.2,0.2,0.3,0.3,0.3h8.6c0.2,0,0.3-0.2,0.3-0.3v-8.8
		c0-0.2-0.2-0.3-0.3-0.3H58z"/>
	<path class="st5" d="M33.3,46.3h-8.6c-0.3,0-0.6-0.3-0.6-0.6v-8.8c0-0.3,0.3-0.6,0.6-0.6h8.6c0.3,0,0.6,0.3,0.6,0.6v8.8
		C33.9,46,33.6,46.3,33.3,46.3z M24.7,36.6c-0.2,0-0.3,0.2-0.3,0.3v8.8c0,0.2,0.2,0.3,0.3,0.3h8.6c0.2,0,0.3-0.2,0.3-0.3v-8.8
		c0-0.2-0.2-0.3-0.3-0.3H24.7z"/>
	<path class="st5" d="M14.6,65.9c-2.7,0-5.7,0-7.3,0c-1.1-0.1-1.9-0.4-2.4-1.1c-0.7-1-0.3-2.4-0.2-2.9L3,61.5l1.1-13.1
		c1.1-8.7,2.7-13.9,5.4-17.2c3.1-3.7,7.8-5.2,14.8-4.7c2.1,0.1,9.3,0,9.3,0l0.1,0v1.8h62.7v-1.9h85.2v1.9h62.2v-1.9h17.6v33.8H3.4
		l-0.1,1l1.8,0.4l-0.1,0.2c0,0-0.6,1.7,0.1,2.8c0.4,0.6,1.1,0.9,2.1,1c3.2,0,11.4,0,12.4,0c4.1,0.2,7.4-1.6,10-5.2l0.2,0.2
		c-2.6,3.7-6.1,5.5-10.2,5.3C19.2,65.9,17.1,65.9,14.6,65.9z M3.4,60h257.7V26.8h-17.1v1.9h-62.7v-1.9H96.7v1.9H33.5v-1.8
		c-1,0-7.3,0.1-9.2,0c-14.5-1-18.1,6.5-19.9,21.6L3.4,60z"/>
	<path class="st5" d="M21.4,58.4h-4.6c-0.8,0-1.5-0.7-1.5-1.6V37.6c0-0.9,0.7-1.6,1.5-1.6h4.6c0.8,0,1.5,0.7,1.5,1.6v19.2
		C22.8,57.7,22.2,58.4,21.4,58.4z M16.8,36.3c-0.7,0-1.2,0.6-1.2,1.3v19.2c0,0.7,0.5,1.3,1.2,1.3h4.6c0.7,0,1.2-0.6,1.2-1.3V37.6
		c0-0.7-0.5-1.3-1.2-1.3H16.8z"/>
	<path class="st5" d="M20.5,47.9h-2.6c-0.7,0-1.3-0.6-1.3-1.4v-7.8c0-0.8,0.6-1.4,1.3-1.4h2.6c0.7,0,1.3,0.6,1.3,1.4v7.8
		C21.8,47.2,21.2,47.9,20.5,47.9z M17.9,37.6c-0.6,0-1,0.5-1,1.1v7.8c0,0.6,0.5,1.1,1,1.1h2.6c0.6,0,1-0.5,1-1.1v-7.8
		c0-0.6-0.5-1.1-1-1.1H17.9z"/>
	<path class="st5" d="M25.3,56.6c-0.3,0-0.5-0.2-0.5-0.5v-7.2c0-0.3,0.2-0.5,0.5-0.5c0.3,0,0.5,0.2,0.5,0.5v7.2
		C25.8,56.4,25.6,56.6,25.3,56.6z M25.3,48.6c-0.2,0-0.3,0.2-0.3,0.3v7.2c0,0.2,0.2,0.3,0.3,0.3c0.2,0,0.3-0.2,0.3-0.3v-7.2
		C25.7,48.7,25.5,48.6,25.3,48.6z"/>
	<path class="st5" d="M53.5,58.4H35.9c-0.8,0-1.5-0.7-1.5-1.5V35.1c0-0.8,0.7-1.5,1.5-1.5h17.6c0.8,0,1.5,0.7,1.5,1.5v21.7
		C55,57.7,54.3,58.4,53.5,58.4z M35.9,33.9c-0.7,0-1.2,0.5-1.2,1.2v21.7c0,0.7,0.5,1.2,1.2,1.2h17.6c0.7,0,1.2-0.5,1.2-1.2V35.1
		c0-0.7-0.5-1.2-1.2-1.2H35.9z"/>
	<rect x="44.6" y="33.8" class="st5" width="0.3" height="24.5"/>
	<path class="st5" d="M42,48.1h-3.2c-0.6,0-1.2-0.5-1.2-1.2v-9.4c0-0.6,0.5-1.2,1.2-1.2H42c0.6,0,1.2,0.5,1.2,1.2v9.4
		C43.1,47.5,42.6,48.1,42,48.1z M38.7,36.7c-0.5,0-0.9,0.4-0.9,0.9v9.4c0,0.5,0.4,0.9,0.9,0.9H42c0.5,0,0.9-0.4,0.9-0.9v-9.4
		c0-0.5-0.4-0.9-0.9-0.9H38.7z"/>
	<path class="st5" d="M50.6,48.1h-3.2c-0.6,0-1.2-0.5-1.2-1.2v-9.4c0-0.6,0.5-1.2,1.2-1.2h3.2c0.6,0,1.2,0.5,1.2,1.2v9.4
		C51.8,47.5,51.3,48.1,50.6,48.1z M47.4,36.7c-0.5,0-0.9,0.4-0.9,0.9v9.4c0,0.5,0.4,0.9,0.9,0.9h3.2c0.5,0,0.9-0.4,0.9-0.9v-9.4
		c0-0.5-0.4-0.9-0.9-0.9H47.4z"/>
	<path class="st5" d="M147.8,46.3h-8.6c-0.3,0-0.6-0.3-0.6-0.6v-8.8c0-0.3,0.3-0.6,0.6-0.6h8.6c0.3,0,0.6,0.3,0.6,0.6v8.8
		C148.4,46,148.1,46.3,147.8,46.3z M139.2,36.6c-0.2,0-0.3,0.2-0.3,0.3v8.8c0,0.2,0.2,0.3,0.3,0.3h8.6c0.2,0,0.3-0.2,0.3-0.3v-8.8
		c0-0.2-0.2-0.3-0.3-0.3H139.2z"/>
	<path class="st5" d="M136.2,46.3h-8.6c-0.3,0-0.6-0.3-0.6-0.6v-8.8c0-0.3,0.3-0.6,0.6-0.6h8.6c0.3,0,0.6,0.3,0.6,0.6v8.8
		C136.8,46,136.5,46.3,136.2,46.3z M127.6,36.6c-0.2,0-0.3,0.2-0.3,0.3v8.8c0,0.2,0.2,0.3,0.3,0.3h8.6c0.2,0,0.3-0.2,0.3-0.3v-8.8
		c0-0.2-0.2-0.3-0.3-0.3H127.6z"/>
	<path class="st5" d="M124.6,46.3H116c-0.3,0-0.6-0.3-0.6-0.6v-8.8c0-0.3,0.3-0.6,0.6-0.6h8.6c0.3,0,0.6,0.3,0.6,0.6v8.8
		C125.2,46,124.9,46.3,124.6,46.3z M116,36.6c-0.2,0-0.3,0.2-0.3,0.3v8.8c0,0.2,0.2,0.3,0.3,0.3h8.6c0.2,0,0.3-0.2,0.3-0.3v-8.8
		c0-0.2-0.2-0.3-0.3-0.3H116z"/>
	<path class="st5" d="M111.5,58.4H93.9c-0.8,0-1.5-0.7-1.5-1.5V35.1c0-0.8,0.7-1.5,1.5-1.5h17.6c0.8,0,1.5,0.7,1.5,1.5v21.7
		C113,57.7,112.3,58.4,111.5,58.4z M93.9,33.9c-0.7,0-1.2,0.5-1.2,1.2v21.7c0,0.7,0.5,1.2,1.2,1.2h17.6c0.7,0,1.2-0.5,1.2-1.2V35.1
		c0-0.7-0.5-1.2-1.2-1.2H93.9z"/>
	<rect x="102.6" y="33.8" class="st5" width="0.3" height="24.5"/>
	<path class="st5" d="M100,48.1h-3.2c-0.6,0-1.2-0.5-1.2-1.2v-9.4c0-0.6,0.5-1.2,1.2-1.2h3.2c0.6,0,1.2,0.5,1.2,1.2v9.4
		C101.1,47.5,100.6,48.1,100,48.1z M96.7,36.7c-0.5,0-0.9,0.4-0.9,0.9v9.4c0,0.5,0.4,0.9,0.9,0.9h3.2c0.5,0,0.9-0.4,0.9-0.9v-9.4
		c0-0.5-0.4-0.9-0.9-0.9H96.7z"/>
	<path class="st5" d="M108.6,48.1h-3.2c-0.6,0-1.2-0.5-1.2-1.2v-9.4c0-0.6,0.5-1.2,1.2-1.2h3.2c0.6,0,1.2,0.5,1.2,1.2v9.4
		C109.8,47.5,109.3,48.1,108.6,48.1z M105.4,36.7c-0.5,0-0.9,0.4-0.9,0.9v9.4c0,0.5,0.4,0.9,0.9,0.9h3.2c0.5,0,0.9-0.4,0.9-0.9v-9.4
		c0-0.5-0.4-0.9-0.9-0.9H105.4z"/>
	<path class="st5" d="M206.1,46.3h-8.6c-0.3,0-0.6-0.3-0.6-0.6v-8.8c0-0.3,0.3-0.6,0.6-0.6h8.6c0.3,0,0.6,0.3,0.6,0.6v8.8
		C206.7,46,206.4,46.3,206.1,46.3z M197.5,36.6c-0.2,0-0.3,0.2-0.3,0.3v8.8c0,0.2,0.2,0.3,0.3,0.3h8.6c0.2,0,0.3-0.2,0.3-0.3v-8.8
		c0-0.2-0.2-0.3-0.3-0.3H197.5z"/>
	<path class="st5" d="M194.5,46.3h-8.6c-0.3,0-0.6-0.3-0.6-0.6v-8.8c0-0.3,0.3-0.6,0.6-0.6h8.6c0.3,0,0.6,0.3,0.6,0.6v8.8
		C195.1,46,194.8,46.3,194.5,46.3z M185.9,36.6c-0.2,0-0.3,0.2-0.3,0.3v8.8c0,0.2,0.2,0.3,0.3,0.3h8.6c0.2,0,0.3-0.2,0.3-0.3v-8.8
		c0-0.2-0.2-0.3-0.3-0.3H185.9z"/>
	<path class="st5" d="M182.9,46.3h-8.6c-0.3,0-0.6-0.3-0.6-0.6v-8.8c0-0.3,0.3-0.6,0.6-0.6h8.6c0.3,0,0.6,0.3,0.6,0.6v8.8
		C183.5,46,183.2,46.3,182.9,46.3z M174.3,36.6c-0.2,0-0.3,0.2-0.3,0.3v8.8c0,0.2,0.2,0.3,0.3,0.3h8.6c0.2,0,0.3-0.2,0.3-0.3v-8.8
		c0-0.2-0.2-0.3-0.3-0.3H174.3z"/>
	<path class="st5" d="M169.8,58.4h-17.6c-0.8,0-1.5-0.7-1.5-1.5V35.1c0-0.8,0.7-1.5,1.5-1.5h17.6c0.8,0,1.5,0.7,1.5,1.5v21.7
		C171.3,57.7,170.6,58.4,169.8,58.4z M152.2,33.9c-0.7,0-1.2,0.5-1.2,1.2v21.7c0,0.7,0.5,1.2,1.2,1.2h17.6c0.7,0,1.2-0.5,1.2-1.2
		V35.1c0-0.7-0.5-1.2-1.2-1.2H152.2z"/>
	<rect x="160.8" y="33.8" class="st5" width="0.3" height="24.5"/>
	<path class="st5" d="M158.2,48.1H155c-0.6,0-1.2-0.5-1.2-1.2v-9.4c0-0.6,0.5-1.2,1.2-1.2h3.2c0.6,0,1.2,0.5,1.2,1.2v9.4
		C159.4,47.5,158.9,48.1,158.2,48.1z M155,36.7c-0.5,0-0.9,0.4-0.9,0.9v9.4c0,0.5,0.4,0.9,0.9,0.9h3.2c0.5,0,0.9-0.4,0.9-0.9v-9.4
		c0-0.5-0.4-0.9-0.9-0.9H155z"/>
	<path class="st5" d="M166.9,48.1h-3.2c-0.6,0-1.2-0.5-1.2-1.2v-9.4c0-0.6,0.5-1.2,1.2-1.2h3.2c0.6,0,1.2,0.5,1.2,1.2v9.4
		C168.1,47.5,167.6,48.1,166.9,48.1z M163.7,36.7c-0.5,0-0.9,0.4-0.9,0.9v9.4c0,0.5,0.4,0.9,0.9,0.9h3.2c0.5,0,0.9-0.4,0.9-0.9v-9.4
		c0-0.5-0.4-0.9-0.9-0.9H163.7z"/>
	<path class="st5" d="M253.2,46.3h-8.6c-0.3,0-0.6-0.3-0.6-0.6v-8.8c0-0.3,0.3-0.6,0.6-0.6h8.6c0.3,0,0.6,0.3,0.6,0.6v8.8
		C253.8,46,253.5,46.3,253.2,46.3z M244.6,36.6c-0.2,0-0.3,0.2-0.3,0.3v8.8c0,0.2,0.2,0.3,0.3,0.3h8.6c0.2,0,0.3-0.2,0.3-0.3v-8.8
		c0-0.2-0.2-0.3-0.3-0.3H244.6z"/>
	<path class="st5" d="M241.6,46.3H233c-0.3,0-0.6-0.3-0.6-0.6v-8.8c0-0.3,0.3-0.6,0.6-0.6h8.6c0.3,0,0.6,0.3,0.6,0.6v8.8
		C242.2,46,242,46.3,241.6,46.3z M233,36.6c-0.2,0-0.3,0.2-0.3,0.3v8.8c0,0.2,0.2,0.3,0.3,0.3h8.6c0.2,0,0.3-0.2,0.3-0.3v-8.8
		c0-0.2-0.2-0.3-0.3-0.3H233z"/>
	<path class="st5" d="M228.5,58.4h-17.6c-0.8,0-1.5-0.7-1.5-1.5V35.1c0-0.8,0.7-1.5,1.5-1.5h17.6c0.8,0,1.5,0.7,1.5,1.5v21.7
		C230,57.7,229.3,58.4,228.5,58.4z M210.9,33.9c-0.7,0-1.2,0.5-1.2,1.2v21.7c0,0.7,0.5,1.2,1.2,1.2h17.6c0.7,0,1.2-0.5,1.2-1.2V35.1
		c0-0.7-0.5-1.2-1.2-1.2H210.9z"/>
	<rect x="219.6" y="33.8" class="st5" width="0.3" height="24.5"/>
	<path class="st5" d="M217,48.1h-3.2c-0.6,0-1.2-0.5-1.2-1.2v-9.4c0-0.6,0.5-1.2,1.2-1.2h3.2c0.6,0,1.2,0.5,1.2,1.2v9.4
		C218.1,47.5,217.6,48.1,217,48.1z M213.8,36.7c-0.5,0-0.9,0.4-0.9,0.9v9.4c0,0.5,0.4,0.9,0.9,0.9h3.2c0.5,0,0.9-0.4,0.9-0.9v-9.4
		c0-0.5-0.4-0.9-0.9-0.9H213.8z"/>
	<path class="st5" d="M225.6,48.1h-3.2c-0.6,0-1.2-0.5-1.2-1.2v-9.4c0-0.6,0.5-1.2,1.2-1.2h3.2c0.6,0,1.2,0.5,1.2,1.2v9.4
		C226.8,47.5,226.3,48.1,225.6,48.1z M222.4,36.7c-0.5,0-0.9,0.4-0.9,0.9v9.4c0,0.5,0.4,0.9,0.9,0.9h3.2c0.5,0,0.9-0.4,0.9-0.9v-9.4
		c0-0.5-0.4-0.9-0.9-0.9H222.4z"/>
	<path class="st5" d="M5.1,54.4c-0.3,0-0.5,0-0.8-0.1l-0.1,0l0-0.1c0.4-2.5,2.4-3.8,4.1-3.8c0,0,0,0,0,0l0.1,0l0,0.1
		c0.1,0.7-0.6,2.4-1.7,3.3C6.2,54.2,5.7,54.4,5.1,54.4z M4.6,54c0.7,0.2,1.4,0,2-0.5c1-0.8,1.6-2.2,1.6-2.9
		C6.7,50.7,4.9,51.9,4.6,54z"/>
	<path class="st5" d="M4.2,51.5l-0.3-0.1c0.1-0.3,0.3-1.2,0.5-2.5c1-5.9,3.2-19.6,12.4-20.2c4.2-0.1,7.2,0,7.2,0l0,0.3
		c0,0-3-0.1-7.2,0C7.9,29.6,5.7,43.2,4.7,49C4.5,50.3,4.3,51.2,4.2,51.5z"/>
	<path class="st5" d="M4,53.8l-0.3-0.1c0-0.1,1-5.3,3.6-10.6c1.5-3.1,3.3-5.7,5.2-7.6c2.5-2.4,5.2-3.7,8.2-4c45,0,107.9,0,152.8,0.1
		c24.6,0,46.5,0,62.3,0l25.2,0c0,0,0.1,0,0.1,0v0v0c0.1,0,0.1,0,0.1,0.1l0,0.1h-0.1c-0.5,0-155.6-0.1-240.5-0.1
		C14.2,32.5,10,38.4,7.6,43.3C5,48.6,4,53.8,4,53.8z"/>
	<rect x="24" y="30.2" class="st5" width="237.2" height="0.3"/>
	<g>
		<path class="st5" d="M56.9,64.3c1.5,0,2.8-0.9,3.4-2.3h-6.8C54,63.4,55.3,64.3,56.9,64.3z"/>
		<path class="st5" d="M60.6,60.3h-7.4c0,0.3,0,0.5,0.1,0.7h7.3C60.5,60.8,60.6,60.6,60.6,60.3z"/>
		<rect x="55.1" y="63.7" class="st5" width="3.7" height="4.5"/>
		<path class="st5" d="M42.2,71.4c-3,0-5.4-2.4-5.4-5.4c0-3,2.4-5.4,5.4-5.4c3,0,5.4,2.4,5.4,5.4C47.6,69,45.2,71.4,42.2,71.4z
			 M42.2,61.2c-2.6,0-4.8,2.2-4.8,4.8s2.2,4.8,4.8,4.8S47,68.7,47,66S44.9,61.2,42.2,61.2z"/>
		<path class="st5" d="M42.2,70.5c-2.5,0-4.5-2-4.5-4.5c0-2.5,2-4.5,4.5-4.5s4.5,2,4.5,4.5C46.7,68.5,44.7,70.5,42.2,70.5z
			 M42.2,61.8c-2.3,0-4.2,1.9-4.2,4.2c0,2.3,1.9,4.2,4.2,4.2s4.2-1.9,4.2-4.2C46.4,63.7,44.5,61.8,42.2,61.8z"/>
		<path class="st5" d="M42.2,69.5c-1.9,0-3.5-1.6-3.5-3.5s1.6-3.5,3.5-3.5c1.9,0,3.5,1.6,3.5,3.5S44.2,69.5,42.2,69.5z M42.2,62.7
			c-1.8,0-3.3,1.5-3.3,3.3s1.5,3.3,3.3,3.3s3.3-1.5,3.3-3.3S44.1,62.7,42.2,62.7z"/>
		<path class="st5" d="M71.7,71.4c-3,0-5.4-2.4-5.4-5.4c0-3,2.4-5.4,5.4-5.4c3,0,5.4,2.4,5.4,5.4C77,69,74.6,71.4,71.7,71.4z
			 M71.7,61.2c-2.6,0-4.8,2.2-4.8,4.8s2.2,4.8,4.8,4.8s4.8-2.2,4.8-4.8S74.3,61.2,71.7,61.2z"/>
		<path class="st5" d="M71.7,70.5c-2.5,0-4.5-2-4.5-4.5c0-2.5,2-4.5,4.5-4.5c2.5,0,4.5,2,4.5,4.5C76.1,68.5,74.1,70.5,71.7,70.5z
			 M71.7,61.8c-2.3,0-4.2,1.9-4.2,4.2c0,2.3,1.9,4.2,4.2,4.2c2.3,0,4.2-1.9,4.2-4.2C75.8,63.7,73.9,61.8,71.7,61.8z"/>
		<path class="st5" d="M71.7,69.5c-1.9,0-3.5-1.6-3.5-3.5s1.6-3.5,3.5-3.5c1.9,0,3.5,1.6,3.5,3.5S73.6,69.5,71.7,69.5z M71.7,62.7
			c-1.8,0-3.3,1.5-3.3,3.3s1.5,3.3,3.3,3.3S75,67.9,75,66S73.5,62.7,71.7,62.7z"/>
		<path class="st5" d="M71.7,60.3c2.4,0,4.5,1.5,5.4,3.7h0.9l-0.3-2.4l-2.1-1.4l-9.1,0.1l0,0l0,0c0,0-1.5,1.1-2.7,2
			c-1.3,0.9-1.9,1-2.4,1.1c-0.5,0.1-6.5,0.2-7.5,0c-1-0.2-4.7-3.1-4.8-3.2l0,0h-9.5l-2.8,1.7L34.9,62l-0.3,1.5l2.5,0
			c0.9-1.9,2.9-3.2,5.2-3.2c2.4,0,4.4,1.5,5.3,3.5c2.8,0,15.7,0,18.8,0C67.2,61.7,69.3,60.3,71.7,60.3z"/>
		<rect x="52.7" y="61.5" class="st5" width="8.3" height="0.3"/>
		<path class="st5" d="M42.2,64c-1.1,0-2,0.9-2,2c0,1.1,0.9,2,2,2c1.1,0,2-0.9,2-2C44.3,64.9,43.4,64,42.2,64z M42.2,67.1
			c-0.6,0-1.1-0.5-1.1-1.1s0.5-1.1,1.1-1.1c0.6,0,1.1,0.5,1.1,1.1S42.8,67.1,42.2,67.1z"/>
		<path class="st5" d="M71.7,64c-1.1,0-2,0.9-2,2c0,1.1,0.9,2,2,2c1.1,0,2-0.9,2-2C73.7,64.9,72.8,64,71.7,64z M71.7,67.1
			c-0.6,0-1.1-0.5-1.1-1.1s0.5-1.1,1.1-1.1c0.6,0,1.1,0.5,1.1,1.1S72.2,67.1,71.7,67.1z"/>
		<rect x="41.9" y="64.5" class="st5" width="29.7" height="0.3"/>
		<rect x="41.9" y="67.2" class="st5" width="29.7" height="0.3"/>
	</g>
	<g>
		<path class="st5" d="M206.8,64.3c1.5,0,2.8-0.9,3.4-2.3h-6.8C203.9,63.4,205.3,64.3,206.8,64.3z"/>
		<path class="st5" d="M210.5,60.3h-7.4c0,0.3,0,0.5,0.1,0.7h7.3C210.5,60.8,210.5,60.6,210.5,60.3z"/>
		<rect x="205.1" y="63.7" class="st5" width="3.7" height="4.5"/>
		<path class="st5" d="M192.2,71.4c-3,0-5.4-2.4-5.4-5.4c0-3,2.4-5.4,5.4-5.4c3,0,5.4,2.4,5.4,5.4C197.6,69,195.2,71.4,192.2,71.4z
			 M192.2,61.2c-2.6,0-4.8,2.2-4.8,4.8s2.2,4.8,4.8,4.8c2.6,0,4.8-2.2,4.8-4.8S194.8,61.2,192.2,61.2z"/>
		<path class="st5" d="M192.2,70.5c-2.5,0-4.5-2-4.5-4.5c0-2.5,2-4.5,4.5-4.5c2.5,0,4.5,2,4.5,4.5C196.6,68.5,194.6,70.5,192.2,70.5
			z M192.2,61.8c-2.3,0-4.2,1.9-4.2,4.2c0,2.3,1.9,4.2,4.2,4.2c2.3,0,4.2-1.9,4.2-4.2C196.4,63.7,194.5,61.8,192.2,61.8z"/>
		<path class="st5" d="M192.2,69.5c-1.9,0-3.5-1.6-3.5-3.5s1.6-3.5,3.5-3.5c1.9,0,3.5,1.6,3.5,3.5S194.1,69.5,192.2,69.5z
			 M192.2,62.7c-1.8,0-3.3,1.5-3.3,3.3s1.5,3.3,3.3,3.3s3.3-1.5,3.3-3.3S194,62.7,192.2,62.7z"/>
		<path class="st5" d="M221.6,71.4c-3,0-5.4-2.4-5.4-5.4c0-3,2.4-5.4,5.4-5.4c3,0,5.4,2.4,5.4,5.4C227,69,224.6,71.4,221.6,71.4z
			 M221.6,61.2c-2.6,0-4.8,2.2-4.8,4.8s2.2,4.8,4.8,4.8c2.6,0,4.8-2.2,4.8-4.8S224.2,61.2,221.6,61.2z"/>
		<path class="st5" d="M221.6,70.5c-2.5,0-4.5-2-4.5-4.5c0-2.5,2-4.5,4.5-4.5c2.5,0,4.5,2,4.5,4.5C226.1,68.5,224.1,70.5,221.6,70.5
			z M221.6,61.8c-2.3,0-4.2,1.9-4.2,4.2c0,2.3,1.9,4.2,4.2,4.2c2.3,0,4.2-1.9,4.2-4.2C225.8,63.7,223.9,61.8,221.6,61.8z"/>
		<path class="st5" d="M221.6,69.5c-1.9,0-3.5-1.6-3.5-3.5s1.6-3.5,3.5-3.5c1.9,0,3.5,1.6,3.5,3.5S223.5,69.5,221.6,69.5z
			 M221.6,62.7c-1.8,0-3.3,1.5-3.3,3.3s1.5,3.3,3.3,3.3s3.3-1.5,3.3-3.3S223.4,62.7,221.6,62.7z"/>
		<path class="st5" d="M221.6,60.3c2.4,0,4.5,1.5,5.4,3.7h0.9l-0.3-2.4l-2.1-1.4l-9.1,0.2l0,0l0,0c0,0-1.5,0.9-2.7,1.8
			c-1.3,0.9-1.9,1-2.4,1.1c-0.5,0.1-6.5,0.2-7.5,0c-1-0.2-4.7-3.1-4.8-3.2l0,0h-9.5l-2.8,1.7l-1.7,0.2l-0.3,1.5l2.5,0
			c0.9-1.9,2.9-3.2,5.2-3.2c2.4,0,4.4,1.5,5.3,3.5c2.8,0,15.7,0,18.8,0C217.2,61.7,219.2,60.3,221.6,60.3z"/>
		<rect x="202.6" y="61.5" class="st5" width="8.3" height="0.3"/>
		<path class="st5" d="M192.2,64c-1.1,0-2,0.9-2,2c0,1.1,0.9,2,2,2c1.1,0,2-0.9,2-2C194.2,64.9,193.3,64,192.2,64z M192.2,67.1
			c-0.6,0-1.1-0.5-1.1-1.1s0.5-1.1,1.1-1.1c0.6,0,1.1,0.5,1.1,1.1S192.8,67.1,192.2,67.1z"/>
		<path class="st5" d="M221.6,64c-1.1,0-2,0.9-2,2c0,1.1,0.9,2,2,2c1.1,0,2-0.9,2-2C223.6,64.9,222.7,64,221.6,64z M221.6,67.1
			c-0.6,0-1.1-0.5-1.1-1.1s0.5-1.1,1.1-1.1c0.6,0,1.1,0.5,1.1,1.1S222.2,67.1,221.6,67.1z"/>
		<rect x="191.9" y="64.5" class="st5" width="29.7" height="0.3"/>
		<rect x="191.9" y="67.2" class="st5" width="29.7" height="0.3"/>
	</g>
	<rect x="79.7" y="60.7" class="st5" width="100.6" height="1.8"/>
	<rect x="79.7" y="62.9" class="st5" width="100.6" height="0.5"/>
	<path class="st5" d="M266.5,55.3h-5.3v-23h5.3V55.3z M261.4,55.1h4.7V32.6h-4.7V55.1z"/>
	<rect x="262.1" y="32.5" class="st5" width="0.3" height="22.7"/>
	<rect x="263.7" y="32.5" class="st5" width="0.3" height="22.7"/>
	<rect x="264.9" y="32.5" class="st5" width="0.3" height="22.7"/>
	<path class="st5" d="M22.9,64h-6.7v-2.1h6.7V64z M16.4,63.7h6.1v-1.5h-6.1V63.7z"/>
	<path class="st5" d="M49.8,27.8H34.5v-2.7h15.3V27.8z M34.6,27.6h15v-2.4h-15V27.6z"/>
	<rect x="34.6" y="26.3" class="st5" width="15" height="0.3"/>
	<path class="st5" d="M94.4,27.8H51.6v-2.7h42.8V27.8z M51.7,27.6h42.5v-2.4H51.7V27.6z"/>
	<rect x="51.8" y="26.3" class="st5" width="42.4" height="0.3"/>
	<path class="st5" d="M198.1,27.8h-15.3v-2.7h15.3V27.8z M183,27.6h15v-2.4h-15V27.6z"/>
	<rect x="182.9" y="26.3" class="st5" width="15" height="0.3"/>
	<path class="st5" d="M242.7,27.8h-42.8v-2.7h42.8V27.8z M200,27.6h42.5v-2.4H200V27.6z"/>
	<rect x="200.1" y="26.3" class="st5" width="42.4" height="0.3"/>
</g>
<g>
	<path class="st0" d="M1489.6,45.7v-8.8c0-0.3,0.3-0.6,0.6-0.6h8.6c0.3,0,0.6,0.3,0.6,0.6v8.8c0,0.3-0.3,0.6-0.6,0.6h-8.6
		C1489.9,46.3,1489.6,46,1489.6,45.7z M1490.2,36.6c-0.2,0-0.3,0.2-0.3,0.3v8.8c0,0.2,0.2,0.3,0.3,0.3h8.6c0.2,0,0.3-0.2,0.3-0.3
		v-8.8c0-0.2-0.2-0.3-0.3-0.3H1490.2z"/>
	<path class="st0" d="M1501.2,45.7v-8.8c0-0.3,0.3-0.6,0.6-0.6h8.6c0.3,0,0.6,0.3,0.6,0.6v8.8c0,0.3-0.3,0.6-0.6,0.6h-8.6
		C1501.5,46.3,1501.2,46,1501.2,45.7z M1501.8,36.6c-0.2,0-0.3,0.2-0.3,0.3v8.8c0,0.2,0.2,0.3,0.3,0.3h8.6c0.2,0,0.3-0.2,0.3-0.3
		v-8.8c0-0.2-0.2-0.3-0.3-0.3H1501.8z"/>
	<path class="st0" d="M1512.8,45.7v-8.8c0-0.3,0.3-0.6,0.6-0.6h8.6c0.3,0,0.6,0.3,0.6,0.6v8.8c0,0.3-0.3,0.6-0.6,0.6h-8.6
		C1513,46.3,1512.8,46,1512.8,45.7z M1513.4,36.6c-0.2,0-0.3,0.2-0.3,0.3v8.8c0,0.2,0.2,0.3,0.3,0.3h8.6c0.2,0,0.3-0.2,0.3-0.3v-8.8
		c0-0.2-0.2-0.3-0.3-0.3H1513.4z"/>
	<path class="st0" d="M1546.1,45.7v-8.8c0-0.3,0.3-0.6,0.6-0.6h8.6c0.3,0,0.6,0.3,0.6,0.6v8.8c0,0.3-0.3,0.6-0.6,0.6h-8.6
		C1546.4,46.3,1546.1,46,1546.1,45.7z M1546.7,36.6c-0.2,0-0.3,0.2-0.3,0.3v8.8c0,0.2,0.2,0.3,0.3,0.3h8.6c0.2,0,0.3-0.2,0.3-0.3
		v-8.8c0-0.2-0.2-0.3-0.3-0.3H1546.7z"/>
	<path class="st0" d="M1560.3,65.8c-4.2,0.2-7.6-1.6-10.2-5.3l0.2-0.2c2.6,3.6,5.9,5.4,10,5.2c1,0,9.3,0,12.4,0c1,0,1.8-0.4,2.1-1
		c0.7-1.1,0.1-2.8,0.1-2.8l-0.1-0.2l1.8-0.4l-0.1-1h-258V26.5h17.6v1.9h62.2v-1.9h85.2v1.9h62.7v-1.8l0.1,0c0.1,0,7.3,0.1,9.3,0
		c7-0.5,11.7,1,14.8,4.7c2.7,3.3,4.3,8.4,5.4,17.2l1.1,13.1l-1.8,0.4c0.2,0.5,0.5,1.9-0.2,2.9c-0.4,0.7-1.2,1-2.4,1.1
		c-1.6,0-4.7,0-7.3,0C1562.9,65.9,1560.8,65.9,1560.3,65.8z M1575.6,48.5c-1.9-15.1-5.5-22.6-19.9-21.6c-1.9,0.1-8.2,0-9.2,0v1.8
		h-63.3v-1.9h-84.6v1.9h-62.7v-1.9h-17.1V60h257.7L1575.6,48.5z"/>
	<path class="st0" d="M1557.2,56.8V37.6c0-0.9,0.7-1.6,1.5-1.6h4.6c0.8,0,1.5,0.7,1.5,1.6v19.2c0,0.9-0.7,1.6-1.5,1.6h-4.6
		C1557.8,58.4,1557.2,57.7,1557.2,56.8z M1558.6,36.3c-0.7,0-1.2,0.6-1.2,1.3v19.2c0,0.7,0.5,1.3,1.2,1.3h4.6c0.7,0,1.2-0.6,1.2-1.3
		V37.6c0-0.7-0.5-1.3-1.2-1.3H1558.6z"/>
	<path class="st0" d="M1558.2,46.5v-7.8c0-0.8,0.6-1.4,1.3-1.4h2.6c0.7,0,1.3,0.6,1.3,1.4v7.8c0,0.8-0.6,1.4-1.3,1.4h-2.6
		C1558.8,47.9,1558.2,47.2,1558.2,46.5z M1559.5,37.6c-0.6,0-1,0.5-1,1.1v7.8c0,0.6,0.5,1.1,1,1.1h2.6c0.6,0,1-0.5,1-1.1v-7.8
		c0-0.6-0.5-1.1-1-1.1H1559.5z"/>
	<path class="st0" d="M1554.2,56.1v-7.2c0-0.3,0.2-0.5,0.5-0.5c0.3,0,0.5,0.2,0.5,0.5v7.2c0,0.3-0.2,0.5-0.5,0.5
		C1554.4,56.6,1554.2,56.4,1554.2,56.1z M1554.3,48.9v7.2c0,0.2,0.2,0.3,0.3,0.3c0.2,0,0.3-0.2,0.3-0.3v-7.2c0-0.2-0.2-0.3-0.3-0.3
		C1554.5,48.6,1554.3,48.7,1554.3,48.9z"/>
	<path class="st0" d="M1525,56.9V35.1c0-0.8,0.7-1.5,1.5-1.5h17.6c0.8,0,1.5,0.7,1.5,1.5v21.7c0,0.8-0.7,1.5-1.5,1.5h-17.6
		C1525.7,58.4,1525,57.7,1525,56.9z M1526.5,33.9c-0.7,0-1.2,0.5-1.2,1.2v21.7c0,0.7,0.5,1.2,1.2,1.2h17.6c0.7,0,1.2-0.5,1.2-1.2
		V35.1c0-0.7-0.5-1.2-1.2-1.2H1526.5z"/>
	<rect x="1535.1" y="33.8" class="st0" width="0.3" height="24.5"/>
	<path class="st0" d="M1536.9,46.9v-9.4c0-0.6,0.5-1.2,1.2-1.2h3.2c0.6,0,1.2,0.5,1.2,1.2v9.4c0,0.6-0.5,1.2-1.2,1.2h-3.2
		C1537.4,48.1,1536.9,47.5,1536.9,46.9z M1538,36.7c-0.5,0-0.9,0.4-0.9,0.9v9.4c0,0.5,0.4,0.9,0.9,0.9h3.2c0.5,0,0.9-0.4,0.9-0.9
		v-9.4c0-0.5-0.4-0.9-0.9-0.9H1538z"/>
	<path class="st0" d="M1528.2,46.9v-9.4c0-0.6,0.5-1.2,1.2-1.2h3.2c0.6,0,1.2,0.5,1.2,1.2v9.4c0,0.6-0.5,1.2-1.2,1.2h-3.2
		C1528.7,48.1,1528.2,47.5,1528.2,46.9z M1529.4,36.7c-0.5,0-0.9,0.4-0.9,0.9v9.4c0,0.5,0.4,0.9,0.9,0.9h3.2c0.5,0,0.9-0.4,0.9-0.9
		v-9.4c0-0.5-0.4-0.9-0.9-0.9H1529.4z"/>
	<path class="st0" d="M1431.6,45.7v-8.8c0-0.3,0.3-0.6,0.6-0.6h8.6c0.3,0,0.6,0.3,0.6,0.6v8.8c0,0.3-0.3,0.6-0.6,0.6h-8.6
		C1431.9,46.3,1431.6,46,1431.6,45.7z M1432.2,36.6c-0.2,0-0.3,0.2-0.3,0.3v8.8c0,0.2,0.2,0.3,0.3,0.3h8.6c0.2,0,0.3-0.2,0.3-0.3
		v-8.8c0-0.2-0.2-0.3-0.3-0.3H1432.2z"/>
	<path class="st0" d="M1443.2,45.7v-8.8c0-0.3,0.3-0.6,0.6-0.6h8.6c0.3,0,0.6,0.3,0.6,0.6v8.8c0,0.3-0.3,0.6-0.6,0.6h-8.6
		C1443.5,46.3,1443.2,46,1443.2,45.7z M1443.8,36.6c-0.2,0-0.3,0.2-0.3,0.3v8.8c0,0.2,0.2,0.3,0.3,0.3h8.6c0.2,0,0.3-0.2,0.3-0.3
		v-8.8c0-0.2-0.2-0.3-0.3-0.3H1443.8z"/>
	<path class="st0" d="M1454.8,45.7v-8.8c0-0.3,0.3-0.6,0.6-0.6h8.6c0.3,0,0.6,0.3,0.6,0.6v8.8c0,0.3-0.3,0.6-0.6,0.6h-8.6
		C1455.1,46.3,1454.8,46,1454.8,45.7z M1455.4,36.6c-0.2,0-0.3,0.2-0.3,0.3v8.8c0,0.2,0.2,0.3,0.3,0.3h8.6c0.2,0,0.3-0.2,0.3-0.3
		v-8.8c0-0.2-0.2-0.3-0.3-0.3H1455.4z"/>
	<path class="st0" d="M1467,56.9V35.1c0-0.8,0.7-1.5,1.5-1.5h17.6c0.8,0,1.5,0.7,1.5,1.5v21.7c0,0.8-0.7,1.5-1.5,1.5h-17.6
		C1467.7,58.4,1467,57.7,1467,56.9z M1468.5,33.9c-0.7,0-1.2,0.5-1.2,1.2v21.7c0,0.7,0.5,1.2,1.2,1.2h17.6c0.7,0,1.2-0.5,1.2-1.2
		V35.1c0-0.7-0.5-1.2-1.2-1.2H1468.5z"/>
	<rect x="1477.1" y="33.8" class="st0" width="0.3" height="24.5"/>
	<path class="st0" d="M1478.9,46.9v-9.4c0-0.6,0.5-1.2,1.2-1.2h3.2c0.6,0,1.2,0.5,1.2,1.2v9.4c0,0.6-0.5,1.2-1.2,1.2h-3.2
		C1479.4,48.1,1478.9,47.5,1478.9,46.9z M1480,36.7c-0.5,0-0.9,0.4-0.9,0.9v9.4c0,0.5,0.4,0.9,0.9,0.9h3.2c0.5,0,0.9-0.4,0.9-0.9
		v-9.4c0-0.5-0.4-0.9-0.9-0.9H1480z"/>
	<path class="st0" d="M1470.2,46.9v-9.4c0-0.6,0.5-1.2,1.2-1.2h3.2c0.6,0,1.2,0.5,1.2,1.2v9.4c0,0.6-0.5,1.2-1.2,1.2h-3.2
		C1470.7,48.1,1470.2,47.5,1470.2,46.9z M1471.4,36.7c-0.5,0-0.9,0.4-0.9,0.9v9.4c0,0.5,0.4,0.9,0.9,0.9h3.2c0.5,0,0.9-0.4,0.9-0.9
		v-9.4c0-0.5-0.4-0.9-0.9-0.9H1471.4z"/>
	<path class="st0" d="M1373.3,45.7v-8.8c0-0.3,0.3-0.6,0.6-0.6h8.6c0.3,0,0.6,0.3,0.6,0.6v8.8c0,0.3-0.3,0.6-0.6,0.6h-8.6
		C1373.6,46.3,1373.3,46,1373.3,45.7z M1373.9,36.6c-0.2,0-0.3,0.2-0.3,0.3v8.8c0,0.2,0.2,0.3,0.3,0.3h8.6c0.2,0,0.3-0.2,0.3-0.3
		v-8.8c0-0.2-0.2-0.3-0.3-0.3H1373.9z"/>
	<path class="st0" d="M1384.9,45.7v-8.8c0-0.3,0.3-0.6,0.6-0.6h8.6c0.3,0,0.6,0.3,0.6,0.6v8.8c0,0.3-0.3,0.6-0.6,0.6h-8.6
		C1385.2,46.3,1384.9,46,1384.9,45.7z M1385.5,36.6c-0.2,0-0.3,0.2-0.3,0.3v8.8c0,0.2,0.2,0.3,0.3,0.3h8.6c0.2,0,0.3-0.2,0.3-0.3
		v-8.8c0-0.2-0.2-0.3-0.3-0.3H1385.5z"/>
	<path class="st0" d="M1396.5,45.7v-8.8c0-0.3,0.3-0.6,0.6-0.6h8.6c0.3,0,0.6,0.3,0.6,0.6v8.8c0,0.3-0.3,0.6-0.6,0.6h-8.6
		C1396.8,46.3,1396.5,46,1396.5,45.7z M1397.1,36.6c-0.2,0-0.3,0.2-0.3,0.3v8.8c0,0.2,0.2,0.3,0.3,0.3h8.6c0.2,0,0.3-0.2,0.3-0.3
		v-8.8c0-0.2-0.2-0.3-0.3-0.3H1397.1z"/>
	<path class="st0" d="M1408.7,56.9V35.1c0-0.8,0.7-1.5,1.5-1.5h17.6c0.8,0,1.5,0.7,1.5,1.5v21.7c0,0.8-0.7,1.5-1.5,1.5h-17.6
		C1409.4,58.4,1408.7,57.7,1408.7,56.9z M1410.2,33.9c-0.7,0-1.2,0.5-1.2,1.2v21.7c0,0.7,0.5,1.2,1.2,1.2h17.6
		c0.7,0,1.2-0.5,1.2-1.2V35.1c0-0.7-0.5-1.2-1.2-1.2H1410.2z"/>
	<rect x="1418.9" y="33.8" class="st0" width="0.3" height="24.5"/>
	<path class="st0" d="M1420.6,46.9v-9.4c0-0.6,0.5-1.2,1.2-1.2h3.2c0.6,0,1.2,0.5,1.2,1.2v9.4c0,0.6-0.5,1.2-1.2,1.2h-3.2
		C1421.1,48.1,1420.6,47.5,1420.6,46.9z M1421.8,36.7c-0.5,0-0.9,0.4-0.9,0.9v9.4c0,0.5,0.4,0.9,0.9,0.9h3.2c0.5,0,0.9-0.4,0.9-0.9
		v-9.4c0-0.5-0.4-0.9-0.9-0.9H1421.8z"/>
	<path class="st0" d="M1411.9,46.9v-9.4c0-0.6,0.5-1.2,1.2-1.2h3.2c0.6,0,1.2,0.5,1.2,1.2v9.4c0,0.6-0.5,1.2-1.2,1.2h-3.2
		C1412.4,48.1,1411.9,47.5,1411.9,46.9z M1413.1,36.7c-0.5,0-0.9,0.4-0.9,0.9v9.4c0,0.5,0.4,0.9,0.9,0.9h3.2c0.5,0,0.9-0.4,0.9-0.9
		v-9.4c0-0.5-0.4-0.9-0.9-0.9H1413.1z"/>
	<path class="st0" d="M1326.2,45.7v-8.8c0-0.3,0.3-0.6,0.6-0.6h8.6c0.3,0,0.6,0.3,0.6,0.6v8.8c0,0.3-0.3,0.6-0.6,0.6h-8.6
		C1326.5,46.3,1326.2,46,1326.2,45.7z M1326.8,36.6c-0.2,0-0.3,0.2-0.3,0.3v8.8c0,0.2,0.2,0.3,0.3,0.3h8.6c0.2,0,0.3-0.2,0.3-0.3
		v-8.8c0-0.2-0.2-0.3-0.3-0.3H1326.8z"/>
	<path class="st0" d="M1337.8,45.7v-8.8c0-0.3,0.3-0.6,0.6-0.6h8.6c0.3,0,0.6,0.3,0.6,0.6v8.8c0,0.3-0.3,0.6-0.6,0.6h-8.6
		C1338,46.3,1337.8,46,1337.8,45.7z M1338.4,36.6c-0.2,0-0.3,0.2-0.3,0.3v8.8c0,0.2,0.2,0.3,0.3,0.3h8.6c0.2,0,0.3-0.2,0.3-0.3v-8.8
		c0-0.2-0.2-0.3-0.3-0.3H1338.4z"/>
	<path class="st0" d="M1350,56.9V35.1c0-0.8,0.7-1.5,1.5-1.5h17.6c0.8,0,1.5,0.7,1.5,1.5v21.7c0,0.8-0.7,1.5-1.5,1.5h-17.6
		C1350.7,58.4,1350,57.7,1350,56.9z M1351.5,33.9c-0.7,0-1.2,0.5-1.2,1.2v21.7c0,0.7,0.5,1.2,1.2,1.2h17.6c0.7,0,1.2-0.5,1.2-1.2
		V35.1c0-0.7-0.5-1.2-1.2-1.2H1351.5z"/>
	<rect x="1360.1" y="33.8" class="st0" width="0.3" height="24.5"/>
	<path class="st0" d="M1361.9,46.9v-9.4c0-0.6,0.5-1.2,1.2-1.2h3.2c0.6,0,1.2,0.5,1.2,1.2v9.4c0,0.6-0.5,1.2-1.2,1.2h-3.2
		C1362.4,48.1,1361.9,47.5,1361.9,46.9z M1363,36.7c-0.5,0-0.9,0.4-0.9,0.9v9.4c0,0.5,0.4,0.9,0.9,0.9h3.2c0.5,0,0.9-0.4,0.9-0.9
		v-9.4c0-0.5-0.4-0.9-0.9-0.9H1363z"/>
	<path class="st0" d="M1353.2,46.9v-9.4c0-0.6,0.5-1.2,1.2-1.2h3.2c0.6,0,1.2,0.5,1.2,1.2v9.4c0,0.6-0.5,1.2-1.2,1.2h-3.2
		C1353.7,48.1,1353.2,47.5,1353.2,46.9z M1354.4,36.7c-0.5,0-0.9,0.4-0.9,0.9v9.4c0,0.5,0.4,0.9,0.9,0.9h3.2c0.5,0,0.9-0.4,0.9-0.9
		v-9.4c0-0.5-0.4-0.9-0.9-0.9H1354.4z"/>
	<path class="st0" d="M1573.3,53.8c-1.1-0.9-1.8-2.6-1.7-3.3l0-0.1l0.1,0c0,0,0,0,0,0c1.7,0,3.7,1.3,4.1,3.8l0,0.1l-0.1,0
		c-0.3,0.1-0.5,0.1-0.8,0.1C1574.3,54.4,1573.8,54.2,1573.3,53.8z M1571.8,50.6c0,0.7,0.6,2.2,1.6,2.9c0.6,0.5,1.3,0.7,2,0.5
		C1575.1,51.9,1573.3,50.7,1571.8,50.6z"/>
	<path class="st0" d="M1575.8,51.5l0.3-0.1c-0.1-0.3-0.3-1.2-0.5-2.5c-1-5.9-3.2-19.6-12.4-20.2c-4.2-0.1-7.2,0-7.2,0l0,0.3
		c0,0,3-0.1,7.2,0c8.9,0.6,11.2,14.2,12.1,20C1575.5,50.3,1575.7,51.2,1575.8,51.5z"/>
	<path class="st0" d="M1576,53.8l0.3-0.1c0-0.1-1-5.3-3.6-10.6c-1.5-3.1-3.3-5.7-5.2-7.6c-2.5-2.4-5.2-3.7-8.2-4
		c-45,0-107.9,0-152.8,0.1c-24.6,0-46.5,0-62.3,0l-25.2,0c0,0-0.1,0-0.1,0v0v0c-0.1,0-0.1,0-0.1,0.1l0,0.1h0.1
		c0.5,0,155.6-0.1,240.5-0.1c6.6,0.6,10.9,6.5,13.2,11.4C1575,48.6,1576,53.8,1576,53.8z"/>
	<rect x="1318.7" y="30.2" class="st0" width="237.2" height="0.3"/>
	<g>
		<path class="st0" d="M1523.1,64.3c-1.5,0-2.8-0.9-3.4-2.3h6.8C1526,63.4,1524.7,64.3,1523.1,64.3z"/>
		<path class="st0" d="M1519.4,60.3h7.4c0,0.3,0,0.5-0.1,0.7h-7.3C1519.5,60.8,1519.4,60.6,1519.4,60.3z"/>
		
			<rect x="1521.2" y="63.7" transform="matrix(-1 -4.465906e-11 4.465906e-11 -1 3046.1211 131.8668)" class="st0" width="3.7" height="4.5"/>
		<path class="st0" d="M1532.4,66c0-3,2.4-5.4,5.4-5.4s5.4,2.4,5.4,5.4c0,3-2.4,5.4-5.4,5.4S1532.4,69,1532.4,66z M1533,66
			c0,2.6,2.2,4.8,4.8,4.8s4.8-2.2,4.8-4.8s-2.2-4.8-4.8-4.8S1533,63.4,1533,66z"/>
		<path class="st0" d="M1533.3,66c0-2.5,2-4.5,4.5-4.5s4.5,2,4.5,4.5c0,2.5-2,4.5-4.5,4.5S1533.3,68.5,1533.3,66z M1533.6,66
			c0,2.3,1.9,4.2,4.2,4.2s4.2-1.9,4.2-4.2c0-2.3-1.9-4.2-4.2-4.2S1533.6,63.7,1533.6,66z"/>
		<path class="st0" d="M1534.3,66c0-1.9,1.6-3.5,3.5-3.5s3.5,1.6,3.5,3.5s-1.6,3.5-3.5,3.5S1534.3,67.9,1534.3,66z M1534.4,66
			c0,1.8,1.5,3.3,3.3,3.3c1.8,0,3.3-1.5,3.3-3.3s-1.5-3.3-3.3-3.3C1535.9,62.7,1534.4,64.2,1534.4,66z"/>
		<path class="st0" d="M1503,66c0-3,2.4-5.4,5.4-5.4s5.4,2.4,5.4,5.4c0,3-2.4,5.4-5.4,5.4S1503,69,1503,66z M1503.5,66
			c0,2.6,2.2,4.8,4.8,4.8s4.8-2.2,4.8-4.8s-2.2-4.8-4.8-4.8S1503.5,63.4,1503.5,66z"/>
		<path class="st0" d="M1503.9,66c0-2.5,2-4.5,4.5-4.5s4.5,2,4.5,4.5c0,2.5-2,4.5-4.5,4.5S1503.9,68.5,1503.9,66z M1504.2,66
			c0,2.3,1.9,4.2,4.2,4.2s4.2-1.9,4.2-4.2c0-2.3-1.9-4.2-4.2-4.2S1504.2,63.7,1504.2,66z"/>
		<path class="st0" d="M1504.9,66c0-1.9,1.6-3.5,3.5-3.5s3.5,1.6,3.5,3.5s-1.6,3.5-3.5,3.5S1504.9,67.9,1504.9,66z M1505,66
			c0,1.8,1.5,3.3,3.3,3.3s3.3-1.5,3.3-3.3s-1.5-3.3-3.3-3.3S1505,64.2,1505,66z"/>
		<path class="st0" d="M1508.3,60.3c-2.4,0-4.5,1.5-5.4,3.7h-0.9l0.3-2.4l2.1-1.4l9.1,0.1l0,0l0,0c0,0,1.5,1.1,2.7,2
			c1.3,0.9,1.9,1,2.4,1.1c0.5,0.1,6.5,0.2,7.5,0c1-0.2,4.7-3.1,4.8-3.2l0,0h9.5l2.8,1.7l1.7,0.2l0.3,1.5l-2.5,0
			c-0.9-1.9-2.9-3.2-5.2-3.2c-2.4,0-4.4,1.5-5.3,3.5c-2.8,0-15.7,0-18.8,0C1512.8,61.7,1510.7,60.3,1508.3,60.3z"/>
		
			<rect x="1519.1" y="61.5" transform="matrix(-1 -4.399870e-11 4.399870e-11 -1 3046.4065 123.2156)" class="st0" width="8.3" height="0.3"/>
		<path class="st0" d="M1535.7,66c0,1.1,0.9,2,2,2c1.1,0,2-0.9,2-2c0-1.1-0.9-2-2-2C1536.6,64,1535.7,64.9,1535.7,66z M1536.7,66
			c0-0.6,0.5-1.1,1.1-1.1c0.6,0,1.1,0.5,1.1,1.1s-0.5,1.1-1.1,1.1C1537.2,67.1,1536.7,66.6,1536.7,66z"/>
		<path class="st0" d="M1506.3,66c0,1.1,0.9,2,2,2c1.1,0,2-0.9,2-2c0-1.1-0.9-2-2-2C1507.2,64,1506.3,64.9,1506.3,66z M1507.3,66
			c0-0.6,0.5-1.1,1.1-1.1c0.6,0,1.1,0.5,1.1,1.1s-0.5,1.1-1.1,1.1C1507.8,67.1,1507.3,66.6,1507.3,66z"/>
		<rect x="1508.3" y="64.5" class="st0" width="29.7" height="0.3"/>
		<rect x="1508.3" y="67.2" class="st0" width="29.7" height="0.3"/>
	</g>
	<g>
		<path class="st0" d="M1373.2,64.3c-1.5,0-2.8-0.9-3.4-2.3h6.8C1376.1,63.4,1374.7,64.3,1373.2,64.3z"/>
		<path class="st0" d="M1369.5,60.3h7.4c0,0.3,0,0.5-0.1,0.7h-7.3C1369.5,60.8,1369.5,60.6,1369.5,60.3z"/>
		
			<rect x="1371.3" y="63.7" transform="matrix(-1 -4.465906e-11 4.465906e-11 -1 2746.2292 131.8668)" class="st0" width="3.7" height="4.5"/>
		<path class="st0" d="M1382.4,66c0-3,2.4-5.4,5.4-5.4c3,0,5.4,2.4,5.4,5.4c0,3-2.4,5.4-5.4,5.4C1384.8,71.4,1382.4,69,1382.4,66z
			 M1383,66c0,2.6,2.2,4.8,4.8,4.8c2.6,0,4.8-2.2,4.8-4.8s-2.2-4.8-4.8-4.8C1385.2,61.2,1383,63.4,1383,66z"/>
		<path class="st0" d="M1383.4,66c0-2.5,2-4.5,4.5-4.5c2.5,0,4.5,2,4.5,4.5c0,2.5-2,4.5-4.5,4.5C1385.4,70.5,1383.4,68.5,1383.4,66z
			 M1383.6,66c0,2.3,1.9,4.2,4.2,4.2s4.2-1.9,4.2-4.2c0-2.3-1.9-4.2-4.2-4.2S1383.6,63.7,1383.6,66z"/>
		<path class="st0" d="M1384.3,66c0-1.9,1.6-3.5,3.5-3.5c1.9,0,3.5,1.6,3.5,3.5s-1.6,3.5-3.5,3.5C1385.9,69.5,1384.3,67.9,1384.3,66
			z M1384.5,66c0,1.8,1.5,3.3,3.3,3.3c1.8,0,3.3-1.5,3.3-3.3s-1.5-3.3-3.3-3.3C1386,62.7,1384.5,64.2,1384.5,66z"/>
		<path class="st0" d="M1353,66c0-3,2.4-5.4,5.4-5.4s5.4,2.4,5.4,5.4c0,3-2.4,5.4-5.4,5.4S1353,69,1353,66z M1353.6,66
			c0,2.6,2.2,4.8,4.8,4.8s4.8-2.2,4.8-4.8s-2.2-4.8-4.8-4.8S1353.6,63.4,1353.6,66z"/>
		<path class="st0" d="M1353.9,66c0-2.5,2-4.5,4.5-4.5s4.5,2,4.5,4.5c0,2.5-2,4.5-4.5,4.5S1353.9,68.5,1353.9,66z M1354.2,66
			c0,2.3,1.9,4.2,4.2,4.2s4.2-1.9,4.2-4.2c0-2.3-1.9-4.2-4.2-4.2S1354.2,63.7,1354.2,66z"/>
		<path class="st0" d="M1354.9,66c0-1.9,1.6-3.5,3.5-3.5s3.5,1.6,3.5,3.5s-1.6,3.5-3.5,3.5S1354.9,67.9,1354.9,66z M1355.1,66
			c0,1.8,1.5,3.3,3.3,3.3s3.3-1.5,3.3-3.3s-1.5-3.3-3.3-3.3S1355.1,64.2,1355.1,66z"/>
		<path class="st0" d="M1358.4,60.3c-2.4,0-4.5,1.5-5.4,3.7h-0.9l0.3-2.4l2.1-1.4l9.1,0.2l0,0l0,0c0,0,1.5,0.9,2.7,1.8
			c1.3,0.9,1.9,1,2.4,1.1c0.5,0.1,6.5,0.2,7.5,0c1-0.2,4.7-3.1,4.8-3.2l0,0h9.5l2.8,1.7l1.7,0.2l0.3,1.5l-2.5,0
			c-0.9-1.9-2.9-3.2-5.2-3.2c-2.4,0-4.4,1.5-5.3,3.5c-2.8,0-15.7,0-18.8,0C1362.8,61.7,1360.8,60.3,1358.4,60.3z"/>
		
			<rect x="1369.1" y="61.5" transform="matrix(-1 -4.443880e-11 4.443880e-11 -1 2746.5149 123.2156)" class="st0" width="8.3" height="0.3"/>
		<path class="st0" d="M1385.8,66c0,1.1,0.9,2,2,2c1.1,0,2-0.9,2-2c0-1.1-0.9-2-2-2C1386.7,64,1385.8,64.9,1385.8,66z M1386.7,66
			c0-0.6,0.5-1.1,1.1-1.1c0.6,0,1.1,0.5,1.1,1.1s-0.5,1.1-1.1,1.1C1387.2,67.1,1386.7,66.6,1386.7,66z"/>
		<path class="st0" d="M1356.4,66c0,1.1,0.9,2,2,2s2-0.9,2-2c0-1.1-0.9-2-2-2S1356.4,64.9,1356.4,66z M1357.3,66
			c0-0.6,0.5-1.1,1.1-1.1s1.1,0.5,1.1,1.1s-0.5,1.1-1.1,1.1S1357.3,66.6,1357.3,66z"/>
		<rect x="1358.4" y="64.5" class="st0" width="29.7" height="0.3"/>
		<rect x="1358.4" y="67.2" class="st0" width="29.7" height="0.3"/>
	</g>
	
		<rect x="1399.7" y="60.7" transform="matrix(-1 -4.488333e-11 4.488333e-11 -1 2900.0408 123.2405)" class="st0" width="100.6" height="1.8"/>
	
		<rect x="1399.7" y="62.9" transform="matrix(-1 -4.484736e-11 4.484736e-11 -1 2900.0408 126.2838)" class="st0" width="100.6" height="0.5"/>
	<path class="st0" d="M1557.1,61.9h6.7V64h-6.7V61.9z M1563.6,62.2h-6.1v1.5h6.1V62.2z"/>
	<path class="st0" d="M1530.2,25.1h15.3v2.7h-15.3V25.1z M1545.4,25.3h-15v2.4h15V25.3z"/>
	<rect x="1530.3" y="26.3" class="st0" width="15" height="0.3"/>
	<path class="st0" d="M1485.6,25.1h42.8v2.7h-42.8V25.1z M1528.3,25.3h-42.5v2.4h42.5V25.3z"/>
	<rect x="1485.8" y="26.3" class="st0" width="42.4" height="0.3"/>
	<path class="st0" d="M1381.9,25.1h15.3v2.7h-15.3V25.1z M1397,25.3h-15v2.4h15V25.3z"/>
	<rect x="1382" y="26.3" class="st0" width="15" height="0.3"/>
	<path class="st0" d="M1337.3,25.1h42.8v2.7h-42.8V25.1z M1380,25.3h-42.5v2.4h42.5V25.3z"/>
	<rect x="1337.4" y="26.3" class="st0" width="42.4" height="0.3"/>
</g>
<g>
	<polygon class="st3" points="276.9,26.7 269.9,18.5 288.1,8.6 293,8.6 293,9.2 288.2,9.2 270.8,18.7 277.1,26.1 277.5,26.7 	"/>
	<polygon class="st3" points="291.8,26.6 284.7,26.6 272.3,17.5 272.5,17.2 273.2,17.2 284.9,25.7 291.8,25.7 	"/>
	<rect x="286.2" y="24.3" class="st3" width="4.9" height="1.3"/>
</g>
<g>
	<path class="st3" d="M352.9,46.3h-8.6c-0.3,0-0.6-0.3-0.6-0.6v-8.8c0-0.3,0.3-0.6,0.6-0.6h8.6c0.3,0,0.6,0.3,0.6,0.6v8.8
		C353.5,46,353.2,46.3,352.9,46.3z M344.3,36.6c-0.2,0-0.3,0.2-0.3,0.3v8.8c0,0.2,0.2,0.3,0.3,0.3h8.6c0.2,0,0.3-0.2,0.3-0.3v-8.8
		c0-0.2-0.2-0.3-0.3-0.3H344.3z"/>
	<path class="st3" d="M341.3,46.3h-8.6c-0.3,0-0.6-0.3-0.6-0.6v-8.8c0-0.3,0.3-0.6,0.6-0.6h8.6c0.3,0,0.6,0.3,0.6,0.6v8.8
		C341.9,46,341.6,46.3,341.3,46.3z M332.7,36.6c-0.2,0-0.3,0.2-0.3,0.3v8.8c0,0.2,0.2,0.3,0.3,0.3h8.6c0.2,0,0.3-0.2,0.3-0.3v-8.8
		c0-0.2-0.2-0.3-0.3-0.3H332.7z"/>
	<path class="st3" d="M329.7,46.3h-8.6c-0.3,0-0.6-0.3-0.6-0.6v-8.8c0-0.3,0.3-0.6,0.6-0.6h8.6c0.3,0,0.6,0.3,0.6,0.6v8.8
		C330.3,46,330,46.3,329.7,46.3z M321.1,36.6c-0.2,0-0.3,0.2-0.3,0.3v8.8c0,0.2,0.2,0.3,0.3,0.3h8.6c0.2,0,0.3-0.2,0.3-0.3v-8.8
		c0-0.2-0.2-0.3-0.3-0.3H321.1z"/>
	<path class="st3" d="M316.6,58.4H299c-0.8,0-1.5-0.7-1.5-1.5V35.1c0-0.8,0.7-1.5,1.5-1.5h17.6c0.8,0,1.5,0.7,1.5,1.5v21.7
		C318.1,57.7,317.4,58.4,316.6,58.4z M299,33.9c-0.7,0-1.2,0.5-1.2,1.2v21.7c0,0.7,0.5,1.2,1.2,1.2h17.6c0.7,0,1.2-0.5,1.2-1.2V35.1
		c0-0.7-0.5-1.2-1.2-1.2H299z"/>
	<rect x="307.7" y="33.8" class="st3" width="0.3" height="24.5"/>
	<path class="st3" d="M305,48.1h-3.2c-0.6,0-1.2-0.5-1.2-1.2v-9.4c0-0.6,0.5-1.2,1.2-1.2h3.2c0.6,0,1.2,0.5,1.2,1.2v9.4
		C306.2,47.5,305.7,48.1,305,48.1z M301.8,36.7c-0.5,0-0.9,0.4-0.9,0.9v9.4c0,0.5,0.4,0.9,0.9,0.9h3.2c0.5,0,0.9-0.4,0.9-0.9v-9.4
		c0-0.5-0.4-0.9-0.9-0.9H301.8z"/>
	<path class="st3" d="M313.7,48.1h-3.2c-0.6,0-1.2-0.5-1.2-1.2v-9.4c0-0.6,0.5-1.2,1.2-1.2h3.2c0.6,0,1.2,0.5,1.2,1.2v9.4
		C314.9,47.5,314.4,48.1,313.7,48.1z M310.5,36.7c-0.5,0-0.9,0.4-0.9,0.9v9.4c0,0.5,0.4,0.9,0.9,0.9h3.2c0.5,0,0.9-0.4,0.9-0.9v-9.4
		c0-0.5-0.4-0.9-0.9-0.9H310.5z"/>
	<path class="st3" d="M410.9,46.3h-8.6c-0.3,0-0.6-0.3-0.6-0.6v-8.8c0-0.3,0.3-0.6,0.6-0.6h8.6c0.3,0,0.6,0.3,0.6,0.6v8.8
		C411.5,46,411.2,46.3,410.9,46.3z M402.3,36.6c-0.2,0-0.3,0.2-0.3,0.3v8.8c0,0.2,0.2,0.3,0.3,0.3h8.6c0.2,0,0.3-0.2,0.3-0.3v-8.8
		c0-0.2-0.2-0.3-0.3-0.3H402.3z"/>
	<path class="st3" d="M399.3,46.3h-8.6c-0.3,0-0.6-0.3-0.6-0.6v-8.8c0-0.3,0.3-0.6,0.6-0.6h8.6c0.3,0,0.6,0.3,0.6,0.6v8.8
		C399.9,46,399.6,46.3,399.3,46.3z M390.7,36.6c-0.2,0-0.3,0.2-0.3,0.3v8.8c0,0.2,0.2,0.3,0.3,0.3h8.6c0.2,0,0.3-0.2,0.3-0.3v-8.8
		c0-0.2-0.2-0.3-0.3-0.3H390.7z"/>
	<path class="st3" d="M387.7,46.3h-8.6c-0.3,0-0.6-0.3-0.6-0.6v-8.8c0-0.3,0.3-0.6,0.6-0.6h8.6c0.3,0,0.6,0.3,0.6,0.6v8.8
		C388.3,46,388,46.3,387.7,46.3z M379.1,36.6c-0.2,0-0.3,0.2-0.3,0.3v8.8c0,0.2,0.2,0.3,0.3,0.3h8.6c0.2,0,0.3-0.2,0.3-0.3v-8.8
		c0-0.2-0.2-0.3-0.3-0.3H379.1z"/>
	<path class="st3" d="M374.6,58.4H357c-0.8,0-1.5-0.7-1.5-1.5V35.1c0-0.8,0.7-1.5,1.5-1.5h17.6c0.8,0,1.5,0.7,1.5,1.5v21.7
		C376.1,57.7,375.4,58.4,374.6,58.4z M357,33.9c-0.7,0-1.2,0.5-1.2,1.2v21.7c0,0.7,0.5,1.2,1.2,1.2h17.6c0.7,0,1.2-0.5,1.2-1.2V35.1
		c0-0.7-0.5-1.2-1.2-1.2H357z"/>
	<rect x="365.7" y="33.8" class="st3" width="0.3" height="24.5"/>
	<path class="st3" d="M363,48.1h-3.2c-0.6,0-1.2-0.5-1.2-1.2v-9.4c0-0.6,0.5-1.2,1.2-1.2h3.2c0.6,0,1.2,0.5,1.2,1.2v9.4
		C364.2,47.5,363.7,48.1,363,48.1z M359.8,36.7c-0.5,0-0.9,0.4-0.9,0.9v9.4c0,0.5,0.4,0.9,0.9,0.9h3.2c0.5,0,0.9-0.4,0.9-0.9v-9.4
		c0-0.5-0.4-0.9-0.9-0.9H359.8z"/>
	<path class="st3" d="M371.7,48.1h-3.2c-0.6,0-1.2-0.5-1.2-1.2v-9.4c0-0.6,0.5-1.2,1.2-1.2h3.2c0.6,0,1.2,0.5,1.2,1.2v9.4
		C372.9,47.5,372.4,48.1,371.7,48.1z M368.5,36.7c-0.5,0-0.9,0.4-0.9,0.9v9.4c0,0.5,0.4,0.9,0.9,0.9h3.2c0.5,0,0.9-0.4,0.9-0.9v-9.4
		c0-0.5-0.4-0.9-0.9-0.9H368.5z"/>
	<path class="st3" d="M469.1,46.3h-8.6c-0.3,0-0.6-0.3-0.6-0.6v-8.8c0-0.3,0.3-0.6,0.6-0.6h8.6c0.3,0,0.6,0.3,0.6,0.6v8.8
		C469.8,46,469.5,46.3,469.1,46.3z M460.6,36.6c-0.2,0-0.3,0.2-0.3,0.3v8.8c0,0.2,0.2,0.3,0.3,0.3h8.6c0.2,0,0.3-0.2,0.3-0.3v-8.8
		c0-0.2-0.2-0.3-0.3-0.3H460.6z"/>
	<path class="st3" d="M457.6,46.3H449c-0.3,0-0.6-0.3-0.6-0.6v-8.8c0-0.3,0.3-0.6,0.6-0.6h8.6c0.3,0,0.6,0.3,0.6,0.6v8.8
		C458.2,46,457.9,46.3,457.6,46.3z M449,36.6c-0.2,0-0.3,0.2-0.3,0.3v8.8c0,0.2,0.2,0.3,0.3,0.3h8.6c0.2,0,0.3-0.2,0.3-0.3v-8.8
		c0-0.2-0.2-0.3-0.3-0.3H449z"/>
	<path class="st3" d="M446,46.3h-8.6c-0.3,0-0.6-0.3-0.6-0.6v-8.8c0-0.3,0.3-0.6,0.6-0.6h8.6c0.3,0,0.6,0.3,0.6,0.6v8.8
		C446.6,46,446.3,46.3,446,46.3z M437.4,36.6c-0.2,0-0.3,0.2-0.3,0.3v8.8c0,0.2,0.2,0.3,0.3,0.3h8.6c0.2,0,0.3-0.2,0.3-0.3v-8.8
		c0-0.2-0.2-0.3-0.3-0.3H437.4z"/>
	<path class="st3" d="M432.9,58.4h-17.6c-0.8,0-1.5-0.7-1.5-1.5V35.1c0-0.8,0.7-1.5,1.5-1.5h17.6c0.8,0,1.5,0.7,1.5,1.5v21.7
		C434.4,57.7,433.7,58.4,432.9,58.4z M415.3,33.9c-0.7,0-1.2,0.5-1.2,1.2v21.7c0,0.7,0.5,1.2,1.2,1.2h17.6c0.7,0,1.2-0.5,1.2-1.2
		V35.1c0-0.7-0.5-1.2-1.2-1.2H415.3z"/>
	<rect x="423.9" y="33.8" class="st3" width="0.3" height="24.5"/>
	<path class="st3" d="M421.3,48.1h-3.2c-0.6,0-1.2-0.5-1.2-1.2v-9.4c0-0.6,0.5-1.2,1.2-1.2h3.2c0.6,0,1.2,0.5,1.2,1.2v9.4
		C422.5,47.5,422,48.1,421.3,48.1z M418.1,36.7c-0.5,0-0.9,0.4-0.9,0.9v9.4c0,0.5,0.4,0.9,0.9,0.9h3.2c0.5,0,0.9-0.4,0.9-0.9v-9.4
		c0-0.5-0.4-0.9-0.9-0.9H418.1z"/>
	<path class="st3" d="M430,48.1h-3.2c-0.6,0-1.2-0.5-1.2-1.2v-9.4c0-0.6,0.5-1.2,1.2-1.2h3.2c0.6,0,1.2,0.5,1.2,1.2v9.4
		C431.2,47.5,430.6,48.1,430,48.1z M426.8,36.7c-0.5,0-0.9,0.4-0.9,0.9v9.4c0,0.5,0.4,0.9,0.9,0.9h3.2c0.5,0,0.9-0.4,0.9-0.9v-9.4
		c0-0.5-0.4-0.9-0.9-0.9H426.8z"/>
	<path class="st3" d="M294.1,46.3h-8.6c-0.3,0-0.6-0.3-0.6-0.6v-8.8c0-0.3,0.3-0.6,0.6-0.6h8.6c0.3,0,0.6,0.3,0.6,0.6v8.8
		C294.8,46,294.5,46.3,294.1,46.3z M285.6,36.6c-0.2,0-0.3,0.2-0.3,0.3v8.8c0,0.2,0.2,0.3,0.3,0.3h8.6c0.2,0,0.3-0.2,0.3-0.3v-8.8
		c0-0.2-0.2-0.3-0.3-0.3H285.6z"/>
	<path class="st3" d="M282.5,46.3H274c-0.3,0-0.6-0.3-0.6-0.6v-8.8c0-0.3,0.3-0.6,0.6-0.6h8.6c0.3,0,0.6,0.3,0.6,0.6v8.8
		C283.2,46,282.9,46.3,282.5,46.3z M274,36.6c-0.2,0-0.3,0.2-0.3,0.3v8.8c0,0.2,0.2,0.3,0.3,0.3h8.6c0.2,0,0.3-0.2,0.3-0.3v-8.8
		c0-0.2-0.2-0.3-0.3-0.3H274z"/>
	<path class="st3" d="M516.4,46.3h-8.6c-0.3,0-0.6-0.3-0.6-0.6v-8.8c0-0.3,0.3-0.6,0.6-0.6h8.6c0.3,0,0.6,0.3,0.6,0.6v8.8
		C517,46,516.8,46.3,516.4,46.3z M507.8,36.6c-0.2,0-0.3,0.2-0.3,0.3v8.8c0,0.2,0.2,0.3,0.3,0.3h8.6c0.2,0,0.3-0.2,0.3-0.3v-8.8
		c0-0.2-0.2-0.3-0.3-0.3H507.8z"/>
	<path class="st3" d="M504.8,46.3h-8.6c-0.3,0-0.6-0.3-0.6-0.6v-8.8c0-0.3,0.3-0.6,0.6-0.6h8.6c0.3,0,0.6,0.3,0.6,0.6v8.8
		C505.5,46,505.2,46.3,504.8,46.3z M496.3,36.6c-0.2,0-0.3,0.2-0.3,0.3v8.8c0,0.2,0.2,0.3,0.3,0.3h8.6c0.2,0,0.3-0.2,0.3-0.3v-8.8
		c0-0.2-0.2-0.3-0.3-0.3H496.3z"/>
	<path class="st3" d="M491.6,58.4H474c-0.8,0-1.5-0.7-1.5-1.5V35.1c0-0.8,0.7-1.5,1.5-1.5h17.6c0.8,0,1.5,0.7,1.5,1.5v21.7
		C493.1,57.7,492.4,58.4,491.6,58.4z M474,33.9c-0.7,0-1.2,0.5-1.2,1.2v21.7c0,0.7,0.5,1.2,1.2,1.2h17.6c0.7,0,1.2-0.5,1.2-1.2V35.1
		c0-0.7-0.5-1.2-1.2-1.2H474z"/>
	<rect x="482.7" y="33.8" class="st3" width="0.3" height="24.5"/>
	<path class="st3" d="M480.1,48.1h-3.2c-0.6,0-1.2-0.5-1.2-1.2v-9.4c0-0.6,0.5-1.2,1.2-1.2h3.2c0.6,0,1.2,0.5,1.2,1.2v9.4
		C481.2,47.5,480.7,48.1,480.1,48.1z M476.8,36.7c-0.5,0-0.9,0.4-0.9,0.9v9.4c0,0.5,0.4,0.9,0.9,0.9h3.2c0.5,0,0.9-0.4,0.9-0.9v-9.4
		c0-0.5-0.4-0.9-0.9-0.9H476.8z"/>
	<path class="st3" d="M488.7,48.1h-3.2c-0.6,0-1.2-0.5-1.2-1.2v-9.4c0-0.6,0.5-1.2,1.2-1.2h3.2c0.6,0,1.2,0.5,1.2,1.2v9.4
		C489.9,47.5,489.4,48.1,488.7,48.1z M485.5,36.7c-0.5,0-0.9,0.4-0.9,0.9v9.4c0,0.5,0.4,0.9,0.9,0.9h3.2c0.5,0,0.9-0.4,0.9-0.9v-9.4
		c0-0.5-0.4-0.9-0.9-0.9H485.5z"/>
	<rect x="266.4" y="30.2" class="st3" width="258" height="0.3"/>
	<g>
		<path class="st3" d="M319.9,64.3c1.5,0,2.8-0.9,3.4-2.3h-6.8C317.1,63.4,318.4,64.3,319.9,64.3z"/>
		<path class="st3" d="M323.7,60.3h-7.4c0,0.3,0,0.5,0.1,0.7h7.3C323.6,60.8,323.7,60.6,323.7,60.3z"/>
		<rect x="318.2" y="63.7" class="st3" width="3.7" height="4.5"/>
		<path class="st3" d="M305.3,71.4c-3,0-5.4-2.4-5.4-5.4c0-3,2.4-5.4,5.4-5.4c3,0,5.4,2.4,5.4,5.4C310.7,69,308.3,71.4,305.3,71.4z
			 M305.3,61.2c-2.6,0-4.8,2.2-4.8,4.8s2.2,4.8,4.8,4.8c2.6,0,4.8-2.2,4.8-4.8S308,61.2,305.3,61.2z"/>
		<path class="st3" d="M305.3,70.5c-2.5,0-4.5-2-4.5-4.5c0-2.5,2-4.5,4.5-4.5c2.5,0,4.5,2,4.5,4.5C309.8,68.5,307.8,70.5,305.3,70.5
			z M305.3,61.8c-2.3,0-4.2,1.9-4.2,4.2c0,2.3,1.9,4.2,4.2,4.2c2.3,0,4.2-1.9,4.2-4.2C309.5,63.7,307.6,61.8,305.3,61.8z"/>
		<path class="st3" d="M305.3,69.5c-1.9,0-3.5-1.6-3.5-3.5s1.6-3.5,3.5-3.5c1.9,0,3.5,1.6,3.5,3.5S307.3,69.5,305.3,69.5z
			 M305.3,62.7c-1.8,0-3.3,1.5-3.3,3.3s1.5,3.3,3.3,3.3c1.8,0,3.3-1.5,3.3-3.3S307.2,62.7,305.3,62.7z"/>
		<path class="st3" d="M334.7,71.4c-3,0-5.4-2.4-5.4-5.4c0-3,2.4-5.4,5.4-5.4s5.4,2.4,5.4,5.4C340.1,69,337.7,71.4,334.7,71.4z
			 M334.7,61.2c-2.6,0-4.8,2.2-4.8,4.8s2.2,4.8,4.8,4.8s4.8-2.2,4.8-4.8S337.4,61.2,334.7,61.2z"/>
		<path class="st3" d="M334.7,70.5c-2.5,0-4.5-2-4.5-4.5c0-2.5,2-4.5,4.5-4.5s4.5,2,4.5,4.5C339.2,68.5,337.2,70.5,334.7,70.5z
			 M334.7,61.8c-2.3,0-4.2,1.9-4.2,4.2c0,2.3,1.9,4.2,4.2,4.2s4.2-1.9,4.2-4.2C338.9,63.7,337,61.8,334.7,61.8z"/>
		<path class="st3" d="M334.7,69.5c-1.9,0-3.5-1.6-3.5-3.5s1.6-3.5,3.5-3.5s3.5,1.6,3.5,3.5S336.7,69.5,334.7,69.5z M334.7,62.7
			c-1.8,0-3.3,1.5-3.3,3.3s1.5,3.3,3.3,3.3c1.8,0,3.3-1.5,3.3-3.3S336.6,62.7,334.7,62.7z"/>
		<path class="st3" d="M334.7,60.3c2.4,0,4.5,1.5,5.4,3.7h0.9l-0.3-2.4l-2.1-1.4l-9.1,0.1l0,0l0,0c0,0-1.5,1.1-2.7,2
			c-1.3,0.9-1.9,1-2.4,1.1c-0.5,0.1-6.5,0.2-7.5,0c-1-0.2-4.7-3.1-4.8-3.2l0,0h-9.5l-2.8,1.7L298,62l-0.3,1.5l2.5,0
			c0.9-1.9,2.9-3.2,5.2-3.2c2.4,0,4.4,1.5,5.3,3.5c2.8,0,15.7,0,18.8,0C330.3,61.7,332.4,60.3,334.7,60.3z"/>
		<rect x="315.8" y="61.5" class="st3" width="8.3" height="0.3"/>
		<path class="st3" d="M305.3,64c-1.1,0-2,0.9-2,2c0,1.1,0.9,2,2,2c1.1,0,2-0.9,2-2C307.4,64.9,306.5,64,305.3,64z M305.3,67.1
			c-0.6,0-1.1-0.5-1.1-1.1s0.5-1.1,1.1-1.1c0.6,0,1.1,0.5,1.1,1.1S305.9,67.1,305.3,67.1z"/>
		<path class="st3" d="M334.7,64c-1.1,0-2,0.9-2,2c0,1.1,0.9,2,2,2c1.1,0,2-0.9,2-2C336.8,64.9,335.9,64,334.7,64z M334.7,67.1
			c-0.6,0-1.1-0.5-1.1-1.1s0.5-1.1,1.1-1.1c0.6,0,1.1,0.5,1.1,1.1S335.3,67.1,334.7,67.1z"/>
		<rect x="305" y="64.5" class="st3" width="29.7" height="0.3"/>
		<rect x="305" y="67.2" class="st3" width="29.7" height="0.3"/>
	</g>
	<g>
		<path class="st3" d="M469.9,64.3c1.5,0,2.8-0.9,3.4-2.3h-6.8C467,63.4,468.4,64.3,469.9,64.3z"/>
		<path class="st3" d="M473.6,60.3h-7.4c0,0.3,0,0.5,0.1,0.7h7.3C473.6,60.8,473.6,60.6,473.6,60.3z"/>
		<rect x="468.1" y="63.7" class="st3" width="3.7" height="4.5"/>
		<path class="st3" d="M455.3,71.4c-3,0-5.4-2.4-5.4-5.4c0-3,2.4-5.4,5.4-5.4s5.4,2.4,5.4,5.4C460.7,69,458.2,71.4,455.3,71.4z
			 M455.3,61.2c-2.6,0-4.8,2.2-4.8,4.8s2.2,4.8,4.8,4.8s4.8-2.2,4.8-4.8S457.9,61.2,455.3,61.2z"/>
		<path class="st3" d="M455.3,70.5c-2.5,0-4.5-2-4.5-4.5c0-2.5,2-4.5,4.5-4.5c2.5,0,4.5,2,4.5,4.5C459.7,68.5,457.7,70.5,455.3,70.5
			z M455.3,61.8c-2.3,0-4.2,1.9-4.2,4.2c0,2.3,1.9,4.2,4.2,4.2s4.2-1.9,4.2-4.2C459.4,63.7,457.6,61.8,455.3,61.8z"/>
		<path class="st3" d="M455.3,69.5c-1.9,0-3.5-1.6-3.5-3.5s1.6-3.5,3.5-3.5s3.5,1.6,3.5,3.5S457.2,69.5,455.3,69.5z M455.3,62.7
			c-1.8,0-3.3,1.5-3.3,3.3s1.5,3.3,3.3,3.3c1.8,0,3.3-1.5,3.3-3.3S457.1,62.7,455.3,62.7z"/>
		<path class="st3" d="M484.7,71.4c-3,0-5.4-2.4-5.4-5.4c0-3,2.4-5.4,5.4-5.4s5.4,2.4,5.4,5.4C490.1,69,487.7,71.4,484.7,71.4z
			 M484.7,61.2c-2.6,0-4.8,2.2-4.8,4.8s2.2,4.8,4.8,4.8c2.6,0,4.8-2.2,4.8-4.8S487.3,61.2,484.7,61.2z"/>
		<path class="st3" d="M484.7,70.5c-2.5,0-4.5-2-4.5-4.5c0-2.5,2-4.5,4.5-4.5c2.5,0,4.5,2,4.5,4.5C489.1,68.5,487.1,70.5,484.7,70.5
			z M484.7,61.8c-2.3,0-4.2,1.9-4.2,4.2c0,2.3,1.9,4.2,4.2,4.2s4.2-1.9,4.2-4.2C488.9,63.7,487,61.8,484.7,61.8z"/>
		<path class="st3" d="M484.7,69.5c-1.9,0-3.5-1.6-3.5-3.5s1.6-3.5,3.5-3.5c1.9,0,3.5,1.6,3.5,3.5S486.6,69.5,484.7,69.5z
			 M484.7,62.7c-1.8,0-3.3,1.5-3.3,3.3s1.5,3.3,3.3,3.3c1.8,0,3.3-1.5,3.3-3.3S486.5,62.7,484.7,62.7z"/>
		<path class="st3" d="M484.7,60.3c2.4,0,4.5,1.5,5.4,3.7h0.9l-0.3-2.4l-2.1-1.4l-9.1,0.2l0,0l0,0c0,0-1.5,0.9-2.7,1.8
			c-1.3,0.9-1.9,1-2.4,1.1c-0.5,0.1-6.5,0.2-7.5,0c-1-0.2-4.7-3.1-4.8-3.2l0,0h-9.5l-2.8,1.7l-1.7,0.2l-0.3,1.5l2.5,0
			c0.9-1.9,2.9-3.2,5.2-3.2c2.4,0,4.4,1.5,5.3,3.5c2.8,0,15.7,0,18.8,0C480.3,61.7,482.3,60.3,484.7,60.3z"/>
		<rect x="465.7" y="61.5" class="st3" width="8.3" height="0.3"/>
		<path class="st3" d="M455.3,64c-1.1,0-2,0.9-2,2c0,1.1,0.9,2,2,2c1.1,0,2-0.9,2-2C457.3,64.9,456.4,64,455.3,64z M455.3,67.1
			c-0.6,0-1.1-0.5-1.1-1.1s0.5-1.1,1.1-1.1c0.6,0,1.1,0.5,1.1,1.1S455.9,67.1,455.3,67.1z"/>
		<path class="st3" d="M484.7,64c-1.1,0-2,0.9-2,2c0,1.1,0.9,2,2,2c1.1,0,2-0.9,2-2C486.7,64.9,485.8,64,484.7,64z M484.7,67.1
			c-0.6,0-1.1-0.5-1.1-1.1s0.5-1.1,1.1-1.1c0.6,0,1.1,0.5,1.1,1.1S485.3,67.1,484.7,67.1z"/>
		<rect x="455" y="64.5" class="st3" width="29.7" height="0.3"/>
		<rect x="455" y="67.2" class="st3" width="29.7" height="0.3"/>
	</g>
	<rect x="342.8" y="60.7" class="st3" width="100.6" height="1.8"/>
	<rect x="342.8" y="62.9" class="st3" width="100.6" height="0.5"/>
	<path class="st3" d="M529.6,55.3h-5.3v-23h5.3V55.3z M524.5,55.1h4.7V32.6h-4.7V55.1z"/>
	<rect x="525.2" y="32.5" class="st3" width="0.3" height="22.7"/>
	<rect x="526.8" y="32.5" class="st3" width="0.3" height="22.7"/>
	<rect x="528" y="32.5" class="st3" width="0.3" height="22.7"/>
	<path class="st3" d="M312.8,27.8h-15.3v-2.7h15.3V27.8z M297.7,27.6h15v-2.4h-15V27.6z"/>
	<rect x="297.7" y="26.3" class="st3" width="15" height="0.3"/>
	<path class="st3" d="M357.5,27.8h-42.8v-2.7h42.8V27.8z M314.8,27.6h42.5v-2.4h-42.5V27.6z"/>
	<rect x="314.9" y="26.3" class="st3" width="42.4" height="0.3"/>
	<path class="st3" d="M461.2,27.8h-15.3v-2.7h15.3V27.8z M446,27.6h15v-2.4h-15V27.6z"/>
	<rect x="446" y="26.3" class="st3" width="15" height="0.3"/>
	<path class="st3" d="M505.8,27.8H463v-2.7h42.8V27.8z M463.1,27.6h42.5v-2.4h-42.5V27.6z"/>
	<rect x="463.2" y="26.3" class="st3" width="42.4" height="0.3"/>
	<path class="st3" d="M524.4,31.7c0,0-0.1,0-0.1,0l-25.2,0c-15.8,0-37.7,0-62.3,0c-44.9,0-125.4-0.1-170.4-0.1c0,0,0,0,0,0v0.3
		c0,0,0,0,0,0c84.9,0,257.5,0.1,258,0.1h0.1l0-0.1C524.5,31.8,524.5,31.8,524.4,31.7z"/>
	<g>
		<polygon class="st3" points="506.9,26.5 506.9,28.3 444.7,28.3 444.7,26.5 359.5,26.5 359.5,28.4 296.9,28.4 296.9,26.6 
			266.3,26.6 266.3,26.9 296.6,26.9 296.6,28.7 359.8,28.7 359.8,26.8 444.4,26.8 444.4,28.6 507.2,28.6 507.2,26.8 524.2,26.8 
			524.2,60 266.3,60 266.3,60.3 524.5,60.3 524.5,26.5 		"/>
	</g>
	
		<rect x="249.5" y="43.3" transform="matrix(2.700675e-13 -1 1 2.700675e-13 222.9634 309.8066)" class="st3" width="33.7" height="0.3"/>
</g>
<g>
	<path class="st0" d="M616,46.3h-8.6c-0.3,0-0.6-0.3-0.6-0.6v-8.8c0-0.3,0.3-0.6,0.6-0.6h8.6c0.3,0,0.6,0.3,0.6,0.6v8.8
		C616.6,46,616.3,46.3,616,46.3z M607.4,36.6c-0.2,0-0.3,0.2-0.3,0.3v8.8c0,0.2,0.2,0.3,0.3,0.3h8.6c0.2,0,0.3-0.2,0.3-0.3v-8.8
		c0-0.2-0.2-0.3-0.3-0.3H607.4z"/>
	<path class="st0" d="M604.4,46.3h-8.6c-0.3,0-0.6-0.3-0.6-0.6v-8.8c0-0.3,0.3-0.6,0.6-0.6h8.6c0.3,0,0.6,0.3,0.6,0.6v8.8
		C605,46,604.7,46.3,604.4,46.3z M595.8,36.6c-0.2,0-0.3,0.2-0.3,0.3v8.8c0,0.2,0.2,0.3,0.3,0.3h8.6c0.2,0,0.3-0.2,0.3-0.3v-8.8
		c0-0.2-0.2-0.3-0.3-0.3H595.8z"/>
	<path class="st0" d="M592.8,46.3h-8.6c-0.3,0-0.6-0.3-0.6-0.6v-8.8c0-0.3,0.3-0.6,0.6-0.6h8.6c0.3,0,0.6,0.3,0.6,0.6v8.8
		C593.4,46,593.1,46.3,592.8,46.3z M584.2,36.6c-0.2,0-0.3,0.2-0.3,0.3v8.8c0,0.2,0.2,0.3,0.3,0.3h8.6c0.2,0,0.3-0.2,0.3-0.3v-8.8
		c0-0.2-0.2-0.3-0.3-0.3H584.2z"/>
	<path class="st0" d="M579.7,58.4h-17.6c-0.8,0-1.5-0.7-1.5-1.5V35.1c0-0.8,0.7-1.5,1.5-1.5h17.6c0.8,0,1.5,0.7,1.5,1.5v21.7
		C581.2,57.7,580.5,58.4,579.7,58.4z M562.1,33.9c-0.7,0-1.2,0.5-1.2,1.2v21.7c0,0.7,0.5,1.2,1.2,1.2h17.6c0.7,0,1.2-0.5,1.2-1.2
		V35.1c0-0.7-0.5-1.2-1.2-1.2H562.1z"/>
	<rect x="570.7" y="33.8" class="st0" width="0.3" height="24.5"/>
	<path class="st0" d="M568.1,48.1h-3.2c-0.6,0-1.2-0.5-1.2-1.2v-9.4c0-0.6,0.5-1.2,1.2-1.2h3.2c0.6,0,1.2,0.5,1.2,1.2v9.4
		C569.3,47.5,568.8,48.1,568.1,48.1z M564.9,36.7c-0.5,0-0.9,0.4-0.9,0.9v9.4c0,0.5,0.4,0.9,0.9,0.9h3.2c0.5,0,0.9-0.4,0.9-0.9v-9.4
		c0-0.5-0.4-0.9-0.9-0.9H564.9z"/>
	<path class="st0" d="M576.8,48.1h-3.2c-0.6,0-1.2-0.5-1.2-1.2v-9.4c0-0.6,0.5-1.2,1.2-1.2h3.2c0.6,0,1.2,0.5,1.2,1.2v9.4
		C578,47.5,577.4,48.1,576.8,48.1z M573.6,36.7c-0.5,0-0.9,0.4-0.9,0.9v9.4c0,0.5,0.4,0.9,0.9,0.9h3.2c0.5,0,0.9-0.4,0.9-0.9v-9.4
		c0-0.5-0.4-0.9-0.9-0.9H573.6z"/>
	<path class="st0" d="M673.9,46.3h-8.6c-0.3,0-0.6-0.3-0.6-0.6v-8.8c0-0.3,0.3-0.6,0.6-0.6h8.6c0.3,0,0.6,0.3,0.6,0.6v8.8
		C674.6,46,674.3,46.3,673.9,46.3z M665.4,36.6c-0.2,0-0.3,0.2-0.3,0.3v8.8c0,0.2,0.2,0.3,0.3,0.3h8.6c0.2,0,0.3-0.2,0.3-0.3v-8.8
		c0-0.2-0.2-0.3-0.3-0.3H665.4z"/>
	<path class="st0" d="M662.4,46.3h-8.6c-0.3,0-0.6-0.3-0.6-0.6v-8.8c0-0.3,0.3-0.6,0.6-0.6h8.6c0.3,0,0.6,0.3,0.6,0.6v8.8
		C663,46,662.7,46.3,662.4,46.3z M653.8,36.6c-0.2,0-0.3,0.2-0.3,0.3v8.8c0,0.2,0.2,0.3,0.3,0.3h8.6c0.2,0,0.3-0.2,0.3-0.3v-8.8
		c0-0.2-0.2-0.3-0.3-0.3H653.8z"/>
	<path class="st0" d="M650.8,46.3h-8.6c-0.3,0-0.6-0.3-0.6-0.6v-8.8c0-0.3,0.3-0.6,0.6-0.6h8.6c0.3,0,0.6,0.3,0.6,0.6v8.8
		C651.4,46,651.1,46.3,650.8,46.3z M642.2,36.6c-0.2,0-0.3,0.2-0.3,0.3v8.8c0,0.2,0.2,0.3,0.3,0.3h8.6c0.2,0,0.3-0.2,0.3-0.3v-8.8
		c0-0.2-0.2-0.3-0.3-0.3H642.2z"/>
	<path class="st0" d="M637.7,58.4h-17.6c-0.8,0-1.5-0.7-1.5-1.5V35.1c0-0.8,0.7-1.5,1.5-1.5h17.6c0.8,0,1.5,0.7,1.5,1.5v21.7
		C639.2,57.7,638.5,58.4,637.7,58.4z M620.1,33.9c-0.7,0-1.2,0.5-1.2,1.2v21.7c0,0.7,0.5,1.2,1.2,1.2h17.6c0.7,0,1.2-0.5,1.2-1.2
		V35.1c0-0.7-0.5-1.2-1.2-1.2H620.1z"/>
	<rect x="628.7" y="33.8" class="st0" width="0.3" height="24.5"/>
	<path class="st0" d="M626.1,48.1h-3.2c-0.6,0-1.2-0.5-1.2-1.2v-9.4c0-0.6,0.5-1.2,1.2-1.2h3.2c0.6,0,1.2,0.5,1.2,1.2v9.4
		C627.3,47.5,626.8,48.1,626.1,48.1z M622.9,36.7c-0.5,0-0.9,0.4-0.9,0.9v9.4c0,0.5,0.4,0.9,0.9,0.9h3.2c0.5,0,0.9-0.4,0.9-0.9v-9.4
		c0-0.5-0.4-0.9-0.9-0.9H622.9z"/>
	<path class="st0" d="M634.8,48.1h-3.2c-0.6,0-1.2-0.5-1.2-1.2v-9.4c0-0.6,0.5-1.2,1.2-1.2h3.2c0.6,0,1.2,0.5,1.2,1.2v9.4
		C636,47.5,635.4,48.1,634.8,48.1z M631.6,36.7c-0.5,0-0.9,0.4-0.9,0.9v9.4c0,0.5,0.4,0.9,0.9,0.9h3.2c0.5,0,0.9-0.4,0.9-0.9v-9.4
		c0-0.5-0.4-0.9-0.9-0.9H631.6z"/>
	<path class="st0" d="M732.2,46.3h-8.6c-0.3,0-0.6-0.3-0.6-0.6v-8.8c0-0.3,0.3-0.6,0.6-0.6h8.6c0.3,0,0.6,0.3,0.6,0.6v8.8
		C732.9,46,732.6,46.3,732.2,46.3z M723.7,36.6c-0.2,0-0.3,0.2-0.3,0.3v8.8c0,0.2,0.2,0.3,0.3,0.3h8.6c0.2,0,0.3-0.2,0.3-0.3v-8.8
		c0-0.2-0.2-0.3-0.3-0.3H723.7z"/>
	<path class="st0" d="M720.6,46.3h-8.6c-0.3,0-0.6-0.3-0.6-0.6v-8.8c0-0.3,0.3-0.6,0.6-0.6h8.6c0.3,0,0.6,0.3,0.6,0.6v8.8
		C721.3,46,721,46.3,720.6,46.3z M712.1,36.6c-0.2,0-0.3,0.2-0.3,0.3v8.8c0,0.2,0.2,0.3,0.3,0.3h8.6c0.2,0,0.3-0.2,0.3-0.3v-8.8
		c0-0.2-0.2-0.3-0.3-0.3H712.1z"/>
	<path class="st0" d="M709.1,46.3h-8.6c-0.3,0-0.6-0.3-0.6-0.6v-8.8c0-0.3,0.3-0.6,0.6-0.6h8.6c0.3,0,0.6,0.3,0.6,0.6v8.8
		C709.7,46,709.4,46.3,709.1,46.3z M700.5,36.6c-0.2,0-0.3,0.2-0.3,0.3v8.8c0,0.2,0.2,0.3,0.3,0.3h8.6c0.2,0,0.3-0.2,0.3-0.3v-8.8
		c0-0.2-0.2-0.3-0.3-0.3H700.5z"/>
	<path class="st0" d="M695.9,58.4h-17.6c-0.8,0-1.5-0.7-1.5-1.5V35.1c0-0.8,0.7-1.5,1.5-1.5h17.6c0.8,0,1.5,0.7,1.5,1.5v21.7
		C697.5,57.7,696.8,58.4,695.9,58.4z M678.4,33.9c-0.7,0-1.2,0.5-1.2,1.2v21.7c0,0.7,0.5,1.2,1.2,1.2h17.6c0.7,0,1.2-0.5,1.2-1.2
		V35.1c0-0.7-0.5-1.2-1.2-1.2H678.4z"/>
	<rect x="687" y="33.8" class="st0" width="0.3" height="24.5"/>
	<path class="st0" d="M684.4,48.1h-3.2c-0.6,0-1.2-0.5-1.2-1.2v-9.4c0-0.6,0.5-1.2,1.2-1.2h3.2c0.6,0,1.2,0.5,1.2,1.2v9.4
		C685.6,47.5,685,48.1,684.4,48.1z M681.2,36.7c-0.5,0-0.9,0.4-0.9,0.9v9.4c0,0.5,0.4,0.9,0.9,0.9h3.2c0.5,0,0.9-0.4,0.9-0.9v-9.4
		c0-0.5-0.4-0.9-0.9-0.9H681.2z"/>
	<path class="st0" d="M693.1,48.1h-3.2c-0.6,0-1.2-0.5-1.2-1.2v-9.4c0-0.6,0.5-1.2,1.2-1.2h3.2c0.6,0,1.2,0.5,1.2,1.2v9.4
		C694.2,47.5,693.7,48.1,693.1,48.1z M689.9,36.7c-0.5,0-0.9,0.4-0.9,0.9v9.4c0,0.5,0.4,0.9,0.9,0.9h3.2c0.5,0,0.9-0.4,0.9-0.9v-9.4
		c0-0.5-0.4-0.9-0.9-0.9H689.9z"/>
	<path class="st0" d="M557.2,46.3h-8.6c-0.3,0-0.6-0.3-0.6-0.6v-8.8c0-0.3,0.3-0.6,0.6-0.6h8.6c0.3,0,0.6,0.3,0.6,0.6v8.8
		C557.8,46,557.6,46.3,557.2,46.3z M548.6,36.6c-0.2,0-0.3,0.2-0.3,0.3v8.8c0,0.2,0.2,0.3,0.3,0.3h8.6c0.2,0,0.3-0.2,0.3-0.3v-8.8
		c0-0.2-0.2-0.3-0.3-0.3H548.6z"/>
	<path class="st0" d="M545.6,46.3h-8.6c-0.3,0-0.6-0.3-0.6-0.6v-8.8c0-0.3,0.3-0.6,0.6-0.6h8.6c0.3,0,0.6,0.3,0.6,0.6v8.8
		C546.2,46,546,46.3,545.6,46.3z M537.1,36.6c-0.2,0-0.3,0.2-0.3,0.3v8.8c0,0.2,0.2,0.3,0.3,0.3h8.6c0.2,0,0.3-0.2,0.3-0.3v-8.8
		c0-0.2-0.2-0.3-0.3-0.3H537.1z"/>
	<path class="st0" d="M779.5,46.3h-8.6c-0.3,0-0.6-0.3-0.6-0.6v-8.8c0-0.3,0.3-0.6,0.6-0.6h8.6c0.3,0,0.6,0.3,0.6,0.6v8.8
		C780.1,46,779.8,46.3,779.5,46.3z M770.9,36.6c-0.2,0-0.3,0.2-0.3,0.3v8.8c0,0.2,0.2,0.3,0.3,0.3h8.6c0.2,0,0.3-0.2,0.3-0.3v-8.8
		c0-0.2-0.2-0.3-0.3-0.3H770.9z"/>
	<path class="st0" d="M767.9,46.3h-8.6c-0.3,0-0.6-0.3-0.6-0.6v-8.8c0-0.3,0.3-0.6,0.6-0.6h8.6c0.3,0,0.6,0.3,0.6,0.6v8.8
		C768.5,46,768.3,46.3,767.9,46.3z M759.3,36.6c-0.2,0-0.3,0.2-0.3,0.3v8.8c0,0.2,0.2,0.3,0.3,0.3h8.6c0.2,0,0.3-0.2,0.3-0.3v-8.8
		c0-0.2-0.2-0.3-0.3-0.3H759.3z"/>
	<path class="st0" d="M754.7,58.4h-17.6c-0.8,0-1.5-0.7-1.5-1.5V35.1c0-0.8,0.7-1.5,1.5-1.5h17.6c0.8,0,1.5,0.7,1.5,1.5v21.7
		C756.2,57.7,755.5,58.4,754.7,58.4z M737.1,33.9c-0.7,0-1.2,0.5-1.2,1.2v21.7c0,0.7,0.5,1.2,1.2,1.2h17.6c0.7,0,1.2-0.5,1.2-1.2
		V35.1c0-0.7-0.5-1.2-1.2-1.2H737.1z"/>
	<rect x="745.8" y="33.8" class="st0" width="0.3" height="24.5"/>
	<path class="st0" d="M743.1,48.1h-3.2c-0.6,0-1.2-0.5-1.2-1.2v-9.4c0-0.6,0.5-1.2,1.2-1.2h3.2c0.6,0,1.2,0.5,1.2,1.2v9.4
		C744.3,47.5,743.8,48.1,743.1,48.1z M739.9,36.7c-0.5,0-0.9,0.4-0.9,0.9v9.4c0,0.5,0.4,0.9,0.9,0.9h3.2c0.5,0,0.9-0.4,0.9-0.9v-9.4
		c0-0.5-0.4-0.9-0.9-0.9H739.9z"/>
	<path class="st0" d="M751.8,48.1h-3.2c-0.6,0-1.2-0.5-1.2-1.2v-9.4c0-0.6,0.5-1.2,1.2-1.2h3.2c0.6,0,1.2,0.5,1.2,1.2v9.4
		C753,47.5,752.5,48.1,751.8,48.1z M748.6,36.7c-0.5,0-0.9,0.4-0.9,0.9v9.4c0,0.5,0.4,0.9,0.9,0.9h3.2c0.5,0,0.9-0.4,0.9-0.9v-9.4
		c0-0.5-0.4-0.9-0.9-0.9H748.6z"/>
	<rect x="529.5" y="30.2" class="st0" width="258" height="0.3"/>
	<g>
		<path class="st0" d="M583,64.3c1.5,0,2.8-0.9,3.4-2.3h-6.8C580.2,63.4,581.5,64.3,583,64.3z"/>
		<path class="st0" d="M586.7,60.3h-7.4c0,0.3,0,0.5,0.1,0.7h7.3C586.7,60.8,586.7,60.6,586.7,60.3z"/>
		<rect x="581.3" y="63.7" class="st0" width="3.7" height="4.5"/>
		<path class="st0" d="M568.4,71.4c-3,0-5.4-2.4-5.4-5.4c0-3,2.4-5.4,5.4-5.4c3,0,5.4,2.4,5.4,5.4C573.8,69,571.4,71.4,568.4,71.4z
			 M568.4,61.2c-2.6,0-4.8,2.2-4.8,4.8s2.2,4.8,4.8,4.8c2.6,0,4.8-2.2,4.8-4.8S571.1,61.2,568.4,61.2z"/>
		<path class="st0" d="M568.4,70.5c-2.5,0-4.5-2-4.5-4.5c0-2.5,2-4.5,4.5-4.5c2.5,0,4.5,2,4.5,4.5C572.9,68.5,570.9,70.5,568.4,70.5
			z M568.4,61.8c-2.3,0-4.2,1.9-4.2,4.2c0,2.3,1.9,4.2,4.2,4.2c2.3,0,4.2-1.9,4.2-4.2C572.6,63.7,570.7,61.8,568.4,61.8z"/>
		<path class="st0" d="M568.4,69.5c-1.9,0-3.5-1.6-3.5-3.5s1.6-3.5,3.5-3.5c1.9,0,3.5,1.6,3.5,3.5S570.3,69.5,568.4,69.5z
			 M568.4,62.7c-1.8,0-3.3,1.5-3.3,3.3s1.5,3.3,3.3,3.3c1.8,0,3.3-1.5,3.3-3.3S570.3,62.7,568.4,62.7z"/>
		<path class="st0" d="M597.8,71.4c-3,0-5.4-2.4-5.4-5.4c0-3,2.4-5.4,5.4-5.4c3,0,5.4,2.4,5.4,5.4C603.2,69,600.8,71.4,597.8,71.4z
			 M597.8,61.2c-2.6,0-4.8,2.2-4.8,4.8s2.2,4.8,4.8,4.8c2.6,0,4.8-2.2,4.8-4.8S600.5,61.2,597.8,61.2z"/>
		<path class="st0" d="M597.8,70.5c-2.5,0-4.5-2-4.5-4.5c0-2.5,2-4.5,4.5-4.5s4.5,2,4.5,4.5C602.3,68.5,600.3,70.5,597.8,70.5z
			 M597.8,61.8c-2.3,0-4.2,1.9-4.2,4.2c0,2.3,1.9,4.2,4.2,4.2s4.2-1.9,4.2-4.2C602,63.7,600.1,61.8,597.8,61.8z"/>
		<path class="st0" d="M597.8,69.5c-1.9,0-3.5-1.6-3.5-3.5s1.6-3.5,3.5-3.5c1.9,0,3.5,1.6,3.5,3.5S599.7,69.5,597.8,69.5z
			 M597.8,62.7c-1.8,0-3.3,1.5-3.3,3.3s1.5,3.3,3.3,3.3s3.3-1.5,3.3-3.3S599.7,62.7,597.8,62.7z"/>
		<path class="st0" d="M597.8,60.3c2.4,0,4.5,1.5,5.4,3.7h0.9l-0.3-2.4l-2.1-1.4l-9.1,0.1l0,0l0,0c0,0-1.5,1.1-2.7,2
			c-1.3,0.9-1.9,1-2.4,1.1c-0.5,0.1-6.5,0.2-7.5,0c-1-0.2-4.7-3.1-4.8-3.2l0,0h-9.5l-2.8,1.7l-1.7,0.2l-0.3,1.5l2.5,0
			c0.9-1.9,2.9-3.2,5.2-3.2c2.4,0,4.4,1.5,5.3,3.5c2.8,0,15.7,0,18.8,0C593.4,61.7,595.4,60.3,597.8,60.3z"/>
		<rect x="578.8" y="61.5" class="st0" width="8.3" height="0.3"/>
		<path class="st0" d="M568.4,64c-1.1,0-2,0.9-2,2c0,1.1,0.9,2,2,2c1.1,0,2-0.9,2-2C570.5,64.9,569.6,64,568.4,64z M568.4,67.1
			c-0.6,0-1.1-0.5-1.1-1.1s0.5-1.1,1.1-1.1c0.6,0,1.1,0.5,1.1,1.1S569,67.1,568.4,67.1z"/>
		<path class="st0" d="M597.8,64c-1.1,0-2,0.9-2,2c0,1.1,0.9,2,2,2c1.1,0,2-0.9,2-2C599.9,64.9,599,64,597.8,64z M597.8,67.1
			c-0.6,0-1.1-0.5-1.1-1.1s0.5-1.1,1.1-1.1c0.6,0,1.1,0.5,1.1,1.1S598.4,67.1,597.8,67.1z"/>
		<rect x="568.1" y="64.5" class="st0" width="29.7" height="0.3"/>
		<rect x="568.1" y="67.2" class="st0" width="29.7" height="0.3"/>
	</g>
	<g>
		<path class="st0" d="M733,64.3c1.5,0,2.8-0.9,3.4-2.3h-6.8C730.1,63.4,731.4,64.3,733,64.3z"/>
		<path class="st0" d="M736.7,60.3h-7.4c0,0.3,0,0.5,0.1,0.7h7.3C736.7,60.8,736.7,60.6,736.7,60.3z"/>
		<rect x="731.2" y="63.7" class="st0" width="3.7" height="4.5"/>
		<path class="st0" d="M718.4,71.4c-3,0-5.4-2.4-5.4-5.4c0-3,2.4-5.4,5.4-5.4c3,0,5.4,2.4,5.4,5.4C723.7,69,721.3,71.4,718.4,71.4z
			 M718.4,61.2c-2.6,0-4.8,2.2-4.8,4.8s2.2,4.8,4.8,4.8c2.6,0,4.8-2.2,4.8-4.8S721,61.2,718.4,61.2z"/>
		<path class="st0" d="M718.4,70.5c-2.5,0-4.5-2-4.5-4.5c0-2.5,2-4.5,4.5-4.5s4.5,2,4.5,4.5C722.8,68.5,720.8,70.5,718.4,70.5z
			 M718.4,61.8c-2.3,0-4.2,1.9-4.2,4.2c0,2.3,1.9,4.2,4.2,4.2s4.2-1.9,4.2-4.2C722.5,63.7,720.7,61.8,718.4,61.8z"/>
		<path class="st0" d="M718.4,69.5c-1.9,0-3.5-1.6-3.5-3.5s1.6-3.5,3.5-3.5s3.5,1.6,3.5,3.5S720.3,69.5,718.4,69.5z M718.4,62.7
			c-1.8,0-3.3,1.5-3.3,3.3s1.5,3.3,3.3,3.3s3.3-1.5,3.3-3.3S720.2,62.7,718.4,62.7z"/>
		<path class="st0" d="M747.8,71.4c-3,0-5.4-2.4-5.4-5.4c0-3,2.4-5.4,5.4-5.4c3,0,5.4,2.4,5.4,5.4C753.1,69,750.7,71.4,747.8,71.4z
			 M747.8,61.2c-2.6,0-4.8,2.2-4.8,4.8s2.2,4.8,4.8,4.8c2.6,0,4.8-2.2,4.8-4.8S750.4,61.2,747.8,61.2z"/>
		<path class="st0" d="M747.8,70.5c-2.5,0-4.5-2-4.5-4.5c0-2.5,2-4.5,4.5-4.5s4.5,2,4.5,4.5C752.2,68.5,750.2,70.5,747.8,70.5z
			 M747.8,61.8c-2.3,0-4.2,1.9-4.2,4.2c0,2.3,1.9,4.2,4.2,4.2s4.2-1.9,4.2-4.2C751.9,63.7,750.1,61.8,747.8,61.8z"/>
		<path class="st0" d="M747.8,69.5c-1.9,0-3.5-1.6-3.5-3.5s1.6-3.5,3.5-3.5s3.5,1.6,3.5,3.5S749.7,69.5,747.8,69.5z M747.8,62.7
			c-1.8,0-3.3,1.5-3.3,3.3s1.5,3.3,3.3,3.3s3.3-1.5,3.3-3.3S749.6,62.7,747.8,62.7z"/>
		<path class="st0" d="M747.8,60.3c2.4,0,4.5,1.5,5.4,3.7h0.9l-0.3-2.4l-2.1-1.4l-9.1,0.2l0,0l0,0c0,0-1.5,0.9-2.7,1.8
			c-1.3,0.9-1.9,1-2.4,1.1c-0.5,0.1-6.5,0.2-7.5,0c-1-0.2-4.7-3.1-4.8-3.2l0,0h-9.5l-2.8,1.7L711,62l-0.3,1.5l2.5,0
			c0.9-1.9,2.9-3.2,5.2-3.2c2.4,0,4.4,1.5,5.3,3.5c2.8,0,15.7,0,18.8,0C743.3,61.7,745.4,60.3,747.8,60.3z"/>
		<rect x="728.8" y="61.5" class="st0" width="8.3" height="0.3"/>
		<path class="st0" d="M718.4,64c-1.1,0-2,0.9-2,2c0,1.1,0.9,2,2,2s2-0.9,2-2C720.4,64.9,719.5,64,718.4,64z M718.4,67.1
			c-0.6,0-1.1-0.5-1.1-1.1s0.5-1.1,1.1-1.1s1.1,0.5,1.1,1.1S719,67.1,718.4,67.1z"/>
		<path class="st0" d="M747.8,64c-1.1,0-2,0.9-2,2c0,1.1,0.9,2,2,2c1.1,0,2-0.9,2-2C749.8,64.9,748.9,64,747.8,64z M747.8,67.1
			c-0.6,0-1.1-0.5-1.1-1.1s0.5-1.1,1.1-1.1c0.6,0,1.1,0.5,1.1,1.1S748.4,67.1,747.8,67.1z"/>
		<rect x="718" y="64.5" class="st0" width="29.7" height="0.3"/>
		<rect x="718" y="67.2" class="st0" width="29.7" height="0.3"/>
	</g>
	<rect x="605.9" y="60.7" class="st0" width="100.6" height="1.8"/>
	<rect x="605.9" y="62.9" class="st0" width="100.6" height="0.5"/>
	<path class="st0" d="M792.6,55.3h-5.3v-23h5.3V55.3z M787.6,55.1h4.7V32.6h-4.7V55.1z"/>
	<rect x="788.3" y="32.5" class="st0" width="0.3" height="22.7"/>
	<rect x="789.8" y="32.5" class="st0" width="0.3" height="22.7"/>
	<rect x="791.1" y="32.5" class="st0" width="0.3" height="22.7"/>
	<path class="st0" d="M575.9,27.8h-15.3v-2.7h15.3V27.8z M560.8,27.6h15v-2.4h-15V27.6z"/>
	<rect x="560.8" y="26.3" class="st0" width="15" height="0.3"/>
	<path class="st0" d="M620.5,27.8h-42.8v-2.7h42.8V27.8z M577.9,27.6h42.5v-2.4h-42.5V27.6z"/>
	<rect x="578" y="26.3" class="st0" width="42.4" height="0.3"/>
	<path class="st0" d="M724.2,27.8H709v-2.7h15.3V27.8z M709.1,27.6h15v-2.4h-15V27.6z"/>
	<rect x="709.1" y="26.3" class="st0" width="15" height="0.3"/>
	<path class="st0" d="M768.8,27.8h-42.8v-2.7h42.8V27.8z M726.2,27.6h42.5v-2.4h-42.5V27.6z"/>
	<rect x="726.3" y="26.3" class="st0" width="42.4" height="0.3"/>
	<path class="st0" d="M787.5,31.7c0,0-0.1,0-0.1,0l-25.2,0c-15.8,0-37.7,0-62.3,0c-44.9,0-125.4-0.1-170.4-0.1c0,0,0,0,0,0v0.3
		c0,0,0,0,0,0c84.9,0,257.5,0.1,258,0.1h0.1l0-0.1C787.6,31.8,787.5,31.8,787.5,31.7z"/>
	<g>
		<polygon class="st0" points="770,26.5 770,28.3 707.8,28.3 707.8,26.5 622.6,26.5 622.6,28.4 559.9,28.4 559.9,26.6 529.4,26.6 
			529.4,26.9 559.7,26.9 559.7,28.7 622.9,28.7 622.9,26.8 707.5,26.8 707.5,28.6 770.3,28.6 770.3,26.8 787.3,26.8 787.3,60 
			529.4,60 529.4,60.3 787.6,60.3 787.6,26.5 		"/>
	</g>
	
		<rect x="512.6" y="43.3" transform="matrix(3.233582e-13 -1 1 3.233582e-13 486.0489 572.892)" class="st0" width="33.7" height="0.3"/>
</g>
<g>
	<path class="st0" d="M879.1,46.3h-8.6c-0.3,0-0.6-0.3-0.6-0.6v-8.8c0-0.3,0.3-0.6,0.6-0.6h8.6c0.3,0,0.6,0.3,0.6,0.6v8.8
		C879.8,46,879.5,46.3,879.1,46.3z M870.6,36.6c-0.2,0-0.3,0.2-0.3,0.3v8.8c0,0.2,0.2,0.3,0.3,0.3h8.6c0.2,0,0.3-0.2,0.3-0.3v-8.8
		c0-0.2-0.2-0.3-0.3-0.3H870.6z"/>
	<path class="st0" d="M867.5,46.3H859c-0.3,0-0.6-0.3-0.6-0.6v-8.8c0-0.3,0.3-0.6,0.6-0.6h8.6c0.3,0,0.6,0.3,0.6,0.6v8.8
		C868.2,46,867.9,46.3,867.5,46.3z M859,36.6c-0.2,0-0.3,0.2-0.3,0.3v8.8c0,0.2,0.2,0.3,0.3,0.3h8.6c0.2,0,0.3-0.2,0.3-0.3v-8.8
		c0-0.2-0.2-0.3-0.3-0.3H859z"/>
	<path class="st0" d="M856,46.3h-8.6c-0.3,0-0.6-0.3-0.6-0.6v-8.8c0-0.3,0.3-0.6,0.6-0.6h8.6c0.3,0,0.6,0.3,0.6,0.6v8.8
		C856.6,46,856.3,46.3,856,46.3z M847.4,36.6c-0.2,0-0.3,0.2-0.3,0.3v8.8c0,0.2,0.2,0.3,0.3,0.3h8.6c0.2,0,0.3-0.2,0.3-0.3v-8.8
		c0-0.2-0.2-0.3-0.3-0.3H847.4z"/>
	<path class="st0" d="M842.8,58.4h-17.6c-0.8,0-1.5-0.7-1.5-1.5V35.1c0-0.8,0.7-1.5,1.5-1.5h17.6c0.8,0,1.5,0.7,1.5,1.5v21.7
		C844.4,57.7,843.7,58.4,842.8,58.4z M825.3,33.9c-0.7,0-1.2,0.5-1.2,1.2v21.7c0,0.7,0.5,1.2,1.2,1.2h17.6c0.7,0,1.2-0.5,1.2-1.2
		V35.1c0-0.7-0.5-1.2-1.2-1.2H825.3z"/>
	<rect x="833.9" y="33.8" class="st0" width="0.3" height="24.5"/>
	<path class="st0" d="M831.3,48.1h-3.2c-0.6,0-1.2-0.5-1.2-1.2v-9.4c0-0.6,0.5-1.2,1.2-1.2h3.2c0.6,0,1.2,0.5,1.2,1.2v9.4
		C832.5,47.5,831.9,48.1,831.3,48.1z M828.1,36.7c-0.5,0-0.9,0.4-0.9,0.9v9.4c0,0.5,0.4,0.9,0.9,0.9h3.2c0.5,0,0.9-0.4,0.9-0.9v-9.4
		c0-0.5-0.4-0.9-0.9-0.9H828.1z"/>
	<path class="st0" d="M840,48.1h-3.2c-0.6,0-1.2-0.5-1.2-1.2v-9.4c0-0.6,0.5-1.2,1.2-1.2h3.2c0.6,0,1.2,0.5,1.2,1.2v9.4
		C841.1,47.5,840.6,48.1,840,48.1z M836.8,36.7c-0.5,0-0.9,0.4-0.9,0.9v9.4c0,0.5,0.4,0.9,0.9,0.9h3.2c0.5,0,0.9-0.4,0.9-0.9v-9.4
		c0-0.5-0.4-0.9-0.9-0.9H836.8z"/>
	<path class="st0" d="M937.1,46.3h-8.6c-0.3,0-0.6-0.3-0.6-0.6v-8.8c0-0.3,0.3-0.6,0.6-0.6h8.6c0.3,0,0.6,0.3,0.6,0.6v8.8
		C937.7,46,937.5,46.3,937.1,46.3z M928.6,36.6c-0.2,0-0.3,0.2-0.3,0.3v8.8c0,0.2,0.2,0.3,0.3,0.3h8.6c0.2,0,0.3-0.2,0.3-0.3v-8.8
		c0-0.2-0.2-0.3-0.3-0.3H928.6z"/>
	<path class="st0" d="M925.5,46.3H917c-0.3,0-0.6-0.3-0.6-0.6v-8.8c0-0.3,0.3-0.6,0.6-0.6h8.6c0.3,0,0.6,0.3,0.6,0.6v8.8
		C926.2,46,925.9,46.3,925.5,46.3z M917,36.6c-0.2,0-0.3,0.2-0.3,0.3v8.8c0,0.2,0.2,0.3,0.3,0.3h8.6c0.2,0,0.3-0.2,0.3-0.3v-8.8
		c0-0.2-0.2-0.3-0.3-0.3H917z"/>
	<path class="st0" d="M913.9,46.3h-8.6c-0.3,0-0.6-0.3-0.6-0.6v-8.8c0-0.3,0.3-0.6,0.6-0.6h8.6c0.3,0,0.6,0.3,0.6,0.6v8.8
		C914.6,46,914.3,46.3,913.9,46.3z M905.4,36.6c-0.2,0-0.3,0.2-0.3,0.3v8.8c0,0.2,0.2,0.3,0.3,0.3h8.6c0.2,0,0.3-0.2,0.3-0.3v-8.8
		c0-0.2-0.2-0.3-0.3-0.3H905.4z"/>
	<path class="st0" d="M900.8,58.4h-17.6c-0.8,0-1.5-0.7-1.5-1.5V35.1c0-0.8,0.7-1.5,1.5-1.5h17.6c0.8,0,1.5,0.7,1.5,1.5v21.7
		C902.3,57.7,901.7,58.4,900.8,58.4z M883.3,33.9c-0.7,0-1.2,0.5-1.2,1.2v21.7c0,0.7,0.5,1.2,1.2,1.2h17.6c0.7,0,1.2-0.5,1.2-1.2
		V35.1c0-0.7-0.5-1.2-1.2-1.2H883.3z"/>
	<rect x="891.9" y="33.8" class="st0" width="0.3" height="24.5"/>
	<path class="st0" d="M889.3,48.1h-3.2c-0.6,0-1.2-0.5-1.2-1.2v-9.4c0-0.6,0.5-1.2,1.2-1.2h3.2c0.6,0,1.2,0.5,1.2,1.2v9.4
		C890.4,47.5,889.9,48.1,889.3,48.1z M886.1,36.7c-0.5,0-0.9,0.4-0.9,0.9v9.4c0,0.5,0.4,0.9,0.9,0.9h3.2c0.5,0,0.9-0.4,0.9-0.9v-9.4
		c0-0.5-0.4-0.9-0.9-0.9H886.1z"/>
	<path class="st0" d="M898,48.1h-3.2c-0.6,0-1.2-0.5-1.2-1.2v-9.4c0-0.6,0.5-1.2,1.2-1.2h3.2c0.6,0,1.2,0.5,1.2,1.2v9.4
		C899.1,47.5,898.6,48.1,898,48.1z M894.8,36.7c-0.5,0-0.9,0.4-0.9,0.9v9.4c0,0.5,0.4,0.9,0.9,0.9h3.2c0.5,0,0.9-0.4,0.9-0.9v-9.4
		c0-0.5-0.4-0.9-0.9-0.9H894.8z"/>
	<path class="st0" d="M995.4,46.3h-8.6c-0.3,0-0.6-0.3-0.6-0.6v-8.8c0-0.3,0.3-0.6,0.6-0.6h8.6c0.3,0,0.6,0.3,0.6,0.6v8.8
		C996,46,995.7,46.3,995.4,46.3z M986.8,36.6c-0.2,0-0.3,0.2-0.3,0.3v8.8c0,0.2,0.2,0.3,0.3,0.3h8.6c0.2,0,0.3-0.2,0.3-0.3v-8.8
		c0-0.2-0.2-0.3-0.3-0.3H986.8z"/>
	<path class="st0" d="M983.8,46.3h-8.6c-0.3,0-0.6-0.3-0.6-0.6v-8.8c0-0.3,0.3-0.6,0.6-0.6h8.6c0.3,0,0.6,0.3,0.6,0.6v8.8
		C984.4,46,984.2,46.3,983.8,46.3z M975.3,36.6c-0.2,0-0.3,0.2-0.3,0.3v8.8c0,0.2,0.2,0.3,0.3,0.3h8.6c0.2,0,0.3-0.2,0.3-0.3v-8.8
		c0-0.2-0.2-0.3-0.3-0.3H975.3z"/>
	<path class="st0" d="M972.2,46.3h-8.6c-0.3,0-0.6-0.3-0.6-0.6v-8.8c0-0.3,0.3-0.6,0.6-0.6h8.6c0.3,0,0.6,0.3,0.6,0.6v8.8
		C972.9,46,972.6,46.3,972.2,46.3z M963.7,36.6c-0.2,0-0.3,0.2-0.3,0.3v8.8c0,0.2,0.2,0.3,0.3,0.3h8.6c0.2,0,0.3-0.2,0.3-0.3v-8.8
		c0-0.2-0.2-0.3-0.3-0.3H963.7z"/>
	<path class="st0" d="M959.1,58.4h-17.6c-0.8,0-1.5-0.7-1.5-1.5V35.1c0-0.8,0.7-1.5,1.5-1.5h17.6c0.8,0,1.5,0.7,1.5,1.5v21.7
		C960.6,57.7,959.9,58.4,959.1,58.4z M941.6,33.9c-0.7,0-1.2,0.5-1.2,1.2v21.7c0,0.7,0.5,1.2,1.2,1.2h17.6c0.7,0,1.2-0.5,1.2-1.2
		V35.1c0-0.7-0.5-1.2-1.2-1.2H941.6z"/>
	<rect x="950.2" y="33.8" class="st0" width="0.3" height="24.5"/>
	<path class="st0" d="M947.6,48.1h-3.2c-0.6,0-1.2-0.5-1.2-1.2v-9.4c0-0.6,0.5-1.2,1.2-1.2h3.2c0.6,0,1.2,0.5,1.2,1.2v9.4
		C948.7,47.5,948.2,48.1,947.6,48.1z M944.4,36.7c-0.5,0-0.9,0.4-0.9,0.9v9.4c0,0.5,0.4,0.9,0.9,0.9h3.2c0.5,0,0.9-0.4,0.9-0.9v-9.4
		c0-0.5-0.4-0.9-0.9-0.9H944.4z"/>
	<path class="st0" d="M956.3,48.1H953c-0.6,0-1.2-0.5-1.2-1.2v-9.4c0-0.6,0.5-1.2,1.2-1.2h3.2c0.6,0,1.2,0.5,1.2,1.2v9.4
		C957.4,47.5,956.9,48.1,956.3,48.1z M953,36.7c-0.5,0-0.9,0.4-0.9,0.9v9.4c0,0.5,0.4,0.9,0.9,0.9h3.2c0.5,0,0.9-0.4,0.9-0.9v-9.4
		c0-0.5-0.4-0.9-0.9-0.9H953z"/>
	<path class="st0" d="M820.4,46.3h-8.6c-0.3,0-0.6-0.3-0.6-0.6v-8.8c0-0.3,0.3-0.6,0.6-0.6h8.6c0.3,0,0.6,0.3,0.6,0.6v8.8
		C821,46,820.7,46.3,820.4,46.3z M811.8,36.6c-0.2,0-0.3,0.2-0.3,0.3v8.8c0,0.2,0.2,0.3,0.3,0.3h8.6c0.2,0,0.3-0.2,0.3-0.3v-8.8
		c0-0.2-0.2-0.3-0.3-0.3H811.8z"/>
	<path class="st0" d="M808.8,46.3h-8.6c-0.3,0-0.6-0.3-0.6-0.6v-8.8c0-0.3,0.3-0.6,0.6-0.6h8.6c0.3,0,0.6,0.3,0.6,0.6v8.8
		C809.4,46,809.1,46.3,808.8,46.3z M800.2,36.6c-0.2,0-0.3,0.2-0.3,0.3v8.8c0,0.2,0.2,0.3,0.3,0.3h8.6c0.2,0,0.3-0.2,0.3-0.3v-8.8
		c0-0.2-0.2-0.3-0.3-0.3H800.2z"/>
	<path class="st0" d="M1042.7,46.3h-8.6c-0.3,0-0.6-0.3-0.6-0.6v-8.8c0-0.3,0.3-0.6,0.6-0.6h8.6c0.3,0,0.6,0.3,0.6,0.6v8.8
		C1043.3,46,1043,46.3,1042.7,46.3z M1034.1,36.6c-0.2,0-0.3,0.2-0.3,0.3v8.8c0,0.2,0.2,0.3,0.3,0.3h8.6c0.2,0,0.3-0.2,0.3-0.3v-8.8
		c0-0.2-0.2-0.3-0.3-0.3H1034.1z"/>
	<path class="st0" d="M1031.1,46.3h-8.6c-0.3,0-0.6-0.3-0.6-0.6v-8.8c0-0.3,0.3-0.6,0.6-0.6h8.6c0.3,0,0.6,0.3,0.6,0.6v8.8
		C1031.7,46,1031.4,46.3,1031.1,46.3z M1022.5,36.6c-0.2,0-0.3,0.2-0.3,0.3v8.8c0,0.2,0.2,0.3,0.3,0.3h8.6c0.2,0,0.3-0.2,0.3-0.3
		v-8.8c0-0.2-0.2-0.3-0.3-0.3H1022.5z"/>
	<path class="st0" d="M1017.8,58.4h-17.6c-0.8,0-1.5-0.7-1.5-1.5V35.1c0-0.8,0.7-1.5,1.5-1.5h17.6c0.8,0,1.5,0.7,1.5,1.5v21.7
		C1019.4,57.7,1018.7,58.4,1017.8,58.4z M1000.3,33.9c-0.7,0-1.2,0.5-1.2,1.2v21.7c0,0.7,0.5,1.2,1.2,1.2h17.6
		c0.7,0,1.2-0.5,1.2-1.2V35.1c0-0.7-0.5-1.2-1.2-1.2H1000.3z"/>
	<rect x="1008.9" y="33.8" class="st0" width="0.3" height="24.5"/>
	<path class="st0" d="M1006.3,48.1h-3.2c-0.6,0-1.2-0.5-1.2-1.2v-9.4c0-0.6,0.5-1.2,1.2-1.2h3.2c0.6,0,1.2,0.5,1.2,1.2v9.4
		C1007.5,47.5,1006.9,48.1,1006.3,48.1z M1003.1,36.7c-0.5,0-0.9,0.4-0.9,0.9v9.4c0,0.5,0.4,0.9,0.9,0.9h3.2c0.5,0,0.9-0.4,0.9-0.9
		v-9.4c0-0.5-0.4-0.9-0.9-0.9H1003.1z"/>
	<path class="st0" d="M1015,48.1h-3.2c-0.6,0-1.2-0.5-1.2-1.2v-9.4c0-0.6,0.5-1.2,1.2-1.2h3.2c0.6,0,1.2,0.5,1.2,1.2v9.4
		C1016.1,47.5,1015.6,48.1,1015,48.1z M1011.8,36.7c-0.5,0-0.9,0.4-0.9,0.9v9.4c0,0.5,0.4,0.9,0.9,0.9h3.2c0.5,0,0.9-0.4,0.9-0.9
		v-9.4c0-0.5-0.4-0.9-0.9-0.9H1011.8z"/>
	<rect x="792.7" y="30.2" class="st0" width="258" height="0.3"/>
	<g>
		<path class="st0" d="M846.2,64.3c1.5,0,2.8-0.9,3.4-2.3h-6.8C843.3,63.4,844.7,64.3,846.2,64.3z"/>
		<path class="st0" d="M849.9,60.3h-7.4c0,0.3,0,0.5,0.1,0.7h7.3C849.9,60.8,849.9,60.6,849.9,60.3z"/>
		<rect x="844.5" y="63.7" class="st0" width="3.7" height="4.5"/>
		<path class="st0" d="M831.6,71.4c-3,0-5.4-2.4-5.4-5.4c0-3,2.4-5.4,5.4-5.4c3,0,5.4,2.4,5.4,5.4C837,69,834.6,71.4,831.6,71.4z
			 M831.6,61.2c-2.6,0-4.8,2.2-4.8,4.8s2.2,4.8,4.8,4.8c2.6,0,4.8-2.2,4.8-4.8S834.2,61.2,831.6,61.2z"/>
		<path class="st0" d="M831.6,70.5c-2.5,0-4.5-2-4.5-4.5c0-2.5,2-4.5,4.5-4.5c2.5,0,4.5,2,4.5,4.5C836,68.5,834,70.5,831.6,70.5z
			 M831.6,61.8c-2.3,0-4.2,1.9-4.2,4.2c0,2.3,1.9,4.2,4.2,4.2c2.3,0,4.2-1.9,4.2-4.2C835.8,63.7,833.9,61.8,831.6,61.8z"/>
		<path class="st0" d="M831.6,69.5c-1.9,0-3.5-1.6-3.5-3.5s1.6-3.5,3.5-3.5c1.9,0,3.5,1.6,3.5,3.5S833.5,69.5,831.6,69.5z
			 M831.6,62.7c-1.8,0-3.3,1.5-3.3,3.3s1.5,3.3,3.3,3.3c1.8,0,3.3-1.5,3.3-3.3S833.4,62.7,831.6,62.7z"/>
		<path class="st0" d="M861,71.4c-3,0-5.4-2.4-5.4-5.4c0-3,2.4-5.4,5.4-5.4c3,0,5.4,2.4,5.4,5.4C866.4,69,864,71.4,861,71.4z
			 M861,61.2c-2.6,0-4.8,2.2-4.8,4.8s2.2,4.8,4.8,4.8c2.6,0,4.8-2.2,4.8-4.8S863.6,61.2,861,61.2z"/>
		<path class="st0" d="M861,70.5c-2.5,0-4.5-2-4.5-4.5c0-2.5,2-4.5,4.5-4.5s4.5,2,4.5,4.5C865.5,68.5,863.5,70.5,861,70.5z
			 M861,61.8c-2.3,0-4.2,1.9-4.2,4.2c0,2.3,1.9,4.2,4.2,4.2s4.2-1.9,4.2-4.2C865.2,63.7,863.3,61.8,861,61.8z"/>
		<path class="st0" d="M861,69.5c-1.9,0-3.5-1.6-3.5-3.5s1.6-3.5,3.5-3.5c1.9,0,3.5,1.6,3.5,3.5S862.9,69.5,861,69.5z M861,62.7
			c-1.8,0-3.3,1.5-3.3,3.3s1.5,3.3,3.3,3.3s3.3-1.5,3.3-3.3S862.8,62.7,861,62.7z"/>
		<path class="st0" d="M861,60.3c2.4,0,4.5,1.5,5.4,3.7h0.9l-0.3-2.4l-2.1-1.4l-9.1,0.1l0,0l0,0c0,0-1.5,1.1-2.7,2
			c-1.3,0.9-1.9,1-2.4,1.1c-0.5,0.1-6.5,0.2-7.5,0c-1-0.2-4.7-3.1-4.8-3.2l0,0h-9.5l-2.8,1.7l-1.7,0.2l-0.3,1.5l2.5,0
			c0.9-1.9,2.9-3.2,5.2-3.2c2.4,0,4.4,1.5,5.3,3.5c2.8,0,15.7,0,18.8,0C856.6,61.7,858.6,60.3,861,60.3z"/>
		<rect x="842" y="61.5" class="st0" width="8.3" height="0.3"/>
		<path class="st0" d="M831.6,64c-1.1,0-2,0.9-2,2c0,1.1,0.9,2,2,2c1.1,0,2-0.9,2-2C833.6,64.9,832.7,64,831.6,64z M831.6,67.1
			c-0.6,0-1.1-0.5-1.1-1.1s0.5-1.1,1.1-1.1c0.6,0,1.1,0.5,1.1,1.1S832.2,67.1,831.6,67.1z"/>
		<path class="st0" d="M861,64c-1.1,0-2,0.9-2,2c0,1.1,0.9,2,2,2c1.1,0,2-0.9,2-2C863,64.9,862.1,64,861,64z M861,67.1
			c-0.6,0-1.1-0.5-1.1-1.1s0.5-1.1,1.1-1.1c0.6,0,1.1,0.5,1.1,1.1S861.6,67.1,861,67.1z"/>
		<rect x="831.3" y="64.5" class="st0" width="29.7" height="0.3"/>
		<rect x="831.3" y="67.2" class="st0" width="29.7" height="0.3"/>
	</g>
	<g>
		<path class="st0" d="M996.1,64.3c1.5,0,2.8-0.9,3.4-2.3h-6.8C993.3,63.4,994.6,64.3,996.1,64.3z"/>
		<path class="st0" d="M999.9,60.3h-7.4c0,0.3,0,0.5,0.1,0.7h7.3C999.8,60.8,999.9,60.6,999.9,60.3z"/>
		<rect x="994.4" y="63.7" class="st0" width="3.7" height="4.5"/>
		<path class="st0" d="M981.5,71.4c-3,0-5.4-2.4-5.4-5.4c0-3,2.4-5.4,5.4-5.4c3,0,5.4,2.4,5.4,5.4C986.9,69,984.5,71.4,981.5,71.4z
			 M981.5,61.2c-2.6,0-4.8,2.2-4.8,4.8s2.2,4.8,4.8,4.8c2.6,0,4.8-2.2,4.8-4.8S984.2,61.2,981.5,61.2z"/>
		<path class="st0" d="M981.5,70.5c-2.5,0-4.5-2-4.5-4.5c0-2.5,2-4.5,4.5-4.5s4.5,2,4.5,4.5C986,68.5,984,70.5,981.5,70.5z
			 M981.5,61.8c-2.3,0-4.2,1.9-4.2,4.2c0,2.3,1.9,4.2,4.2,4.2s4.2-1.9,4.2-4.2C985.7,63.7,983.8,61.8,981.5,61.8z"/>
		<path class="st0" d="M981.5,69.5c-1.9,0-3.5-1.6-3.5-3.5s1.6-3.5,3.5-3.5s3.5,1.6,3.5,3.5S983.5,69.5,981.5,69.5z M981.5,62.7
			c-1.8,0-3.3,1.5-3.3,3.3s1.5,3.3,3.3,3.3s3.3-1.5,3.3-3.3S983.4,62.7,981.5,62.7z"/>
		<path class="st0" d="M1010.9,71.4c-3,0-5.4-2.4-5.4-5.4c0-3,2.4-5.4,5.4-5.4c3,0,5.4,2.4,5.4,5.4
			C1016.3,69,1013.9,71.4,1010.9,71.4z M1010.9,61.2c-2.6,0-4.8,2.2-4.8,4.8s2.2,4.8,4.8,4.8c2.6,0,4.8-2.2,4.8-4.8
			S1013.6,61.2,1010.9,61.2z"/>
		<path class="st0" d="M1010.9,70.5c-2.5,0-4.5-2-4.5-4.5c0-2.5,2-4.5,4.5-4.5s4.5,2,4.5,4.5C1015.4,68.5,1013.4,70.5,1010.9,70.5z
			 M1010.9,61.8c-2.3,0-4.2,1.9-4.2,4.2c0,2.3,1.9,4.2,4.2,4.2s4.2-1.9,4.2-4.2C1015.1,63.7,1013.2,61.8,1010.9,61.8z"/>
		<path class="st0" d="M1010.9,69.5c-1.9,0-3.5-1.6-3.5-3.5s1.6-3.5,3.5-3.5s3.5,1.6,3.5,3.5S1012.9,69.5,1010.9,69.5z M1010.9,62.7
			c-1.8,0-3.3,1.5-3.3,3.3s1.5,3.3,3.3,3.3s3.3-1.5,3.3-3.3S1012.8,62.7,1010.9,62.7z"/>
		<path class="st0" d="M1010.9,60.3c2.4,0,4.5,1.5,5.4,3.7h0.9l-0.3-2.4l-2.1-1.4l-9.1,0.2l0,0l0,0c0,0-1.5,0.9-2.7,1.8
			c-1.3,0.9-1.9,1-2.4,1.1c-0.5,0.1-6.5,0.2-7.5,0c-1-0.2-4.7-3.1-4.8-3.2l0,0h-9.5l-2.8,1.7l-1.7,0.2l-0.3,1.5l2.5,0
			c0.9-1.9,2.9-3.2,5.2-3.2c2.4,0,4.4,1.5,5.3,3.5c2.8,0,15.7,0,18.8,0C1006.5,61.7,1008.6,60.3,1010.9,60.3z"/>
		<rect x="992" y="61.5" class="st0" width="8.3" height="0.3"/>
		<path class="st0" d="M981.5,64c-1.1,0-2,0.9-2,2c0,1.1,0.9,2,2,2s2-0.9,2-2C983.6,64.9,982.7,64,981.5,64z M981.5,67.1
			c-0.6,0-1.1-0.5-1.1-1.1s0.5-1.1,1.1-1.1s1.1,0.5,1.1,1.1S982.1,67.1,981.5,67.1z"/>
		<path class="st0" d="M1010.9,64c-1.1,0-2,0.9-2,2c0,1.1,0.9,2,2,2c1.1,0,2-0.9,2-2C1013,64.9,1012.1,64,1010.9,64z M1010.9,67.1
			c-0.6,0-1.1-0.5-1.1-1.1s0.5-1.1,1.1-1.1c0.6,0,1.1,0.5,1.1,1.1S1011.5,67.1,1010.9,67.1z"/>
		<rect x="981.2" y="64.5" class="st0" width="29.7" height="0.3"/>
		<rect x="981.2" y="67.2" class="st0" width="29.7" height="0.3"/>
	</g>
	<rect x="869" y="60.7" class="st0" width="100.6" height="1.8"/>
	<rect x="869" y="62.9" class="st0" width="100.6" height="0.5"/>
	<path class="st0" d="M1055.8,55.3h-5.3v-23h5.3V55.3z M1050.8,55.1h4.7V32.6h-4.7V55.1z"/>
	<rect x="1051.5" y="32.5" class="st0" width="0.3" height="22.7"/>
	<rect x="1053" y="32.5" class="st0" width="0.3" height="22.7"/>
	<rect x="1054.3" y="32.5" class="st0" width="0.3" height="22.7"/>
	<path class="st0" d="M839.1,27.8h-15.3v-2.7h15.3V27.8z M824,27.6h15v-2.4h-15V27.6z"/>
	<rect x="824" y="26.3" class="st0" width="15" height="0.3"/>
	<path class="st0" d="M883.7,27.8h-42.8v-2.7h42.8V27.8z M841.1,27.6h42.5v-2.4h-42.5V27.6z"/>
	<rect x="841.1" y="26.3" class="st0" width="42.4" height="0.3"/>
	<path class="st0" d="M987.4,27.8h-15.3v-2.7h15.3V27.8z M972.3,27.6h15v-2.4h-15V27.6z"/>
	<rect x="972.3" y="26.3" class="st0" width="15" height="0.3"/>
	<path class="st0" d="M1032,27.8h-42.8v-2.7h42.8V27.8z M989.4,27.6h42.5v-2.4h-42.5V27.6z"/>
	<rect x="989.5" y="26.3" class="st0" width="42.4" height="0.3"/>
	<path class="st0" d="M1050.6,31.7c0,0-0.1,0-0.1,0l-25.2,0c-15.8,0-37.7,0-62.3,0c-44.9,0-125.4-0.1-170.4-0.1c0,0,0,0,0,0v0.3
		c0,0,0,0,0,0c84.9,0,257.5,0.1,258,0.1h0.1l0-0.1C1050.8,31.8,1050.7,31.8,1050.6,31.7z"/>
	<g>
		<polygon class="st0" points="1033.2,26.5 1033.2,28.3 971,28.3 971,26.5 885.8,26.5 885.8,28.4 823.1,28.4 823.1,26.6 792.5,26.6 
			792.5,26.9 822.8,26.9 822.8,28.7 886.1,28.7 886.1,26.8 970.7,26.8 970.7,28.6 1033.4,28.6 1033.4,26.8 1050.5,26.8 1050.5,60 
			792.6,60 792.6,60.3 1050.8,60.3 1050.8,26.5 		"/>
	</g>
	
		<rect x="775.8" y="43.3" transform="matrix(6.123234e-17 -1 1 6.123234e-17 749.2209 836.064)" class="st0" width="33.7" height="0.3"/>
</g>
<g>
	<g>
		<polygon class="st0" points="1302.3,26.7 1309.3,18.5 1291.1,8.6 1286.2,8.6 1286.2,9.2 1291,9.2 1308.4,18.7 1302.1,26.1 
			1301.6,26.7 		"/>
		<polygon class="st0" points="1287.3,26.6 1294.5,26.6 1306.8,17.5 1306.7,17.2 1306,17.2 1294.3,25.7 1287.3,25.7 		"/>
		
			<rect x="1288.1" y="24.3" transform="matrix(-1 -4.571822e-11 4.571822e-11 -1 2581.0576 49.9235)" class="st0" width="4.9" height="1.3"/>
	</g>
	<g>
		<path class="st0" d="M1142.2,46.3h-8.6c-0.3,0-0.6-0.3-0.6-0.6v-8.8c0-0.3,0.3-0.6,0.6-0.6h8.6c0.3,0,0.6,0.3,0.6,0.6v8.8
			C1142.8,46,1142.5,46.3,1142.2,46.3z M1133.6,36.6c-0.2,0-0.3,0.2-0.3,0.3v8.8c0,0.2,0.2,0.3,0.3,0.3h8.6c0.2,0,0.3-0.2,0.3-0.3
			v-8.8c0-0.2-0.2-0.3-0.3-0.3H1133.6z"/>
		<path class="st0" d="M1130.6,46.3h-8.6c-0.3,0-0.6-0.3-0.6-0.6v-8.8c0-0.3,0.3-0.6,0.6-0.6h8.6c0.3,0,0.6,0.3,0.6,0.6v8.8
			C1131.2,46,1130.9,46.3,1130.6,46.3z M1122,36.6c-0.2,0-0.3,0.2-0.3,0.3v8.8c0,0.2,0.2,0.3,0.3,0.3h8.6c0.2,0,0.3-0.2,0.3-0.3
			v-8.8c0-0.2-0.2-0.3-0.3-0.3H1122z"/>
		<path class="st0" d="M1119,46.3h-8.6c-0.3,0-0.6-0.3-0.6-0.6v-8.8c0-0.3,0.3-0.6,0.6-0.6h8.6c0.3,0,0.6,0.3,0.6,0.6v8.8
			C1119.6,46,1119.3,46.3,1119,46.3z M1110.4,36.6c-0.2,0-0.3,0.2-0.3,0.3v8.8c0,0.2,0.2,0.3,0.3,0.3h8.6c0.2,0,0.3-0.2,0.3-0.3
			v-8.8c0-0.2-0.2-0.3-0.3-0.3H1110.4z"/>
		<path class="st0" d="M1105.9,58.4h-17.6c-0.8,0-1.5-0.7-1.5-1.5V35.1c0-0.8,0.7-1.5,1.5-1.5h17.6c0.8,0,1.5,0.7,1.5,1.5v21.7
			C1107.4,57.7,1106.7,58.4,1105.9,58.4z M1088.3,33.9c-0.7,0-1.2,0.5-1.2,1.2v21.7c0,0.7,0.5,1.2,1.2,1.2h17.6
			c0.7,0,1.2-0.5,1.2-1.2V35.1c0-0.7-0.5-1.2-1.2-1.2H1088.3z"/>
		<rect x="1097" y="33.8" class="st0" width="0.3" height="24.5"/>
		<path class="st0" d="M1094.3,48.1h-3.2c-0.6,0-1.2-0.5-1.2-1.2v-9.4c0-0.6,0.5-1.2,1.2-1.2h3.2c0.6,0,1.2,0.5,1.2,1.2v9.4
			C1095.5,47.5,1095,48.1,1094.3,48.1z M1091.1,36.7c-0.5,0-0.9,0.4-0.9,0.9v9.4c0,0.5,0.4,0.9,0.9,0.9h3.2c0.5,0,0.9-0.4,0.9-0.9
			v-9.4c0-0.5-0.4-0.9-0.9-0.9H1091.1z"/>
		<path class="st0" d="M1103,48.1h-3.2c-0.6,0-1.2-0.5-1.2-1.2v-9.4c0-0.6,0.5-1.2,1.2-1.2h3.2c0.6,0,1.2,0.5,1.2,1.2v9.4
			C1104.2,47.5,1103.7,48.1,1103,48.1z M1099.8,36.7c-0.5,0-0.9,0.4-0.9,0.9v9.4c0,0.5,0.4,0.9,0.9,0.9h3.2c0.5,0,0.9-0.4,0.9-0.9
			v-9.4c0-0.5-0.4-0.9-0.9-0.9H1099.8z"/>
		<path class="st0" d="M1200.2,46.3h-8.6c-0.3,0-0.6-0.3-0.6-0.6v-8.8c0-0.3,0.3-0.6,0.6-0.6h8.6c0.3,0,0.6,0.3,0.6,0.6v8.8
			C1200.8,46,1200.5,46.3,1200.2,46.3z M1191.6,36.6c-0.2,0-0.3,0.2-0.3,0.3v8.8c0,0.2,0.2,0.3,0.3,0.3h8.6c0.2,0,0.3-0.2,0.3-0.3
			v-8.8c0-0.2-0.2-0.3-0.3-0.3H1191.6z"/>
		<path class="st0" d="M1188.6,46.3h-8.6c-0.3,0-0.6-0.3-0.6-0.6v-8.8c0-0.3,0.3-0.6,0.6-0.6h8.6c0.3,0,0.6,0.3,0.6,0.6v8.8
			C1189.2,46,1188.9,46.3,1188.6,46.3z M1180,36.6c-0.2,0-0.3,0.2-0.3,0.3v8.8c0,0.2,0.2,0.3,0.3,0.3h8.6c0.2,0,0.3-0.2,0.3-0.3
			v-8.8c0-0.2-0.2-0.3-0.3-0.3H1180z"/>
		<path class="st0" d="M1177,46.3h-8.6c-0.3,0-0.6-0.3-0.6-0.6v-8.8c0-0.3,0.3-0.6,0.6-0.6h8.6c0.3,0,0.6,0.3,0.6,0.6v8.8
			C1177.6,46,1177.3,46.3,1177,46.3z M1168.4,36.6c-0.2,0-0.3,0.2-0.3,0.3v8.8c0,0.2,0.2,0.3,0.3,0.3h8.6c0.2,0,0.3-0.2,0.3-0.3
			v-8.8c0-0.2-0.2-0.3-0.3-0.3H1168.4z"/>
		<path class="st0" d="M1163.9,58.4h-17.6c-0.8,0-1.5-0.7-1.5-1.5V35.1c0-0.8,0.7-1.5,1.5-1.5h17.6c0.8,0,1.5,0.7,1.5,1.5v21.7
			C1165.4,57.7,1164.7,58.4,1163.9,58.4z M1146.3,33.9c-0.7,0-1.2,0.5-1.2,1.2v21.7c0,0.7,0.5,1.2,1.2,1.2h17.6
			c0.7,0,1.2-0.5,1.2-1.2V35.1c0-0.7-0.5-1.2-1.2-1.2H1146.3z"/>
		<rect x="1154.9" y="33.8" class="st0" width="0.3" height="24.5"/>
		<path class="st0" d="M1152.3,48.1h-3.2c-0.6,0-1.2-0.5-1.2-1.2v-9.4c0-0.6,0.5-1.2,1.2-1.2h3.2c0.6,0,1.2,0.5,1.2,1.2v9.4
			C1153.5,47.5,1153,48.1,1152.3,48.1z M1149.1,36.7c-0.5,0-0.9,0.4-0.9,0.9v9.4c0,0.5,0.4,0.9,0.9,0.9h3.2c0.5,0,0.9-0.4,0.9-0.9
			v-9.4c0-0.5-0.4-0.9-0.9-0.9H1149.1z"/>
		<path class="st0" d="M1161,48.1h-3.2c-0.6,0-1.2-0.5-1.2-1.2v-9.4c0-0.6,0.5-1.2,1.2-1.2h3.2c0.6,0,1.2,0.5,1.2,1.2v9.4
			C1162.2,47.5,1161.6,48.1,1161,48.1z M1157.8,36.7c-0.5,0-0.9,0.4-0.9,0.9v9.4c0,0.5,0.4,0.9,0.9,0.9h3.2c0.5,0,0.9-0.4,0.9-0.9
			v-9.4c0-0.5-0.4-0.9-0.9-0.9H1157.8z"/>
		<path class="st0" d="M1258.4,46.3h-8.6c-0.3,0-0.6-0.3-0.6-0.6v-8.8c0-0.3,0.3-0.6,0.6-0.6h8.6c0.3,0,0.6,0.3,0.6,0.6v8.8
			C1259.1,46,1258.8,46.3,1258.4,46.3z M1249.9,36.6c-0.2,0-0.3,0.2-0.3,0.3v8.8c0,0.2,0.2,0.3,0.3,0.3h8.6c0.2,0,0.3-0.2,0.3-0.3
			v-8.8c0-0.2-0.2-0.3-0.3-0.3H1249.9z"/>
		<path class="st0" d="M1246.9,46.3h-8.6c-0.3,0-0.6-0.3-0.6-0.6v-8.8c0-0.3,0.3-0.6,0.6-0.6h8.6c0.3,0,0.6,0.3,0.6,0.6v8.8
			C1247.5,46,1247.2,46.3,1246.9,46.3z M1238.3,36.6c-0.2,0-0.3,0.2-0.3,0.3v8.8c0,0.2,0.2,0.3,0.3,0.3h8.6c0.2,0,0.3-0.2,0.3-0.3
			v-8.8c0-0.2-0.2-0.3-0.3-0.3H1238.3z"/>
		<path class="st0" d="M1235.3,46.3h-8.6c-0.3,0-0.6-0.3-0.6-0.6v-8.8c0-0.3,0.3-0.6,0.6-0.6h8.6c0.3,0,0.6,0.3,0.6,0.6v8.8
			C1235.9,46,1235.6,46.3,1235.3,46.3z M1226.7,36.6c-0.2,0-0.3,0.2-0.3,0.3v8.8c0,0.2,0.2,0.3,0.3,0.3h8.6c0.2,0,0.3-0.2,0.3-0.3
			v-8.8c0-0.2-0.2-0.3-0.3-0.3H1226.7z"/>
		<path class="st0" d="M1222.1,58.4h-17.6c-0.8,0-1.5-0.7-1.5-1.5V35.1c0-0.8,0.7-1.5,1.5-1.5h17.6c0.8,0,1.5,0.7,1.5,1.5v21.7
			C1223.7,57.7,1223,58.4,1222.1,58.4z M1204.6,33.9c-0.7,0-1.2,0.5-1.2,1.2v21.7c0,0.7,0.5,1.2,1.2,1.2h17.6c0.7,0,1.2-0.5,1.2-1.2
			V35.1c0-0.7-0.5-1.2-1.2-1.2H1204.6z"/>
		<rect x="1213.2" y="33.8" class="st0" width="0.3" height="24.5"/>
		<path class="st0" d="M1210.6,48.1h-3.2c-0.6,0-1.2-0.5-1.2-1.2v-9.4c0-0.6,0.5-1.2,1.2-1.2h3.2c0.6,0,1.2,0.5,1.2,1.2v9.4
			C1211.8,47.5,1211.2,48.1,1210.6,48.1z M1207.4,36.7c-0.5,0-0.9,0.4-0.9,0.9v9.4c0,0.5,0.4,0.9,0.9,0.9h3.2c0.5,0,0.9-0.4,0.9-0.9
			v-9.4c0-0.5-0.4-0.9-0.9-0.9H1207.4z"/>
		<path class="st0" d="M1219.3,48.1h-3.2c-0.6,0-1.2-0.5-1.2-1.2v-9.4c0-0.6,0.5-1.2,1.2-1.2h3.2c0.6,0,1.2,0.5,1.2,1.2v9.4
			C1220.4,47.5,1219.9,48.1,1219.3,48.1z M1216.1,36.7c-0.5,0-0.9,0.4-0.9,0.9v9.4c0,0.5,0.4,0.9,0.9,0.9h3.2c0.5,0,0.9-0.4,0.9-0.9
			v-9.4c0-0.5-0.4-0.9-0.9-0.9H1216.1z"/>
		<path class="st0" d="M1083.4,46.3h-8.6c-0.3,0-0.6-0.3-0.6-0.6v-8.8c0-0.3,0.3-0.6,0.6-0.6h8.6c0.3,0,0.6,0.3,0.6,0.6v8.8
			C1084,46,1083.8,46.3,1083.4,46.3z M1074.9,36.6c-0.2,0-0.3,0.2-0.3,0.3v8.8c0,0.2,0.2,0.3,0.3,0.3h8.6c0.2,0,0.3-0.2,0.3-0.3
			v-8.8c0-0.2-0.2-0.3-0.3-0.3H1074.9z"/>
		<path class="st0" d="M1071.8,46.3h-8.6c-0.3,0-0.6-0.3-0.6-0.6v-8.8c0-0.3,0.3-0.6,0.6-0.6h8.6c0.3,0,0.6,0.3,0.6,0.6v8.8
			C1072.5,46,1072.2,46.3,1071.8,46.3z M1063.3,36.6c-0.2,0-0.3,0.2-0.3,0.3v8.8c0,0.2,0.2,0.3,0.3,0.3h8.6c0.2,0,0.3-0.2,0.3-0.3
			v-8.8c0-0.2-0.2-0.3-0.3-0.3H1063.3z"/>
		<path class="st0" d="M1305.7,46.3h-8.6c-0.3,0-0.6-0.3-0.6-0.6v-8.8c0-0.3,0.3-0.6,0.6-0.6h8.6c0.3,0,0.6,0.3,0.6,0.6v8.8
			C1306.3,46,1306.1,46.3,1305.7,46.3z M1297.1,36.6c-0.2,0-0.3,0.2-0.3,0.3v8.8c0,0.2,0.2,0.3,0.3,0.3h8.6c0.2,0,0.3-0.2,0.3-0.3
			v-8.8c0-0.2-0.2-0.3-0.3-0.3H1297.1z"/>
		<path class="st0" d="M1294.1,46.3h-8.6c-0.3,0-0.6-0.3-0.6-0.6v-8.8c0-0.3,0.3-0.6,0.6-0.6h8.6c0.3,0,0.6,0.3,0.6,0.6v8.8
			C1294.7,46,1294.5,46.3,1294.1,46.3z M1285.6,36.6c-0.2,0-0.3,0.2-0.3,0.3v8.8c0,0.2,0.2,0.3,0.3,0.3h8.6c0.2,0,0.3-0.2,0.3-0.3
			v-8.8c0-0.2-0.2-0.3-0.3-0.3H1285.6z"/>
		<path class="st0" d="M1280.9,58.4h-17.6c-0.8,0-1.5-0.7-1.5-1.5V35.1c0-0.8,0.7-1.5,1.5-1.5h17.6c0.8,0,1.5,0.7,1.5,1.5v21.7
			C1282.4,57.7,1281.7,58.4,1280.9,58.4z M1263.3,33.9c-0.7,0-1.2,0.5-1.2,1.2v21.7c0,0.7,0.5,1.2,1.2,1.2h17.6
			c0.7,0,1.2-0.5,1.2-1.2V35.1c0-0.7-0.5-1.2-1.2-1.2H1263.3z"/>
		<rect x="1272" y="33.8" class="st0" width="0.3" height="24.5"/>
		<path class="st0" d="M1269.3,48.1h-3.2c-0.6,0-1.2-0.5-1.2-1.2v-9.4c0-0.6,0.5-1.2,1.2-1.2h3.2c0.6,0,1.2,0.5,1.2,1.2v9.4
			C1270.5,47.5,1270,48.1,1269.3,48.1z M1266.1,36.7c-0.5,0-0.9,0.4-0.9,0.9v9.4c0,0.5,0.4,0.9,0.9,0.9h3.2c0.5,0,0.9-0.4,0.9-0.9
			v-9.4c0-0.5-0.4-0.9-0.9-0.9H1266.1z"/>
		<path class="st0" d="M1278,48.1h-3.2c-0.6,0-1.2-0.5-1.2-1.2v-9.4c0-0.6,0.5-1.2,1.2-1.2h3.2c0.6,0,1.2,0.5,1.2,1.2v9.4
			C1279.2,47.5,1278.7,48.1,1278,48.1z M1274.8,36.7c-0.5,0-0.9,0.4-0.9,0.9v9.4c0,0.5,0.4,0.9,0.9,0.9h3.2c0.5,0,0.9-0.4,0.9-0.9
			v-9.4c0-0.5-0.4-0.9-0.9-0.9H1274.8z"/>
		<rect x="1055.7" y="30.2" class="st0" width="258" height="0.3"/>
		<g>
			<path class="st0" d="M1109.2,64.3c1.5,0,2.8-0.9,3.4-2.3h-6.8C1106.4,63.4,1107.7,64.3,1109.2,64.3z"/>
			<path class="st0" d="M1113,60.3h-7.4c0,0.3,0,0.5,0.1,0.7h7.3C1112.9,60.8,1113,60.6,1113,60.3z"/>
			<rect x="1107.5" y="63.7" class="st0" width="3.7" height="4.5"/>
			<path class="st0" d="M1094.6,71.4c-3,0-5.4-2.4-5.4-5.4c0-3,2.4-5.4,5.4-5.4s5.4,2.4,5.4,5.4C1100,69,1097.6,71.4,1094.6,71.4z
				 M1094.6,61.2c-2.6,0-4.8,2.2-4.8,4.8s2.2,4.8,4.8,4.8s4.8-2.2,4.8-4.8S1097.3,61.2,1094.6,61.2z"/>
			<path class="st0" d="M1094.6,70.5c-2.5,0-4.5-2-4.5-4.5c0-2.5,2-4.5,4.5-4.5s4.5,2,4.5,4.5C1099.1,68.5,1097.1,70.5,1094.6,70.5z
				 M1094.6,61.8c-2.3,0-4.2,1.9-4.2,4.2c0,2.3,1.9,4.2,4.2,4.2s4.2-1.9,4.2-4.2C1098.8,63.7,1096.9,61.8,1094.6,61.8z"/>
			<path class="st0" d="M1094.6,69.5c-1.9,0-3.5-1.6-3.5-3.5s1.6-3.5,3.5-3.5s3.5,1.6,3.5,3.5S1096.5,69.5,1094.6,69.5z
				 M1094.6,62.7c-1.8,0-3.3,1.5-3.3,3.3s1.5,3.3,3.3,3.3c1.8,0,3.3-1.5,3.3-3.3S1096.5,62.7,1094.6,62.7z"/>
			<path class="st0" d="M1124,71.4c-3,0-5.4-2.4-5.4-5.4c0-3,2.4-5.4,5.4-5.4c3,0,5.4,2.4,5.4,5.4C1129.4,69,1127,71.4,1124,71.4z
				 M1124,61.2c-2.6,0-4.8,2.2-4.8,4.8s2.2,4.8,4.8,4.8c2.6,0,4.8-2.2,4.8-4.8S1126.7,61.2,1124,61.2z"/>
			<path class="st0" d="M1124,70.5c-2.5,0-4.5-2-4.5-4.5c0-2.5,2-4.5,4.5-4.5s4.5,2,4.5,4.5C1128.5,68.5,1126.5,70.5,1124,70.5z
				 M1124,61.8c-2.3,0-4.2,1.9-4.2,4.2c0,2.3,1.9,4.2,4.2,4.2s4.2-1.9,4.2-4.2C1128.2,63.7,1126.3,61.8,1124,61.8z"/>
			<path class="st0" d="M1124,69.5c-1.9,0-3.5-1.6-3.5-3.5s1.6-3.5,3.5-3.5c1.9,0,3.5,1.6,3.5,3.5S1125.9,69.5,1124,69.5z
				 M1124,62.7c-1.8,0-3.3,1.5-3.3,3.3s1.5,3.3,3.3,3.3c1.8,0,3.3-1.5,3.3-3.3S1125.9,62.7,1124,62.7z"/>
			<path class="st0" d="M1124,60.3c2.4,0,4.5,1.5,5.4,3.7h0.9l-0.3-2.4l-2.1-1.4l-9.1,0.1l0,0l0,0c0,0-1.5,1.1-2.7,2
				c-1.3,0.9-1.9,1-2.4,1.1c-0.5,0.1-6.5,0.2-7.5,0c-1-0.2-4.7-3.1-4.8-3.2l0,0h-9.5l-2.8,1.7l-1.7,0.2l-0.3,1.5l2.5,0
				c0.9-1.9,2.9-3.2,5.2-3.2c2.4,0,4.4,1.5,5.3,3.5c2.8,0,15.7,0,18.8,0C1119.6,61.7,1121.6,60.3,1124,60.3z"/>
			<rect x="1105" y="61.5" class="st0" width="8.3" height="0.3"/>
			<path class="st0" d="M1094.6,64c-1.1,0-2,0.9-2,2c0,1.1,0.9,2,2,2c1.1,0,2-0.9,2-2C1096.7,64.9,1095.8,64,1094.6,64z
				 M1094.6,67.1c-0.6,0-1.1-0.5-1.1-1.1s0.5-1.1,1.1-1.1c0.6,0,1.1,0.5,1.1,1.1S1095.2,67.1,1094.6,67.1z"/>
			<path class="st0" d="M1124,64c-1.1,0-2,0.9-2,2c0,1.1,0.9,2,2,2c1.1,0,2-0.9,2-2C1126.1,64.9,1125.2,64,1124,64z M1124,67.1
				c-0.6,0-1.1-0.5-1.1-1.1s0.5-1.1,1.1-1.1c0.6,0,1.1,0.5,1.1,1.1S1124.6,67.1,1124,67.1z"/>
			<rect x="1094.3" y="64.5" class="st0" width="29.7" height="0.3"/>
			<rect x="1094.3" y="67.2" class="st0" width="29.7" height="0.3"/>
		</g>
		<g>
			<path class="st0" d="M1259.2,64.3c1.5,0,2.8-0.9,3.4-2.3h-6.8C1256.3,63.4,1257.6,64.3,1259.2,64.3z"/>
			<path class="st0" d="M1262.9,60.3h-7.4c0,0.3,0,0.5,0.1,0.7h7.3C1262.9,60.8,1262.9,60.6,1262.9,60.3z"/>
			<rect x="1257.4" y="63.7" class="st0" width="3.7" height="4.5"/>
			<path class="st0" d="M1244.6,71.4c-3,0-5.4-2.4-5.4-5.4c0-3,2.4-5.4,5.4-5.4s5.4,2.4,5.4,5.4C1249.9,69,1247.5,71.4,1244.6,71.4z
				 M1244.6,61.2c-2.6,0-4.8,2.2-4.8,4.8s2.2,4.8,4.8,4.8s4.8-2.2,4.8-4.8S1247.2,61.2,1244.6,61.2z"/>
			<path class="st0" d="M1244.6,70.5c-2.5,0-4.5-2-4.5-4.5c0-2.5,2-4.5,4.5-4.5s4.5,2,4.5,4.5C1249,68.5,1247,70.5,1244.6,70.5z
				 M1244.6,61.8c-2.3,0-4.2,1.9-4.2,4.2c0,2.3,1.9,4.2,4.2,4.2s4.2-1.9,4.2-4.2C1248.7,63.7,1246.9,61.8,1244.6,61.8z"/>
			<path class="st0" d="M1244.6,69.5c-1.9,0-3.5-1.6-3.5-3.5s1.6-3.5,3.5-3.5s3.5,1.6,3.5,3.5S1246.5,69.5,1244.6,69.5z
				 M1244.6,62.7c-1.8,0-3.3,1.5-3.3,3.3s1.5,3.3,3.3,3.3s3.3-1.5,3.3-3.3S1246.4,62.7,1244.6,62.7z"/>
			<path class="st0" d="M1274,71.4c-3,0-5.4-2.4-5.4-5.4c0-3,2.4-5.4,5.4-5.4c3,0,5.4,2.4,5.4,5.4C1279.4,69,1276.9,71.4,1274,71.4z
				 M1274,61.2c-2.6,0-4.8,2.2-4.8,4.8s2.2,4.8,4.8,4.8c2.6,0,4.8-2.2,4.8-4.8S1276.6,61.2,1274,61.2z"/>
			<path class="st0" d="M1274,70.5c-2.5,0-4.5-2-4.5-4.5c0-2.5,2-4.5,4.5-4.5s4.5,2,4.5,4.5C1278.4,68.5,1276.4,70.5,1274,70.5z
				 M1274,61.8c-2.3,0-4.2,1.9-4.2,4.2c0,2.3,1.9,4.2,4.2,4.2s4.2-1.9,4.2-4.2C1278.1,63.7,1276.3,61.8,1274,61.8z"/>
			<path class="st0" d="M1274,69.5c-1.9,0-3.5-1.6-3.5-3.5s1.6-3.5,3.5-3.5c1.9,0,3.5,1.6,3.5,3.5S1275.9,69.5,1274,69.5z
				 M1274,62.7c-1.8,0-3.3,1.5-3.3,3.3s1.5,3.3,3.3,3.3c1.8,0,3.3-1.5,3.3-3.3S1275.8,62.7,1274,62.7z"/>
			<path class="st0" d="M1274,60.3c2.4,0,4.5,1.5,5.4,3.7h0.9l-0.3-2.4l-2.1-1.4l-9.1,0.2l0,0l0,0c0,0-1.5,0.9-2.7,1.8
				c-1.3,0.9-1.9,1-2.4,1.1c-0.5,0.1-6.5,0.2-7.5,0c-1-0.2-4.7-3.1-4.8-3.2l0,0h-9.5l-2.8,1.7l-1.7,0.2l-0.3,1.5l2.5,0
				c0.9-1.9,2.9-3.2,5.2-3.2c2.4,0,4.4,1.5,5.3,3.5c2.8,0,15.7,0,18.8,0C1269.5,61.7,1271.6,60.3,1274,60.3z"/>
			<rect x="1255" y="61.5" class="st0" width="8.3" height="0.3"/>
			<path class="st0" d="M1244.6,64c-1.1,0-2,0.9-2,2c0,1.1,0.9,2,2,2c1.1,0,2-0.9,2-2C1246.6,64.9,1245.7,64,1244.6,64z
				 M1244.6,67.1c-0.6,0-1.1-0.5-1.1-1.1s0.5-1.1,1.1-1.1c0.6,0,1.1,0.5,1.1,1.1S1245.2,67.1,1244.6,67.1z"/>
			<path class="st0" d="M1274,64c-1.1,0-2,0.9-2,2c0,1.1,0.9,2,2,2c1.1,0,2-0.9,2-2C1276,64.9,1275.1,64,1274,64z M1274,67.1
				c-0.6,0-1.1-0.5-1.1-1.1s0.5-1.1,1.1-1.1c0.6,0,1.1,0.5,1.1,1.1S1274.6,67.1,1274,67.1z"/>
			<rect x="1244.2" y="64.5" class="st0" width="29.7" height="0.3"/>
			<rect x="1244.2" y="67.2" class="st0" width="29.7" height="0.3"/>
		</g>
		<rect x="1132.1" y="60.7" class="st0" width="100.6" height="1.8"/>
		<rect x="1132.1" y="62.9" class="st0" width="100.6" height="0.5"/>
		<path class="st0" d="M1318.9,55.3h-5.3v-23h5.3V55.3z M1313.8,55.1h4.7V32.6h-4.7V55.1z"/>
		<rect x="1314.5" y="32.5" class="st0" width="0.3" height="22.7"/>
		<rect x="1316" y="32.5" class="st0" width="0.3" height="22.7"/>
		<rect x="1317.3" y="32.5" class="st0" width="0.3" height="22.7"/>
		<path class="st0" d="M1102.1,27.8h-15.3v-2.7h15.3V27.8z M1087,27.6h15v-2.4h-15V27.6z"/>
		<rect x="1087" y="26.3" class="st0" width="15" height="0.3"/>
		<path class="st0" d="M1146.7,27.8H1104v-2.7h42.8V27.8z M1104.1,27.6h42.5v-2.4h-42.5V27.6z"/>
		<rect x="1104.2" y="26.3" class="st0" width="42.4" height="0.3"/>
		<path class="st0" d="M1236.5,27.8h-15.3v-2.7h15.3V27.8z M1221.3,27.6h15v-2.4h-15V27.6z"/>
		<rect x="1221.3" y="26.3" class="st0" width="15" height="0.3"/>
		<path class="st0" d="M1281.1,27.8h-42.8v-2.7h42.8V27.8z M1238.4,27.6h42.5v-2.4h-42.5V27.6z"/>
		<rect x="1238.5" y="26.3" class="st0" width="42.4" height="0.3"/>
		<path class="st0" d="M1313.7,31.7c0,0-0.1,0-0.1,0l-25.2,0c-15.8,0-37.7,0-62.3,0c-44.9,0-125.4-0.1-170.4-0.1c0,0,0,0,0,0v0.3
			c0,0,0,0,0,0c84.9,0,257.5,0.1,258,0.1h0.1l0-0.1C1313.8,31.8,1313.8,31.8,1313.7,31.7z"/>
		<g>
			<polygon class="st0" points="1282.2,26.5 1282.2,28.3 1220,28.3 1220,26.5 1148.8,26.5 1148.8,28.4 1086.1,28.4 1086.1,26.6 
				1055.6,26.6 1055.6,26.9 1085.9,26.9 1085.9,28.7 1149.1,28.7 1149.1,26.8 1219.7,26.8 1219.7,28.6 1282.5,28.6 1282.5,26.8 
				1313.5,26.8 1313.5,60 1055.6,60 1055.6,60.3 1313.8,60.3 1313.8,26.5 			"/>
		</g>
		
			<rect x="1038.8" y="43.3" transform="matrix(3.233582e-13 -1 1 3.233582e-13 1012.2545 1099.0977)" class="st0" width="33.7" height="0.3"/>
	</g>
</g>
</svg>
