<?xml version="1.0" encoding="utf-8"?>
<!-- Generator: Adobe Illustrator 22.0.0, SVG Export Plug-In . SVG Version: 6.00 Build 0)  -->
<svg version="1.1" id="图层_1" xmlns="http://www.w3.org/2000/svg" xmlns:xlink="http://www.w3.org/1999/xlink" x="0px" y="0px"
	 viewBox="0 0 24 24" style="enable-background:new 0 0 24 24;" xml:space="preserve">
<style type="text/css">
	.st0{fill:#909399;}
</style>
<g>
	<path class="st0" d="M8.7,8h0.9C9.9,7,10.9,6.2,12,6.2c1.1,0,2.1,0.8,2.4,1.8h1c1.5,0,2.7,1.2,2.7,2.8v9c0,0.3-0.1,0.6-0.4,0.8l0,0
		c-0.2,0.2-0.5,0.3-0.8,0.3h-0.6l1.2,1.4c0.1,0.2,0.1,0.4,0,0.6C17.3,23,17.2,23,17.1,23c-0.1,0-0.2-0.1-0.3-0.1L15.2,21H8.8
		l-1.6,1.9C7.1,22.9,7,23,6.9,23c-0.1,0-0.2,0-0.3-0.1c-0.2-0.1-0.2-0.4,0-0.6L7.7,21H7.1c-0.7,0-1.2-0.5-1.2-1.2v-9
		C5.9,9.3,7.1,8,8.7,8L8.7,8z M8.9,10.6h6.2c0.3,0,0.5,0.1,0.7,0.3c0.2,0.2,0.3,0.5,0.3,0.7v2.1c0,0.3-0.1,0.5-0.3,0.7
		c-0.2,0.2-0.5,0.3-0.7,0.3H8.9c-0.6,0-1-0.5-1-1.1v-2.1c0-0.3,0.1-0.5,0.3-0.7C8.4,10.7,8.6,10.6,8.9,10.6L8.9,10.6z M15.1,11.4
		H8.9c-0.1,0-0.1,0-0.2,0.1c0,0.1-0.1,0.1-0.1,0.2v2.1c0,0.1,0,0.1,0.1,0.2c0,0,0.1,0.1,0.2,0.1h6.2c0.1,0,0.1,0,0.2-0.1
		c0,0,0.1-0.1,0.1-0.2v-2.1c0-0.1,0-0.1-0.1-0.2C15.2,11.4,15.1,11.4,15.1,11.4L15.1,11.4z M7.2,19.6h9.6v-8.9
		c0-0.8-0.6-1.4-1.4-1.4h-1.5c-0.4,0-0.7-0.3-0.7-0.7c0-0.3-0.1-0.6-0.3-0.8c-0.2-0.2-0.5-0.3-0.8-0.3c-0.6,0-1.2,0.5-1.2,1.2v0
		c0,0.2-0.1,0.3-0.2,0.5c-0.1,0.1-0.3,0.2-0.5,0.2H8.7c-0.4,0-0.8,0.2-1.1,0.5c-0.3,0.3-0.4,0.7-0.4,1.1V19.6z M12,8
		c0.2,0,0.3,0.1,0.5,0.2c0.1,0.1,0.2,0.3,0.2,0.5c0,0.3-0.2,0.5-0.4,0.6c-0.2,0.1-0.5,0-0.7-0.1c-0.2-0.2-0.2-0.5-0.1-0.7
		C11.5,8.2,11.7,8,12,8L12,8z M8.7,16.3c0.5,0,1,0.3,1.2,0.8c0.2,0.5,0.1,1-0.3,1.4c-0.4,0.4-0.9,0.5-1.4,0.3
		c-0.5-0.2-0.8-0.7-0.8-1.2C7.4,16.9,8,16.3,8.7,16.3L8.7,16.3z M8.7,17.1c-0.3,0-0.5,0.2-0.5,0.5c0,0.3,0.2,0.5,0.5,0.5
		c0.2,0,0.4-0.1,0.5-0.2c0.1-0.2,0.1-0.4,0-0.5C9.1,17.2,8.9,17.1,8.7,17.1L8.7,17.1z M15.3,16.3c0.7,0,1.3,0.6,1.3,1.3
		c0,0.7-0.6,1.3-1.3,1.3c-0.7,0-1.3-0.6-1.3-1.3C14,16.9,14.6,16.3,15.3,16.3L15.3,16.3z M15.3,17.1c-0.3,0-0.5,0.2-0.5,0.5
		c0,0.3,0.2,0.5,0.5,0.5c0.2,0,0.4-0.1,0.5-0.2c0.1-0.2,0.1-0.4,0-0.5C15.6,17.2,15.4,17.1,15.3,17.1L15.3,17.1z M15.3,17.1"/>
	<g>
		<rect x="3.3" y="1" class="st0" width="17.4" height="0.6"/>
		<path class="st0" d="M6.5,3.6c0,0.5-0.4,1-0.8,1c-0.4,0-0.8-0.5-0.8-1c0-0.5,0.8-1.3,0.8-1.3S6.5,3.1,6.5,3.6L6.5,3.6z"/>
		<path class="st0" d="M8.6,4.9c0,0.5-0.4,1-0.8,1C7.4,5.8,7,5.4,7,4.8c0-0.5,0.8-1.3,0.8-1.3S8.6,4.4,8.6,4.9L8.6,4.9z"/>
		<path class="st0" d="M9.9,4.6c-0.4,0-0.8-0.5-0.8-1c0-0.5,0.8-1.3,0.8-1.3s0.8,0.8,0.8,1.3C10.7,4.1,10.3,4.6,9.9,4.6L9.9,4.6z"/>
		<path class="st0" d="M12.6,4.9c0,0.5-0.4,1-0.8,1c-0.4,0-0.8-0.5-0.8-1c0-0.5,0.8-1.3,0.8-1.3S12.6,4.4,12.6,4.9L12.6,4.9z"/>
		<path class="st0" d="M14.8,3.6c0,0.5-0.4,1-0.8,1c-0.4,0-0.8-0.5-0.8-1c0-0.5,0.8-1.3,0.8-1.3S14.8,3.1,14.8,3.6L14.8,3.6z"/>
		<path class="st0" d="M18.1,4.6c-0.4,0-0.8-0.5-0.8-1c0-0.5,0.8-1.3,0.8-1.3S19,3.1,19,3.6C19,4.1,18.5,4.6,18.1,4.6L18.1,4.6z"/>
		<path class="st0" d="M16.8,4.9c0,0.5-0.4,1-0.8,1c-0.4,0-0.8-0.5-0.8-1c0-0.5,0.8-1.3,0.8-1.3S16.8,4.4,16.8,4.9L16.8,4.9z"/>
	</g>
</g>
</svg>
