<?xml version="1.0" encoding="utf-8"?>
<!-- Generator: Adobe Illustrator 22.0.0, SVG Export Plug-In . SVG Version: 6.00 Build 0)  -->
<svg version="1.1" id="图层_1" xmlns="http://www.w3.org/2000/svg" xmlns:xlink="http://www.w3.org/1999/xlink" x="0px" y="0px"
	 viewBox="0 0 24 24" style="enable-background:new 0 0 24 24;" xml:space="preserve">
<style type="text/css">
	.st0{fill:#909399;}
</style>
<g>
	<path class="st0" d="M4.4,4.8h6.3c0.7,0,1.1,0.2,1.1,0.7c0,0.5-0.4,0.7-1.1,0.7H4.4c-0.7,0-1.1-0.2-1.1-0.7C3.4,5,3.7,4.8,4.4,4.8
		L4.4,4.8z M4.4,4.8"/>
	<path class="st0" d="M4.4,7.5h6.3c0.7,0,1.1,0.2,1.1,0.7c0,0.5-0.4,0.7-1.1,0.7H4.4c-0.7,0-1.1-0.2-1.1-0.7
		C3.4,7.8,3.7,7.5,4.4,7.5L4.4,7.5z M4.4,7.5"/>
	<g>
		<path class="st0" d="M22,10.5c-0.4,0-0.8,0.3-0.8,0.8v6.1c0,0.4-0.3,0.8-0.8,0.8H3.5c-0.4,0-0.8-0.3-0.8-0.8V3.5
			c0-0.4,0.3-0.8,0.8-0.8h12.7c0.4,0,0.8-0.3,0.8-0.8c0-0.4-0.3-0.8-0.8-0.8H3.5c-1.3,0-2.3,1-2.3,2.3v13.8c0,1.3,1,2.3,2.3,2.3
			h16.9c1.3,0,2.3-1,2.3-2.3v-6.1C22.8,10.9,22.4,10.5,22,10.5L22,10.5z M21.6,21.2H2.4c-0.4,0-0.8,0.3-0.8,0.8
			c0,0.4,0.3,0.8,0.8,0.8h19.2c0.4,0,0.8-0.3,0.8-0.8S22,21.2,21.6,21.2L21.6,21.2z M21.6,21.2"/>
	</g>
	<polygon class="st0" points="17.2,11.8 17.2,16.9 19.8,16.9 19.8,10.5 19.2,9.8 	"/>
	<polygon class="st0" points="9.2,16.9 11.8,16.9 11.8,13 9.2,15.8 	"/>
	<polygon class="st0" points="13.2,13.2 13.2,16.9 15.8,16.9 15.8,13.3 14.6,14.6 	"/>
	<polygon class="st0" points="14,13.1 18.6,8.3 19.2,8.9 19.2,6.8 17.2,6.8 18,7.6 14,11.9 11.9,9.7 8.6,13.2 8.6,14.5 11.9,11 	"/>
	<path class="st0" d="M14,13.1"/>
</g>
</svg>
