<?xml version="1.0" encoding="utf-8"?>
<!-- Generator: Adobe Illustrator 22.0.0, SVG Export Plug-In . SVG Version: 6.00 Build 0)  -->
<svg version="1.1" id="图层_1" xmlns="http://www.w3.org/2000/svg" xmlns:xlink="http://www.w3.org/1999/xlink" x="0px" y="0px"
	 viewBox="0 0 24 24" style="enable-background:new 0 0 24 24;" xml:space="preserve">
<style type="text/css">
	.st0{fill:#909399;}
</style>
<g>
	<path class="st0" d="M19.7,23H4.3C2.5,23,1,21.5,1,19.7V4.3C1,2.5,2.5,1,4.3,1h15.4C21.5,1,23,2.5,23,4.3v15.4
		C23,21.5,21.5,23,19.7,23z M4.3,2.3c-1.1,0-2,0.9-2,2v15.4c0,1.1,0.9,2,2,2h15.4c1.1,0,2-0.9,2-2V4.3c0-1.1-0.9-2-2-2H4.3z"/>
	<g>
		<polygon class="st0" points="14.7,4 4.8,4 4.8,4.8 14.6,4.8 14.6,4 		"/>
		<polygon class="st0" points="15.8,13.5 15.8,20 19.2,20 19.2,11.8 18.4,10.9 		"/>
		<polygon class="st0" points="5.5,20 9,20 9,15 5.5,18.5 		"/>
		<polygon class="st0" points="10.7,15.3 10.7,20 14.1,20 14.1,15.4 12.5,17 		"/>
		<polygon class="st0" points="14.7,6.3 4.8,6.3 4.8,7.1 14.6,7.1 14.6,6.3 		"/>
		<rect x="4.8" y="8.6" class="st0" width="6.8" height="0.8"/>
		<polygon class="st0" points="11.7,15.1 17.6,9 18.5,9.8 18.5,7.1 15.9,7.1 16.8,8.1 11.7,13.5 9.1,10.7 4.8,15.2 4.8,16.9 
			9.1,12.4 		"/>
		<path class="st0" d="M11.7,15.1"/>
	</g>
</g>
</svg>
